M48
; DRILL file {KiCad (5.1.2-1)-1} date Monday, January 31, 2022 at 09:07:01 PM
; FORMAT={-:-/ absolute / inch / decimal}
; #@! TF.CreationDate,2022-01-31T21:07:01-05:00
; #@! TF.GenerationSoftware,Kicad,Pcbnew,(5.1.2-1)-1
; #@! TF.FileFunction,Plated,1,2,PTH
FMAT,2
INCH
T1C0.0118
T2C0.0157
T3C0.0394
%
G90
G05
T1
X5.7438Y-5.555
X6.165Y-2.105
X6.175Y-2.815
X6.2Y-2.79
X6.2753Y-5.555
X6.3062Y-5.0138
X6.3178Y-3.265
X6.34Y-4.43
X6.3478Y-4.605
X6.35Y-2.625
X6.3622Y-3.265
X6.43Y-2.4
X6.45Y-4.48
X6.45Y-5.9
X6.46Y-3.54
X6.46Y-4.02
X6.465Y-4.96
X6.47Y-5.43
X6.485Y-5.01
X6.52Y-2.885
X6.5693Y-2.8743
X6.575Y-2.935
X6.6493Y-2.7943
X6.665Y-2.925
X6.7007Y-2.8451
X6.83Y-2.1
X6.865Y-1.815
X6.9496Y-1.7933
X6.955Y-1.725
X6.97Y-1.7694
X6.97Y-2.97
X7.0Y-3.01
X7.0093Y-1.7394
X7.015Y-1.695
X7.05Y-2.4
X7.055Y-1.765
X7.065Y-1.815
X7.0873Y-1.7927
X7.095Y-1.74
X7.135Y-1.725
X7.15Y-2.97
X7.2Y-4.28
X7.2Y-5.135
X7.21Y-2.095
X7.2228Y-4.18
X7.2421Y-3.77
X7.2421Y-3.54
X7.2549Y-3.3
X7.265Y-2.26
X7.28Y-2.79
X7.29Y-2.48
X7.325Y-5.23
X7.3292Y-3.54
X7.3514Y-4.1986
X7.355Y-2.45
X7.355Y-2.3522
X7.39Y-2.53
X7.4Y-3.77
X7.41Y-3.3
X7.41Y-4.24
X7.4122Y-2.79
X7.4154Y-2.636
X7.445Y-1.9178
X7.445Y-2.24
X7.445Y-2.285
X7.445Y-2.41
X7.485Y-2.285
X7.49Y-2.24
X7.5141Y-2.5191
X7.525Y-2.38
X7.53Y-2.07
X7.54Y-1.9478
X7.565Y-2.07
X7.58Y-2.33
X7.58Y-2.555
X7.58Y-2.42
X7.5872Y-1.9172
X7.6Y-2.07
X7.6Y-2.11
X7.62Y-2.4564
X7.6314Y-2.4894
X7.6349Y-2.525
X7.635Y-2.07
X7.635Y-2.11
X7.65Y-1.69
X7.69Y-2.345
X7.7Y-2.525
X7.725Y-2.455
X7.81Y-2.35
X7.85Y-1.9572
X7.865Y-2.06
X7.87Y-2.33
X7.93Y-2.26
X5.2315Y-4.382
X5.261Y-4.7069
X5.3004Y-4.4017
X5.3299Y-4.6773
X5.4381Y-4.136
X5.4677Y-4.2049
X5.507Y-4.9135
X5.5267Y-4.8446
X5.7433Y-4.1754
X5.763Y-4.1065
X5.8023Y-4.8151
X5.8319Y-4.884
X5.9401Y-4.3427
X5.9696Y-4.6183
X6.009Y-4.3131
X6.0385Y-4.638
T2
X4.975Y-4.28
X5.015Y-4.85
X5.315Y-3.9
X5.435Y-5.16
X5.46Y-3.21
X5.855Y-3.86
X5.945Y-5.12
X6.1Y-3.21
X6.245Y-4.19
X6.285Y-4.72
X6.97Y-1.87
X7.21Y-2.0061
X7.58Y-1.765
X7.855Y-2.01
T3
X6.21Y-1.63
X6.31Y-1.63
X6.41Y-1.63
X6.51Y-1.63
X6.61Y-1.63
X6.71Y-1.63
X6.81Y-1.63
X6.91Y-1.63
X7.01Y-1.63
X7.11Y-1.63
T0
M30
