G04 #@! TF.GenerationSoftware,KiCad,Pcbnew,(5.1.2-1)-1*
G04 #@! TF.CreationDate,2022-01-31T21:06:54-05:00*
G04 #@! TF.ProjectId,Capacitive_Touch_Breakout_Board_AT42QT1245-AU,43617061-6369-4746-9976-655f546f7563,rev?*
G04 #@! TF.SameCoordinates,Original*
G04 #@! TF.FileFunction,Soldermask,Top*
G04 #@! TF.FilePolarity,Negative*
%FSLAX46Y46*%
G04 Gerber Fmt 4.6, Leading zero omitted, Abs format (unit mm)*
G04 Created by KiCad (PCBNEW (5.1.2-1)-1) date 2022-01-31 21:06:54*
%MOMM*%
%LPD*%
G04 APERTURE LIST*
%ADD10C,0.100000*%
G04 APERTURE END LIST*
D10*
G36*
X143979091Y-131304085D02*
G01*
X144013069Y-131314393D01*
X144044390Y-131331134D01*
X144071839Y-131353661D01*
X144094366Y-131381110D01*
X144111107Y-131412431D01*
X144121415Y-131446409D01*
X144125500Y-131487890D01*
X144125500Y-132164110D01*
X144121415Y-132205591D01*
X144111107Y-132239569D01*
X144094366Y-132270890D01*
X144071839Y-132298339D01*
X144044390Y-132320866D01*
X144013069Y-132337607D01*
X143979091Y-132347915D01*
X143937610Y-132352000D01*
X143336390Y-132352000D01*
X143294909Y-132347915D01*
X143260931Y-132337607D01*
X143229610Y-132320866D01*
X143202161Y-132298339D01*
X143179634Y-132270890D01*
X143162893Y-132239569D01*
X143152585Y-132205591D01*
X143148500Y-132164110D01*
X143148500Y-131487890D01*
X143152585Y-131446409D01*
X143162893Y-131412431D01*
X143179634Y-131381110D01*
X143202161Y-131353661D01*
X143229610Y-131331134D01*
X143260931Y-131314393D01*
X143294909Y-131304085D01*
X143336390Y-131300000D01*
X143937610Y-131300000D01*
X143979091Y-131304085D01*
X143979091Y-131304085D01*
G37*
G36*
X142404091Y-131304085D02*
G01*
X142438069Y-131314393D01*
X142469390Y-131331134D01*
X142496839Y-131353661D01*
X142519366Y-131381110D01*
X142536107Y-131412431D01*
X142546415Y-131446409D01*
X142550500Y-131487890D01*
X142550500Y-132164110D01*
X142546415Y-132205591D01*
X142536107Y-132239569D01*
X142519366Y-132270890D01*
X142496839Y-132298339D01*
X142469390Y-132320866D01*
X142438069Y-132337607D01*
X142404091Y-132347915D01*
X142362610Y-132352000D01*
X141761390Y-132352000D01*
X141719909Y-132347915D01*
X141685931Y-132337607D01*
X141654610Y-132320866D01*
X141627161Y-132298339D01*
X141604634Y-132270890D01*
X141587893Y-132239569D01*
X141577585Y-132205591D01*
X141573500Y-132164110D01*
X141573500Y-131487890D01*
X141577585Y-131446409D01*
X141587893Y-131412431D01*
X141604634Y-131381110D01*
X141627161Y-131353661D01*
X141654610Y-131331134D01*
X141685931Y-131314393D01*
X141719909Y-131304085D01*
X141761390Y-131300000D01*
X142362610Y-131300000D01*
X142404091Y-131304085D01*
X142404091Y-131304085D01*
G37*
G36*
X131506858Y-126743008D02*
G01*
X131540836Y-126753316D01*
X131572157Y-126770057D01*
X131604371Y-126796495D01*
X131644222Y-126836346D01*
X131644228Y-126836351D01*
X131989649Y-127181772D01*
X131989654Y-127181778D01*
X132029505Y-127221629D01*
X132055943Y-127253843D01*
X132072684Y-127285164D01*
X132082992Y-127319142D01*
X132086472Y-127354483D01*
X132082992Y-127389824D01*
X132072684Y-127423802D01*
X132055943Y-127455123D01*
X132029505Y-127487337D01*
X131989654Y-127527188D01*
X131989649Y-127527194D01*
X131591194Y-127925649D01*
X131591188Y-127925654D01*
X131551337Y-127965505D01*
X131519123Y-127991943D01*
X131487802Y-128008684D01*
X131453824Y-128018992D01*
X131418483Y-128022472D01*
X131383142Y-128018992D01*
X131349164Y-128008684D01*
X131317843Y-127991943D01*
X131285629Y-127965505D01*
X131245778Y-127925654D01*
X131245772Y-127925649D01*
X130900351Y-127580228D01*
X130900346Y-127580222D01*
X130860495Y-127540371D01*
X130834057Y-127508157D01*
X130817316Y-127476836D01*
X130807008Y-127442858D01*
X130803528Y-127407517D01*
X130807008Y-127372176D01*
X130817316Y-127338198D01*
X130834057Y-127306877D01*
X130860495Y-127274663D01*
X130900346Y-127234812D01*
X130900351Y-127234806D01*
X131298806Y-126836351D01*
X131298812Y-126836346D01*
X131338663Y-126796495D01*
X131370877Y-126770057D01*
X131402198Y-126753316D01*
X131436176Y-126743008D01*
X131471517Y-126739528D01*
X131506858Y-126743008D01*
X131506858Y-126743008D01*
G37*
G36*
X154851130Y-126713702D02*
G01*
X154885108Y-126724010D01*
X154916429Y-126740751D01*
X154948643Y-126767189D01*
X154988494Y-126807040D01*
X154988500Y-126807045D01*
X155386955Y-127205500D01*
X155386960Y-127205506D01*
X155426811Y-127245357D01*
X155453249Y-127277571D01*
X155469990Y-127308892D01*
X155480298Y-127342870D01*
X155483778Y-127378211D01*
X155480298Y-127413552D01*
X155469990Y-127447530D01*
X155453249Y-127478851D01*
X155426811Y-127511065D01*
X155386960Y-127550916D01*
X155386955Y-127550922D01*
X155041534Y-127896343D01*
X155041528Y-127896348D01*
X155001677Y-127936199D01*
X154969463Y-127962637D01*
X154938142Y-127979378D01*
X154904164Y-127989686D01*
X154868823Y-127993166D01*
X154833482Y-127989686D01*
X154799504Y-127979378D01*
X154768183Y-127962637D01*
X154735969Y-127936199D01*
X154696118Y-127896348D01*
X154696112Y-127896343D01*
X154297657Y-127497888D01*
X154297652Y-127497882D01*
X154257801Y-127458031D01*
X154231363Y-127425817D01*
X154214622Y-127394496D01*
X154204314Y-127360518D01*
X154200834Y-127325177D01*
X154204314Y-127289836D01*
X154214622Y-127255858D01*
X154231363Y-127224537D01*
X154257801Y-127192323D01*
X154297652Y-127152472D01*
X154297657Y-127152466D01*
X154643078Y-126807045D01*
X154643084Y-126807040D01*
X154682935Y-126767189D01*
X154715149Y-126740751D01*
X154746470Y-126724010D01*
X154780448Y-126713702D01*
X154815789Y-126710222D01*
X154851130Y-126713702D01*
X154851130Y-126713702D01*
G37*
G36*
X130393164Y-125629314D02*
G01*
X130427142Y-125639622D01*
X130458463Y-125656363D01*
X130490677Y-125682801D01*
X130530528Y-125722652D01*
X130530534Y-125722657D01*
X130875955Y-126068078D01*
X130875960Y-126068084D01*
X130915811Y-126107935D01*
X130942249Y-126140149D01*
X130958990Y-126171470D01*
X130969298Y-126205448D01*
X130972778Y-126240789D01*
X130969298Y-126276130D01*
X130958990Y-126310108D01*
X130942249Y-126341429D01*
X130915811Y-126373643D01*
X130875960Y-126413494D01*
X130875955Y-126413500D01*
X130477500Y-126811955D01*
X130477494Y-126811960D01*
X130437643Y-126851811D01*
X130405429Y-126878249D01*
X130374108Y-126894990D01*
X130340130Y-126905298D01*
X130304789Y-126908778D01*
X130269448Y-126905298D01*
X130235470Y-126894990D01*
X130204149Y-126878249D01*
X130171935Y-126851811D01*
X130132084Y-126811960D01*
X130132078Y-126811955D01*
X129786657Y-126466534D01*
X129786652Y-126466528D01*
X129746801Y-126426677D01*
X129720363Y-126394463D01*
X129703622Y-126363142D01*
X129693314Y-126329164D01*
X129689834Y-126293823D01*
X129693314Y-126258482D01*
X129703622Y-126224504D01*
X129720363Y-126193183D01*
X129746801Y-126160969D01*
X129786652Y-126121118D01*
X129786657Y-126121112D01*
X130185112Y-125722657D01*
X130185118Y-125722652D01*
X130224969Y-125682801D01*
X130257183Y-125656363D01*
X130288504Y-125639622D01*
X130322482Y-125629314D01*
X130357823Y-125625834D01*
X130393164Y-125629314D01*
X130393164Y-125629314D01*
G37*
G36*
X155964824Y-125600008D02*
G01*
X155998802Y-125610316D01*
X156030123Y-125627057D01*
X156062337Y-125653495D01*
X156102188Y-125693346D01*
X156102194Y-125693351D01*
X156500649Y-126091806D01*
X156500654Y-126091812D01*
X156540505Y-126131663D01*
X156566943Y-126163877D01*
X156583684Y-126195198D01*
X156593992Y-126229176D01*
X156597472Y-126264517D01*
X156593992Y-126299858D01*
X156583684Y-126333836D01*
X156566943Y-126365157D01*
X156540505Y-126397371D01*
X156500654Y-126437222D01*
X156500649Y-126437228D01*
X156155228Y-126782649D01*
X156155222Y-126782654D01*
X156115371Y-126822505D01*
X156083157Y-126848943D01*
X156051836Y-126865684D01*
X156017858Y-126875992D01*
X155982517Y-126879472D01*
X155947176Y-126875992D01*
X155913198Y-126865684D01*
X155881877Y-126848943D01*
X155849663Y-126822505D01*
X155809812Y-126782654D01*
X155809806Y-126782649D01*
X155411351Y-126384194D01*
X155411346Y-126384188D01*
X155371495Y-126344337D01*
X155345057Y-126312123D01*
X155328316Y-126280802D01*
X155318008Y-126246824D01*
X155314528Y-126211483D01*
X155318008Y-126176142D01*
X155328316Y-126142164D01*
X155345057Y-126110843D01*
X155371495Y-126078629D01*
X155411346Y-126038778D01*
X155411351Y-126038772D01*
X155756772Y-125693351D01*
X155756778Y-125693346D01*
X155796629Y-125653495D01*
X155828843Y-125627057D01*
X155860164Y-125610316D01*
X155894142Y-125600008D01*
X155929483Y-125596528D01*
X155964824Y-125600008D01*
X155964824Y-125600008D01*
G37*
G36*
X126109591Y-114958585D02*
G01*
X126143569Y-114968893D01*
X126174890Y-114985634D01*
X126202339Y-115008161D01*
X126224866Y-115035610D01*
X126241607Y-115066931D01*
X126251915Y-115100909D01*
X126256000Y-115142390D01*
X126256000Y-115743610D01*
X126251915Y-115785091D01*
X126241607Y-115819069D01*
X126224866Y-115850390D01*
X126202339Y-115877839D01*
X126174890Y-115900366D01*
X126143569Y-115917107D01*
X126109591Y-115927415D01*
X126068110Y-115931500D01*
X125391890Y-115931500D01*
X125350409Y-115927415D01*
X125316431Y-115917107D01*
X125285110Y-115900366D01*
X125257661Y-115877839D01*
X125235134Y-115850390D01*
X125218393Y-115819069D01*
X125208085Y-115785091D01*
X125204000Y-115743610D01*
X125204000Y-115142390D01*
X125208085Y-115100909D01*
X125218393Y-115066931D01*
X125235134Y-115035610D01*
X125257661Y-115008161D01*
X125285110Y-114985634D01*
X125316431Y-114968893D01*
X125350409Y-114958585D01*
X125391890Y-114954500D01*
X126068110Y-114954500D01*
X126109591Y-114958585D01*
X126109591Y-114958585D01*
G37*
G36*
X160780591Y-114882585D02*
G01*
X160814569Y-114892893D01*
X160845890Y-114909634D01*
X160873339Y-114932161D01*
X160895866Y-114959610D01*
X160912607Y-114990931D01*
X160922915Y-115024909D01*
X160927000Y-115066390D01*
X160927000Y-115667610D01*
X160922915Y-115709091D01*
X160912607Y-115743069D01*
X160895866Y-115774390D01*
X160873339Y-115801839D01*
X160845890Y-115824366D01*
X160814569Y-115841107D01*
X160780591Y-115851415D01*
X160739110Y-115855500D01*
X160062890Y-115855500D01*
X160021409Y-115851415D01*
X159987431Y-115841107D01*
X159956110Y-115824366D01*
X159928661Y-115801839D01*
X159906134Y-115774390D01*
X159889393Y-115743069D01*
X159879085Y-115709091D01*
X159875000Y-115667610D01*
X159875000Y-115066390D01*
X159879085Y-115024909D01*
X159889393Y-114990931D01*
X159906134Y-114959610D01*
X159928661Y-114932161D01*
X159956110Y-114909634D01*
X159987431Y-114892893D01*
X160021409Y-114882585D01*
X160062890Y-114878500D01*
X160739110Y-114878500D01*
X160780591Y-114882585D01*
X160780591Y-114882585D01*
G37*
G36*
X126109591Y-113383585D02*
G01*
X126143569Y-113393893D01*
X126174890Y-113410634D01*
X126202339Y-113433161D01*
X126224866Y-113460610D01*
X126241607Y-113491931D01*
X126251915Y-113525909D01*
X126256000Y-113567390D01*
X126256000Y-114168610D01*
X126251915Y-114210091D01*
X126241607Y-114244069D01*
X126224866Y-114275390D01*
X126202339Y-114302839D01*
X126174890Y-114325366D01*
X126143569Y-114342107D01*
X126109591Y-114352415D01*
X126068110Y-114356500D01*
X125391890Y-114356500D01*
X125350409Y-114352415D01*
X125316431Y-114342107D01*
X125285110Y-114325366D01*
X125257661Y-114302839D01*
X125235134Y-114275390D01*
X125218393Y-114244069D01*
X125208085Y-114210091D01*
X125204000Y-114168610D01*
X125204000Y-113567390D01*
X125208085Y-113525909D01*
X125218393Y-113491931D01*
X125235134Y-113460610D01*
X125257661Y-113433161D01*
X125285110Y-113410634D01*
X125316431Y-113393893D01*
X125350409Y-113383585D01*
X125391890Y-113379500D01*
X126068110Y-113379500D01*
X126109591Y-113383585D01*
X126109591Y-113383585D01*
G37*
G36*
X160780591Y-113307585D02*
G01*
X160814569Y-113317893D01*
X160845890Y-113334634D01*
X160873339Y-113357161D01*
X160895866Y-113384610D01*
X160912607Y-113415931D01*
X160922915Y-113449909D01*
X160927000Y-113491390D01*
X160927000Y-114092610D01*
X160922915Y-114134091D01*
X160912607Y-114168069D01*
X160895866Y-114199390D01*
X160873339Y-114226839D01*
X160845890Y-114249366D01*
X160814569Y-114266107D01*
X160780591Y-114276415D01*
X160739110Y-114280500D01*
X160062890Y-114280500D01*
X160021409Y-114276415D01*
X159987431Y-114266107D01*
X159956110Y-114249366D01*
X159928661Y-114226839D01*
X159906134Y-114199390D01*
X159889393Y-114168069D01*
X159879085Y-114134091D01*
X159875000Y-114092610D01*
X159875000Y-113491390D01*
X159879085Y-113449909D01*
X159889393Y-113415931D01*
X159906134Y-113384610D01*
X159928661Y-113357161D01*
X159956110Y-113334634D01*
X159987431Y-113317893D01*
X160021409Y-113307585D01*
X160062890Y-113303500D01*
X160739110Y-113303500D01*
X160780591Y-113307585D01*
X160780591Y-113307585D01*
G37*
G36*
X156144858Y-102232008D02*
G01*
X156178836Y-102242316D01*
X156210157Y-102259057D01*
X156242371Y-102285495D01*
X156282222Y-102325346D01*
X156282228Y-102325351D01*
X156627649Y-102670772D01*
X156627654Y-102670778D01*
X156667505Y-102710629D01*
X156693943Y-102742843D01*
X156710684Y-102774164D01*
X156720992Y-102808142D01*
X156724472Y-102843483D01*
X156720992Y-102878824D01*
X156710684Y-102912802D01*
X156693943Y-102944123D01*
X156667505Y-102976337D01*
X156627654Y-103016188D01*
X156627649Y-103016194D01*
X156229194Y-103414649D01*
X156229188Y-103414654D01*
X156189337Y-103454505D01*
X156157123Y-103480943D01*
X156125802Y-103497684D01*
X156091824Y-103507992D01*
X156056483Y-103511472D01*
X156021142Y-103507992D01*
X155987164Y-103497684D01*
X155955843Y-103480943D01*
X155923629Y-103454505D01*
X155883778Y-103414654D01*
X155883772Y-103414649D01*
X155538351Y-103069228D01*
X155538346Y-103069222D01*
X155498495Y-103029371D01*
X155472057Y-102997157D01*
X155455316Y-102965836D01*
X155445008Y-102931858D01*
X155441528Y-102896517D01*
X155445008Y-102861176D01*
X155455316Y-102827198D01*
X155472057Y-102795877D01*
X155498495Y-102763663D01*
X155538346Y-102723812D01*
X155538351Y-102723806D01*
X155936806Y-102325351D01*
X155936812Y-102325346D01*
X155976663Y-102285495D01*
X156008877Y-102259057D01*
X156040198Y-102242316D01*
X156074176Y-102232008D01*
X156109517Y-102228528D01*
X156144858Y-102232008D01*
X156144858Y-102232008D01*
G37*
G36*
X130340130Y-102202702D02*
G01*
X130374108Y-102213010D01*
X130405429Y-102229751D01*
X130437643Y-102256189D01*
X130477494Y-102296040D01*
X130477500Y-102296045D01*
X130875955Y-102694500D01*
X130875960Y-102694506D01*
X130915811Y-102734357D01*
X130942249Y-102766571D01*
X130958990Y-102797892D01*
X130969298Y-102831870D01*
X130972778Y-102867211D01*
X130969298Y-102902552D01*
X130958990Y-102936530D01*
X130942249Y-102967851D01*
X130915811Y-103000065D01*
X130875960Y-103039916D01*
X130875955Y-103039922D01*
X130530534Y-103385343D01*
X130530528Y-103385348D01*
X130490677Y-103425199D01*
X130458463Y-103451637D01*
X130427142Y-103468378D01*
X130393164Y-103478686D01*
X130357823Y-103482166D01*
X130322482Y-103478686D01*
X130288504Y-103468378D01*
X130257183Y-103451637D01*
X130224969Y-103425199D01*
X130185118Y-103385348D01*
X130185112Y-103385343D01*
X129786657Y-102986888D01*
X129786652Y-102986882D01*
X129746801Y-102947031D01*
X129720363Y-102914817D01*
X129703622Y-102883496D01*
X129693314Y-102849518D01*
X129689834Y-102814177D01*
X129693314Y-102778836D01*
X129703622Y-102744858D01*
X129720363Y-102713537D01*
X129746801Y-102681323D01*
X129786652Y-102641472D01*
X129786657Y-102641466D01*
X130132078Y-102296045D01*
X130132084Y-102296040D01*
X130171935Y-102256189D01*
X130204149Y-102229751D01*
X130235470Y-102213010D01*
X130269448Y-102202702D01*
X130304789Y-102199222D01*
X130340130Y-102202702D01*
X130340130Y-102202702D01*
G37*
G36*
X155031164Y-101118314D02*
G01*
X155065142Y-101128622D01*
X155096463Y-101145363D01*
X155128677Y-101171801D01*
X155168528Y-101211652D01*
X155168534Y-101211657D01*
X155513955Y-101557078D01*
X155513960Y-101557084D01*
X155553811Y-101596935D01*
X155580249Y-101629149D01*
X155596990Y-101660470D01*
X155607298Y-101694448D01*
X155610778Y-101729789D01*
X155607298Y-101765130D01*
X155596990Y-101799108D01*
X155580249Y-101830429D01*
X155553811Y-101862643D01*
X155513960Y-101902494D01*
X155513955Y-101902500D01*
X155115500Y-102300955D01*
X155115494Y-102300960D01*
X155075643Y-102340811D01*
X155043429Y-102367249D01*
X155012108Y-102383990D01*
X154978130Y-102394298D01*
X154942789Y-102397778D01*
X154907448Y-102394298D01*
X154873470Y-102383990D01*
X154842149Y-102367249D01*
X154809935Y-102340811D01*
X154770084Y-102300960D01*
X154770078Y-102300955D01*
X154424657Y-101955534D01*
X154424652Y-101955528D01*
X154384801Y-101915677D01*
X154358363Y-101883463D01*
X154341622Y-101852142D01*
X154331314Y-101818164D01*
X154327834Y-101782823D01*
X154331314Y-101747482D01*
X154341622Y-101713504D01*
X154358363Y-101682183D01*
X154384801Y-101649969D01*
X154424652Y-101610118D01*
X154424657Y-101610112D01*
X154823112Y-101211657D01*
X154823118Y-101211652D01*
X154862969Y-101171801D01*
X154895183Y-101145363D01*
X154926504Y-101128622D01*
X154960482Y-101118314D01*
X154995823Y-101114834D01*
X155031164Y-101118314D01*
X155031164Y-101118314D01*
G37*
G36*
X131453824Y-101089008D02*
G01*
X131487802Y-101099316D01*
X131519123Y-101116057D01*
X131551337Y-101142495D01*
X131591188Y-101182346D01*
X131591194Y-101182351D01*
X131989649Y-101580806D01*
X131989654Y-101580812D01*
X132029505Y-101620663D01*
X132055943Y-101652877D01*
X132072684Y-101684198D01*
X132082992Y-101718176D01*
X132086472Y-101753517D01*
X132082992Y-101788858D01*
X132072684Y-101822836D01*
X132055943Y-101854157D01*
X132029505Y-101886371D01*
X131989654Y-101926222D01*
X131989649Y-101926228D01*
X131644228Y-102271649D01*
X131644222Y-102271654D01*
X131604371Y-102311505D01*
X131572157Y-102337943D01*
X131540836Y-102354684D01*
X131506858Y-102364992D01*
X131471517Y-102368472D01*
X131436176Y-102364992D01*
X131402198Y-102354684D01*
X131370877Y-102337943D01*
X131338663Y-102311505D01*
X131298812Y-102271654D01*
X131298806Y-102271649D01*
X130900351Y-101873194D01*
X130900346Y-101873188D01*
X130860495Y-101833337D01*
X130834057Y-101801123D01*
X130817316Y-101769802D01*
X130807008Y-101735824D01*
X130803528Y-101700483D01*
X130807008Y-101665142D01*
X130817316Y-101631164D01*
X130834057Y-101599843D01*
X130860495Y-101567629D01*
X130900346Y-101527778D01*
X130900351Y-101527772D01*
X131245772Y-101182351D01*
X131245778Y-101182346D01*
X131285629Y-101142495D01*
X131317843Y-101116057D01*
X131349164Y-101099316D01*
X131383142Y-101089008D01*
X131418483Y-101085528D01*
X131453824Y-101089008D01*
X131453824Y-101089008D01*
G37*
G36*
X142709091Y-96760085D02*
G01*
X142743069Y-96770393D01*
X142774390Y-96787134D01*
X142801839Y-96809661D01*
X142824366Y-96837110D01*
X142841107Y-96868431D01*
X142851415Y-96902409D01*
X142855500Y-96943890D01*
X142855500Y-97620110D01*
X142851415Y-97661591D01*
X142841107Y-97695569D01*
X142824366Y-97726890D01*
X142801839Y-97754339D01*
X142774390Y-97776866D01*
X142743069Y-97793607D01*
X142709091Y-97803915D01*
X142667610Y-97808000D01*
X142066390Y-97808000D01*
X142024909Y-97803915D01*
X141990931Y-97793607D01*
X141959610Y-97776866D01*
X141932161Y-97754339D01*
X141909634Y-97726890D01*
X141892893Y-97695569D01*
X141882585Y-97661591D01*
X141878500Y-97620110D01*
X141878500Y-96943890D01*
X141882585Y-96902409D01*
X141892893Y-96868431D01*
X141909634Y-96837110D01*
X141932161Y-96809661D01*
X141959610Y-96787134D01*
X141990931Y-96770393D01*
X142024909Y-96760085D01*
X142066390Y-96756000D01*
X142667610Y-96756000D01*
X142709091Y-96760085D01*
X142709091Y-96760085D01*
G37*
G36*
X144284091Y-96760085D02*
G01*
X144318069Y-96770393D01*
X144349390Y-96787134D01*
X144376839Y-96809661D01*
X144399366Y-96837110D01*
X144416107Y-96868431D01*
X144426415Y-96902409D01*
X144430500Y-96943890D01*
X144430500Y-97620110D01*
X144426415Y-97661591D01*
X144416107Y-97695569D01*
X144399366Y-97726890D01*
X144376839Y-97754339D01*
X144349390Y-97776866D01*
X144318069Y-97793607D01*
X144284091Y-97803915D01*
X144242610Y-97808000D01*
X143641390Y-97808000D01*
X143599909Y-97803915D01*
X143565931Y-97793607D01*
X143534610Y-97776866D01*
X143507161Y-97754339D01*
X143484634Y-97726890D01*
X143467893Y-97695569D01*
X143457585Y-97661591D01*
X143453500Y-97620110D01*
X143453500Y-96943890D01*
X143457585Y-96902409D01*
X143467893Y-96868431D01*
X143484634Y-96837110D01*
X143507161Y-96809661D01*
X143534610Y-96787134D01*
X143565931Y-96770393D01*
X143599909Y-96760085D01*
X143641390Y-96756000D01*
X144242610Y-96756000D01*
X144284091Y-96760085D01*
X144284091Y-96760085D01*
G37*
G36*
X189003938Y-59854716D02*
G01*
X189024557Y-59860971D01*
X189043553Y-59871124D01*
X189060208Y-59884792D01*
X189073876Y-59901447D01*
X189084029Y-59920443D01*
X189090284Y-59941062D01*
X189093000Y-59968640D01*
X189093000Y-60427360D01*
X189090284Y-60454938D01*
X189084029Y-60475557D01*
X189073876Y-60494553D01*
X189060208Y-60511208D01*
X189043553Y-60524876D01*
X189024557Y-60535029D01*
X189003938Y-60541284D01*
X188976360Y-60544000D01*
X188467640Y-60544000D01*
X188440062Y-60541284D01*
X188419443Y-60535029D01*
X188400447Y-60524876D01*
X188383792Y-60511208D01*
X188370124Y-60494553D01*
X188359971Y-60475557D01*
X188353716Y-60454938D01*
X188351000Y-60427360D01*
X188351000Y-59968640D01*
X188353716Y-59941062D01*
X188359971Y-59920443D01*
X188370124Y-59901447D01*
X188383792Y-59884792D01*
X188400447Y-59871124D01*
X188419443Y-59860971D01*
X188440062Y-59854716D01*
X188467640Y-59852000D01*
X188976360Y-59852000D01*
X189003938Y-59854716D01*
X189003938Y-59854716D01*
G37*
G36*
X190400938Y-59854716D02*
G01*
X190421557Y-59860971D01*
X190440553Y-59871124D01*
X190457208Y-59884792D01*
X190470876Y-59901447D01*
X190481029Y-59920443D01*
X190487284Y-59941062D01*
X190490000Y-59968640D01*
X190490000Y-60427360D01*
X190487284Y-60454938D01*
X190481029Y-60475557D01*
X190470876Y-60494553D01*
X190457208Y-60511208D01*
X190440553Y-60524876D01*
X190421557Y-60535029D01*
X190400938Y-60541284D01*
X190373360Y-60544000D01*
X189864640Y-60544000D01*
X189837062Y-60541284D01*
X189816443Y-60535029D01*
X189797447Y-60524876D01*
X189780792Y-60511208D01*
X189767124Y-60494553D01*
X189756971Y-60475557D01*
X189750716Y-60454938D01*
X189748000Y-60427360D01*
X189748000Y-59968640D01*
X189750716Y-59941062D01*
X189756971Y-59920443D01*
X189767124Y-59901447D01*
X189780792Y-59884792D01*
X189797447Y-59871124D01*
X189816443Y-59860971D01*
X189837062Y-59854716D01*
X189864640Y-59852000D01*
X190373360Y-59852000D01*
X190400938Y-59854716D01*
X190400938Y-59854716D01*
G37*
G36*
X189003938Y-58884716D02*
G01*
X189024557Y-58890971D01*
X189043553Y-58901124D01*
X189060208Y-58914792D01*
X189073876Y-58931447D01*
X189084029Y-58950443D01*
X189090284Y-58971062D01*
X189093000Y-58998640D01*
X189093000Y-59457360D01*
X189090284Y-59484938D01*
X189084029Y-59505557D01*
X189073876Y-59524553D01*
X189060208Y-59541208D01*
X189043553Y-59554876D01*
X189024557Y-59565029D01*
X189003938Y-59571284D01*
X188976360Y-59574000D01*
X188467640Y-59574000D01*
X188440062Y-59571284D01*
X188419443Y-59565029D01*
X188400447Y-59554876D01*
X188383792Y-59541208D01*
X188370124Y-59524553D01*
X188359971Y-59505557D01*
X188353716Y-59484938D01*
X188351000Y-59457360D01*
X188351000Y-58998640D01*
X188353716Y-58971062D01*
X188359971Y-58950443D01*
X188370124Y-58931447D01*
X188383792Y-58914792D01*
X188400447Y-58901124D01*
X188419443Y-58890971D01*
X188440062Y-58884716D01*
X188467640Y-58882000D01*
X188976360Y-58882000D01*
X189003938Y-58884716D01*
X189003938Y-58884716D01*
G37*
G36*
X190400938Y-58884716D02*
G01*
X190421557Y-58890971D01*
X190440553Y-58901124D01*
X190457208Y-58914792D01*
X190470876Y-58931447D01*
X190481029Y-58950443D01*
X190487284Y-58971062D01*
X190490000Y-58998640D01*
X190490000Y-59457360D01*
X190487284Y-59484938D01*
X190481029Y-59505557D01*
X190470876Y-59524553D01*
X190457208Y-59541208D01*
X190440553Y-59554876D01*
X190421557Y-59565029D01*
X190400938Y-59571284D01*
X190373360Y-59574000D01*
X189864640Y-59574000D01*
X189837062Y-59571284D01*
X189816443Y-59565029D01*
X189797447Y-59554876D01*
X189780792Y-59541208D01*
X189767124Y-59524553D01*
X189756971Y-59505557D01*
X189750716Y-59484938D01*
X189748000Y-59457360D01*
X189748000Y-58998640D01*
X189750716Y-58971062D01*
X189756971Y-58950443D01*
X189767124Y-58931447D01*
X189780792Y-58914792D01*
X189797447Y-58901124D01*
X189816443Y-58890971D01*
X189837062Y-58884716D01*
X189864640Y-58882000D01*
X190373360Y-58882000D01*
X190400938Y-58884716D01*
X190400938Y-58884716D01*
G37*
G36*
X183796938Y-57903716D02*
G01*
X183817557Y-57909971D01*
X183836553Y-57920124D01*
X183853208Y-57933792D01*
X183866876Y-57950447D01*
X183877029Y-57969443D01*
X183883284Y-57990062D01*
X183886000Y-58017640D01*
X183886000Y-58476360D01*
X183883284Y-58503938D01*
X183877029Y-58524557D01*
X183866876Y-58543553D01*
X183853208Y-58560208D01*
X183836553Y-58573876D01*
X183817557Y-58584029D01*
X183796938Y-58590284D01*
X183769360Y-58593000D01*
X183260640Y-58593000D01*
X183233062Y-58590284D01*
X183212443Y-58584029D01*
X183193447Y-58573876D01*
X183176792Y-58560208D01*
X183163124Y-58543553D01*
X183152971Y-58524557D01*
X183146716Y-58503938D01*
X183144000Y-58476360D01*
X183144000Y-58017640D01*
X183146716Y-57990062D01*
X183152971Y-57969443D01*
X183163124Y-57950447D01*
X183176792Y-57933792D01*
X183193447Y-57920124D01*
X183212443Y-57909971D01*
X183233062Y-57903716D01*
X183260640Y-57901000D01*
X183769360Y-57901000D01*
X183796938Y-57903716D01*
X183796938Y-57903716D01*
G37*
G36*
X185955938Y-57822716D02*
G01*
X185976557Y-57828971D01*
X185995553Y-57839124D01*
X186012208Y-57852792D01*
X186025876Y-57869447D01*
X186036029Y-57888443D01*
X186042284Y-57909062D01*
X186045000Y-57936640D01*
X186045000Y-58395360D01*
X186042284Y-58422938D01*
X186036029Y-58443557D01*
X186025876Y-58462553D01*
X186012208Y-58479208D01*
X185995553Y-58492876D01*
X185976557Y-58503029D01*
X185955938Y-58509284D01*
X185928360Y-58512000D01*
X185419640Y-58512000D01*
X185392062Y-58509284D01*
X185371443Y-58503029D01*
X185352447Y-58492876D01*
X185335792Y-58479208D01*
X185322124Y-58462553D01*
X185311971Y-58443557D01*
X185305716Y-58422938D01*
X185303000Y-58395360D01*
X185303000Y-57936640D01*
X185305716Y-57909062D01*
X185311971Y-57888443D01*
X185322124Y-57869447D01*
X185335792Y-57852792D01*
X185352447Y-57839124D01*
X185371443Y-57828971D01*
X185392062Y-57822716D01*
X185419640Y-57820000D01*
X185928360Y-57820000D01*
X185955938Y-57822716D01*
X185955938Y-57822716D01*
G37*
G36*
X187098938Y-57776716D02*
G01*
X187119557Y-57782971D01*
X187138553Y-57793124D01*
X187155208Y-57806792D01*
X187168876Y-57823447D01*
X187179029Y-57842443D01*
X187185284Y-57863062D01*
X187188000Y-57890640D01*
X187188000Y-58349360D01*
X187185284Y-58376938D01*
X187179029Y-58397557D01*
X187168876Y-58416553D01*
X187155208Y-58433208D01*
X187138553Y-58446876D01*
X187119557Y-58457029D01*
X187098938Y-58463284D01*
X187071360Y-58466000D01*
X186562640Y-58466000D01*
X186535062Y-58463284D01*
X186514443Y-58457029D01*
X186495447Y-58446876D01*
X186478792Y-58433208D01*
X186465124Y-58416553D01*
X186454971Y-58397557D01*
X186448716Y-58376938D01*
X186446000Y-58349360D01*
X186446000Y-57890640D01*
X186448716Y-57863062D01*
X186454971Y-57842443D01*
X186465124Y-57823447D01*
X186478792Y-57806792D01*
X186495447Y-57793124D01*
X186514443Y-57782971D01*
X186535062Y-57776716D01*
X186562640Y-57774000D01*
X187071360Y-57774000D01*
X187098938Y-57776716D01*
X187098938Y-57776716D01*
G37*
G36*
X188241938Y-57695716D02*
G01*
X188262557Y-57701971D01*
X188281553Y-57712124D01*
X188298208Y-57725792D01*
X188311876Y-57742447D01*
X188322029Y-57761443D01*
X188328284Y-57782062D01*
X188331000Y-57809640D01*
X188331000Y-58268360D01*
X188328284Y-58295938D01*
X188322029Y-58316557D01*
X188311876Y-58335553D01*
X188298208Y-58352208D01*
X188281553Y-58365876D01*
X188262557Y-58376029D01*
X188241938Y-58382284D01*
X188214360Y-58385000D01*
X187705640Y-58385000D01*
X187678062Y-58382284D01*
X187657443Y-58376029D01*
X187638447Y-58365876D01*
X187621792Y-58352208D01*
X187608124Y-58335553D01*
X187597971Y-58316557D01*
X187591716Y-58295938D01*
X187589000Y-58268360D01*
X187589000Y-57809640D01*
X187591716Y-57782062D01*
X187597971Y-57761443D01*
X187608124Y-57742447D01*
X187621792Y-57725792D01*
X187638447Y-57712124D01*
X187657443Y-57701971D01*
X187678062Y-57695716D01*
X187705640Y-57693000D01*
X188214360Y-57693000D01*
X188241938Y-57695716D01*
X188241938Y-57695716D01*
G37*
G36*
X191416938Y-57649716D02*
G01*
X191437557Y-57655971D01*
X191456553Y-57666124D01*
X191473208Y-57679792D01*
X191486876Y-57696447D01*
X191497029Y-57715443D01*
X191503284Y-57736062D01*
X191506000Y-57763640D01*
X191506000Y-58222360D01*
X191503284Y-58249938D01*
X191497029Y-58270557D01*
X191486876Y-58289553D01*
X191473208Y-58306208D01*
X191456553Y-58319876D01*
X191437557Y-58330029D01*
X191416938Y-58336284D01*
X191389360Y-58339000D01*
X190880640Y-58339000D01*
X190853062Y-58336284D01*
X190832443Y-58330029D01*
X190813447Y-58319876D01*
X190796792Y-58306208D01*
X190783124Y-58289553D01*
X190772971Y-58270557D01*
X190766716Y-58249938D01*
X190764000Y-58222360D01*
X190764000Y-57763640D01*
X190766716Y-57736062D01*
X190772971Y-57715443D01*
X190783124Y-57696447D01*
X190796792Y-57679792D01*
X190813447Y-57666124D01*
X190832443Y-57655971D01*
X190853062Y-57649716D01*
X190880640Y-57647000D01*
X191389360Y-57647000D01*
X191416938Y-57649716D01*
X191416938Y-57649716D01*
G37*
G36*
X195607938Y-57649716D02*
G01*
X195628557Y-57655971D01*
X195647553Y-57666124D01*
X195664208Y-57679792D01*
X195677876Y-57696447D01*
X195688029Y-57715443D01*
X195694284Y-57736062D01*
X195697000Y-57763640D01*
X195697000Y-58222360D01*
X195694284Y-58249938D01*
X195688029Y-58270557D01*
X195677876Y-58289553D01*
X195664208Y-58306208D01*
X195647553Y-58319876D01*
X195628557Y-58330029D01*
X195607938Y-58336284D01*
X195580360Y-58339000D01*
X195071640Y-58339000D01*
X195044062Y-58336284D01*
X195023443Y-58330029D01*
X195004447Y-58319876D01*
X194987792Y-58306208D01*
X194974124Y-58289553D01*
X194963971Y-58270557D01*
X194957716Y-58249938D01*
X194955000Y-58222360D01*
X194955000Y-57763640D01*
X194957716Y-57736062D01*
X194963971Y-57715443D01*
X194974124Y-57696447D01*
X194987792Y-57679792D01*
X195004447Y-57666124D01*
X195023443Y-57655971D01*
X195044062Y-57649716D01*
X195071640Y-57647000D01*
X195580360Y-57647000D01*
X195607938Y-57649716D01*
X195607938Y-57649716D01*
G37*
G36*
X194464938Y-57649716D02*
G01*
X194485557Y-57655971D01*
X194504553Y-57666124D01*
X194521208Y-57679792D01*
X194534876Y-57696447D01*
X194545029Y-57715443D01*
X194551284Y-57736062D01*
X194554000Y-57763640D01*
X194554000Y-58222360D01*
X194551284Y-58249938D01*
X194545029Y-58270557D01*
X194534876Y-58289553D01*
X194521208Y-58306208D01*
X194504553Y-58319876D01*
X194485557Y-58330029D01*
X194464938Y-58336284D01*
X194437360Y-58339000D01*
X193928640Y-58339000D01*
X193901062Y-58336284D01*
X193880443Y-58330029D01*
X193861447Y-58319876D01*
X193844792Y-58306208D01*
X193831124Y-58289553D01*
X193820971Y-58270557D01*
X193814716Y-58249938D01*
X193812000Y-58222360D01*
X193812000Y-57763640D01*
X193814716Y-57736062D01*
X193820971Y-57715443D01*
X193831124Y-57696447D01*
X193844792Y-57679792D01*
X193861447Y-57666124D01*
X193880443Y-57655971D01*
X193901062Y-57649716D01*
X193928640Y-57647000D01*
X194437360Y-57647000D01*
X194464938Y-57649716D01*
X194464938Y-57649716D01*
G37*
G36*
X193321938Y-57649716D02*
G01*
X193342557Y-57655971D01*
X193361553Y-57666124D01*
X193378208Y-57679792D01*
X193391876Y-57696447D01*
X193402029Y-57715443D01*
X193408284Y-57736062D01*
X193411000Y-57763640D01*
X193411000Y-58222360D01*
X193408284Y-58249938D01*
X193402029Y-58270557D01*
X193391876Y-58289553D01*
X193378208Y-58306208D01*
X193361553Y-58319876D01*
X193342557Y-58330029D01*
X193321938Y-58336284D01*
X193294360Y-58339000D01*
X192785640Y-58339000D01*
X192758062Y-58336284D01*
X192737443Y-58330029D01*
X192718447Y-58319876D01*
X192701792Y-58306208D01*
X192688124Y-58289553D01*
X192677971Y-58270557D01*
X192671716Y-58249938D01*
X192669000Y-58222360D01*
X192669000Y-57763640D01*
X192671716Y-57736062D01*
X192677971Y-57715443D01*
X192688124Y-57696447D01*
X192701792Y-57679792D01*
X192718447Y-57666124D01*
X192737443Y-57655971D01*
X192758062Y-57649716D01*
X192785640Y-57647000D01*
X193294360Y-57647000D01*
X193321938Y-57649716D01*
X193321938Y-57649716D01*
G37*
G36*
X183796938Y-56933716D02*
G01*
X183817557Y-56939971D01*
X183836553Y-56950124D01*
X183853208Y-56963792D01*
X183866876Y-56980447D01*
X183877029Y-56999443D01*
X183883284Y-57020062D01*
X183886000Y-57047640D01*
X183886000Y-57506360D01*
X183883284Y-57533938D01*
X183877029Y-57554557D01*
X183866876Y-57573553D01*
X183853208Y-57590208D01*
X183836553Y-57603876D01*
X183817557Y-57614029D01*
X183796938Y-57620284D01*
X183769360Y-57623000D01*
X183260640Y-57623000D01*
X183233062Y-57620284D01*
X183212443Y-57614029D01*
X183193447Y-57603876D01*
X183176792Y-57590208D01*
X183163124Y-57573553D01*
X183152971Y-57554557D01*
X183146716Y-57533938D01*
X183144000Y-57506360D01*
X183144000Y-57047640D01*
X183146716Y-57020062D01*
X183152971Y-56999443D01*
X183163124Y-56980447D01*
X183176792Y-56963792D01*
X183193447Y-56950124D01*
X183212443Y-56939971D01*
X183233062Y-56933716D01*
X183260640Y-56931000D01*
X183769360Y-56931000D01*
X183796938Y-56933716D01*
X183796938Y-56933716D01*
G37*
G36*
X185955938Y-56852716D02*
G01*
X185976557Y-56858971D01*
X185995553Y-56869124D01*
X186012208Y-56882792D01*
X186025876Y-56899447D01*
X186036029Y-56918443D01*
X186042284Y-56939062D01*
X186045000Y-56966640D01*
X186045000Y-57425360D01*
X186042284Y-57452938D01*
X186036029Y-57473557D01*
X186025876Y-57492553D01*
X186012208Y-57509208D01*
X185995553Y-57522876D01*
X185976557Y-57533029D01*
X185955938Y-57539284D01*
X185928360Y-57542000D01*
X185419640Y-57542000D01*
X185392062Y-57539284D01*
X185371443Y-57533029D01*
X185352447Y-57522876D01*
X185335792Y-57509208D01*
X185322124Y-57492553D01*
X185311971Y-57473557D01*
X185305716Y-57452938D01*
X185303000Y-57425360D01*
X185303000Y-56966640D01*
X185305716Y-56939062D01*
X185311971Y-56918443D01*
X185322124Y-56899447D01*
X185335792Y-56882792D01*
X185352447Y-56869124D01*
X185371443Y-56858971D01*
X185392062Y-56852716D01*
X185419640Y-56850000D01*
X185928360Y-56850000D01*
X185955938Y-56852716D01*
X185955938Y-56852716D01*
G37*
G36*
X187098938Y-56806716D02*
G01*
X187119557Y-56812971D01*
X187138553Y-56823124D01*
X187155208Y-56836792D01*
X187168876Y-56853447D01*
X187179029Y-56872443D01*
X187185284Y-56893062D01*
X187188000Y-56920640D01*
X187188000Y-57379360D01*
X187185284Y-57406938D01*
X187179029Y-57427557D01*
X187168876Y-57446553D01*
X187155208Y-57463208D01*
X187138553Y-57476876D01*
X187119557Y-57487029D01*
X187098938Y-57493284D01*
X187071360Y-57496000D01*
X186562640Y-57496000D01*
X186535062Y-57493284D01*
X186514443Y-57487029D01*
X186495447Y-57476876D01*
X186478792Y-57463208D01*
X186465124Y-57446553D01*
X186454971Y-57427557D01*
X186448716Y-57406938D01*
X186446000Y-57379360D01*
X186446000Y-56920640D01*
X186448716Y-56893062D01*
X186454971Y-56872443D01*
X186465124Y-56853447D01*
X186478792Y-56836792D01*
X186495447Y-56823124D01*
X186514443Y-56812971D01*
X186535062Y-56806716D01*
X186562640Y-56804000D01*
X187071360Y-56804000D01*
X187098938Y-56806716D01*
X187098938Y-56806716D01*
G37*
G36*
X188241938Y-56725716D02*
G01*
X188262557Y-56731971D01*
X188281553Y-56742124D01*
X188298208Y-56755792D01*
X188311876Y-56772447D01*
X188322029Y-56791443D01*
X188328284Y-56812062D01*
X188331000Y-56839640D01*
X188331000Y-57298360D01*
X188328284Y-57325938D01*
X188322029Y-57346557D01*
X188311876Y-57365553D01*
X188298208Y-57382208D01*
X188281553Y-57395876D01*
X188262557Y-57406029D01*
X188241938Y-57412284D01*
X188214360Y-57415000D01*
X187705640Y-57415000D01*
X187678062Y-57412284D01*
X187657443Y-57406029D01*
X187638447Y-57395876D01*
X187621792Y-57382208D01*
X187608124Y-57365553D01*
X187597971Y-57346557D01*
X187591716Y-57325938D01*
X187589000Y-57298360D01*
X187589000Y-56839640D01*
X187591716Y-56812062D01*
X187597971Y-56791443D01*
X187608124Y-56772447D01*
X187621792Y-56755792D01*
X187638447Y-56742124D01*
X187657443Y-56731971D01*
X187678062Y-56725716D01*
X187705640Y-56723000D01*
X188214360Y-56723000D01*
X188241938Y-56725716D01*
X188241938Y-56725716D01*
G37*
G36*
X195607938Y-56679716D02*
G01*
X195628557Y-56685971D01*
X195647553Y-56696124D01*
X195664208Y-56709792D01*
X195677876Y-56726447D01*
X195688029Y-56745443D01*
X195694284Y-56766062D01*
X195697000Y-56793640D01*
X195697000Y-57252360D01*
X195694284Y-57279938D01*
X195688029Y-57300557D01*
X195677876Y-57319553D01*
X195664208Y-57336208D01*
X195647553Y-57349876D01*
X195628557Y-57360029D01*
X195607938Y-57366284D01*
X195580360Y-57369000D01*
X195071640Y-57369000D01*
X195044062Y-57366284D01*
X195023443Y-57360029D01*
X195004447Y-57349876D01*
X194987792Y-57336208D01*
X194974124Y-57319553D01*
X194963971Y-57300557D01*
X194957716Y-57279938D01*
X194955000Y-57252360D01*
X194955000Y-56793640D01*
X194957716Y-56766062D01*
X194963971Y-56745443D01*
X194974124Y-56726447D01*
X194987792Y-56709792D01*
X195004447Y-56696124D01*
X195023443Y-56685971D01*
X195044062Y-56679716D01*
X195071640Y-56677000D01*
X195580360Y-56677000D01*
X195607938Y-56679716D01*
X195607938Y-56679716D01*
G37*
G36*
X194464938Y-56679716D02*
G01*
X194485557Y-56685971D01*
X194504553Y-56696124D01*
X194521208Y-56709792D01*
X194534876Y-56726447D01*
X194545029Y-56745443D01*
X194551284Y-56766062D01*
X194554000Y-56793640D01*
X194554000Y-57252360D01*
X194551284Y-57279938D01*
X194545029Y-57300557D01*
X194534876Y-57319553D01*
X194521208Y-57336208D01*
X194504553Y-57349876D01*
X194485557Y-57360029D01*
X194464938Y-57366284D01*
X194437360Y-57369000D01*
X193928640Y-57369000D01*
X193901062Y-57366284D01*
X193880443Y-57360029D01*
X193861447Y-57349876D01*
X193844792Y-57336208D01*
X193831124Y-57319553D01*
X193820971Y-57300557D01*
X193814716Y-57279938D01*
X193812000Y-57252360D01*
X193812000Y-56793640D01*
X193814716Y-56766062D01*
X193820971Y-56745443D01*
X193831124Y-56726447D01*
X193844792Y-56709792D01*
X193861447Y-56696124D01*
X193880443Y-56685971D01*
X193901062Y-56679716D01*
X193928640Y-56677000D01*
X194437360Y-56677000D01*
X194464938Y-56679716D01*
X194464938Y-56679716D01*
G37*
G36*
X193321938Y-56679716D02*
G01*
X193342557Y-56685971D01*
X193361553Y-56696124D01*
X193378208Y-56709792D01*
X193391876Y-56726447D01*
X193402029Y-56745443D01*
X193408284Y-56766062D01*
X193411000Y-56793640D01*
X193411000Y-57252360D01*
X193408284Y-57279938D01*
X193402029Y-57300557D01*
X193391876Y-57319553D01*
X193378208Y-57336208D01*
X193361553Y-57349876D01*
X193342557Y-57360029D01*
X193321938Y-57366284D01*
X193294360Y-57369000D01*
X192785640Y-57369000D01*
X192758062Y-57366284D01*
X192737443Y-57360029D01*
X192718447Y-57349876D01*
X192701792Y-57336208D01*
X192688124Y-57319553D01*
X192677971Y-57300557D01*
X192671716Y-57279938D01*
X192669000Y-57252360D01*
X192669000Y-56793640D01*
X192671716Y-56766062D01*
X192677971Y-56745443D01*
X192688124Y-56726447D01*
X192701792Y-56709792D01*
X192718447Y-56696124D01*
X192737443Y-56685971D01*
X192758062Y-56679716D01*
X192785640Y-56677000D01*
X193294360Y-56677000D01*
X193321938Y-56679716D01*
X193321938Y-56679716D01*
G37*
G36*
X191416938Y-56679716D02*
G01*
X191437557Y-56685971D01*
X191456553Y-56696124D01*
X191473208Y-56709792D01*
X191486876Y-56726447D01*
X191497029Y-56745443D01*
X191503284Y-56766062D01*
X191506000Y-56793640D01*
X191506000Y-57252360D01*
X191503284Y-57279938D01*
X191497029Y-57300557D01*
X191486876Y-57319553D01*
X191473208Y-57336208D01*
X191456553Y-57349876D01*
X191437557Y-57360029D01*
X191416938Y-57366284D01*
X191389360Y-57369000D01*
X190880640Y-57369000D01*
X190853062Y-57366284D01*
X190832443Y-57360029D01*
X190813447Y-57349876D01*
X190796792Y-57336208D01*
X190783124Y-57319553D01*
X190772971Y-57300557D01*
X190766716Y-57279938D01*
X190764000Y-57252360D01*
X190764000Y-56793640D01*
X190766716Y-56766062D01*
X190772971Y-56745443D01*
X190783124Y-56726447D01*
X190796792Y-56709792D01*
X190813447Y-56696124D01*
X190832443Y-56685971D01*
X190853062Y-56679716D01*
X190880640Y-56677000D01*
X191389360Y-56677000D01*
X191416938Y-56679716D01*
X191416938Y-56679716D01*
G37*
G36*
X194642000Y-56282000D02*
G01*
X188390000Y-56282000D01*
X188390000Y-54580000D01*
X194642000Y-54580000D01*
X194642000Y-56282000D01*
X194642000Y-56282000D01*
G37*
G36*
X184960938Y-54114716D02*
G01*
X184981557Y-54120971D01*
X185000553Y-54131124D01*
X185017208Y-54144792D01*
X185030876Y-54161447D01*
X185041029Y-54180443D01*
X185047284Y-54201062D01*
X185050000Y-54228640D01*
X185050000Y-54737360D01*
X185047284Y-54764938D01*
X185041029Y-54785557D01*
X185030876Y-54804553D01*
X185017208Y-54821208D01*
X185000553Y-54834876D01*
X184981557Y-54845029D01*
X184960938Y-54851284D01*
X184933360Y-54854000D01*
X184474640Y-54854000D01*
X184447062Y-54851284D01*
X184426443Y-54845029D01*
X184407447Y-54834876D01*
X184390792Y-54821208D01*
X184377124Y-54804553D01*
X184366971Y-54785557D01*
X184360716Y-54764938D01*
X184358000Y-54737360D01*
X184358000Y-54228640D01*
X184360716Y-54201062D01*
X184366971Y-54180443D01*
X184377124Y-54161447D01*
X184390792Y-54144792D01*
X184407447Y-54131124D01*
X184426443Y-54120971D01*
X184447062Y-54114716D01*
X184474640Y-54112000D01*
X184933360Y-54112000D01*
X184960938Y-54114716D01*
X184960938Y-54114716D01*
G37*
G36*
X185930938Y-54114716D02*
G01*
X185951557Y-54120971D01*
X185970553Y-54131124D01*
X185987208Y-54144792D01*
X186000876Y-54161447D01*
X186011029Y-54180443D01*
X186017284Y-54201062D01*
X186020000Y-54228640D01*
X186020000Y-54737360D01*
X186017284Y-54764938D01*
X186011029Y-54785557D01*
X186000876Y-54804553D01*
X185987208Y-54821208D01*
X185970553Y-54834876D01*
X185951557Y-54845029D01*
X185930938Y-54851284D01*
X185903360Y-54854000D01*
X185444640Y-54854000D01*
X185417062Y-54851284D01*
X185396443Y-54845029D01*
X185377447Y-54834876D01*
X185360792Y-54821208D01*
X185347124Y-54804553D01*
X185336971Y-54785557D01*
X185330716Y-54764938D01*
X185328000Y-54737360D01*
X185328000Y-54228640D01*
X185330716Y-54201062D01*
X185336971Y-54180443D01*
X185347124Y-54161447D01*
X185360792Y-54144792D01*
X185377447Y-54131124D01*
X185396443Y-54120971D01*
X185417062Y-54114716D01*
X185444640Y-54112000D01*
X185903360Y-54112000D01*
X185930938Y-54114716D01*
X185930938Y-54114716D01*
G37*
G36*
X197741938Y-53987716D02*
G01*
X197762557Y-53993971D01*
X197781553Y-54004124D01*
X197798208Y-54017792D01*
X197811876Y-54034447D01*
X197822029Y-54053443D01*
X197828284Y-54074062D01*
X197831000Y-54101640D01*
X197831000Y-54610360D01*
X197828284Y-54637938D01*
X197822029Y-54658557D01*
X197811876Y-54677553D01*
X197798208Y-54694208D01*
X197781553Y-54707876D01*
X197762557Y-54718029D01*
X197741938Y-54724284D01*
X197714360Y-54727000D01*
X197255640Y-54727000D01*
X197228062Y-54724284D01*
X197207443Y-54718029D01*
X197188447Y-54707876D01*
X197171792Y-54694208D01*
X197158124Y-54677553D01*
X197147971Y-54658557D01*
X197141716Y-54637938D01*
X197139000Y-54610360D01*
X197139000Y-54101640D01*
X197141716Y-54074062D01*
X197147971Y-54053443D01*
X197158124Y-54034447D01*
X197171792Y-54017792D01*
X197188447Y-54004124D01*
X197207443Y-53993971D01*
X197228062Y-53987716D01*
X197255640Y-53985000D01*
X197714360Y-53985000D01*
X197741938Y-53987716D01*
X197741938Y-53987716D01*
G37*
G36*
X198711938Y-53987716D02*
G01*
X198732557Y-53993971D01*
X198751553Y-54004124D01*
X198768208Y-54017792D01*
X198781876Y-54034447D01*
X198792029Y-54053443D01*
X198798284Y-54074062D01*
X198801000Y-54101640D01*
X198801000Y-54610360D01*
X198798284Y-54637938D01*
X198792029Y-54658557D01*
X198781876Y-54677553D01*
X198768208Y-54694208D01*
X198751553Y-54707876D01*
X198732557Y-54718029D01*
X198711938Y-54724284D01*
X198684360Y-54727000D01*
X198225640Y-54727000D01*
X198198062Y-54724284D01*
X198177443Y-54718029D01*
X198158447Y-54707876D01*
X198141792Y-54694208D01*
X198128124Y-54677553D01*
X198117971Y-54658557D01*
X198111716Y-54637938D01*
X198109000Y-54610360D01*
X198109000Y-54101640D01*
X198111716Y-54074062D01*
X198117971Y-54053443D01*
X198128124Y-54034447D01*
X198141792Y-54017792D01*
X198158447Y-54004124D01*
X198177443Y-53993971D01*
X198198062Y-53987716D01*
X198225640Y-53985000D01*
X198684360Y-53985000D01*
X198711938Y-53987716D01*
X198711938Y-53987716D01*
G37*
G36*
X196617000Y-54307000D02*
G01*
X194915000Y-54307000D01*
X194915000Y-48055000D01*
X196617000Y-48055000D01*
X196617000Y-54307000D01*
X196617000Y-54307000D01*
G37*
G36*
X188117000Y-54307000D02*
G01*
X186415000Y-54307000D01*
X186415000Y-48055000D01*
X188117000Y-48055000D01*
X188117000Y-54307000D01*
X188117000Y-54307000D01*
G37*
G36*
X177970000Y-50120678D02*
G01*
X177972402Y-50145064D01*
X177979515Y-50168513D01*
X177992596Y-50192360D01*
X178501022Y-50918683D01*
X178516974Y-50937284D01*
X178536248Y-50952415D01*
X178558104Y-50963495D01*
X178570000Y-50966824D01*
X178570000Y-50977822D01*
X178572402Y-51002208D01*
X178579515Y-51025657D01*
X178592596Y-51049504D01*
X178616953Y-51084300D01*
X178630026Y-51102975D01*
X178625553Y-51105366D01*
X178606611Y-51120911D01*
X178591066Y-51139853D01*
X178579515Y-51161464D01*
X178572402Y-51184913D01*
X178570000Y-51209299D01*
X178570000Y-52675501D01*
X178572402Y-52699887D01*
X178579515Y-52723336D01*
X178591066Y-52744947D01*
X178606611Y-52763889D01*
X178625553Y-52779434D01*
X178630450Y-52782051D01*
X178592879Y-52835276D01*
X178580778Y-52856584D01*
X178573067Y-52879843D01*
X178570000Y-52907361D01*
X178570000Y-52918735D01*
X178554243Y-52923515D01*
X178532632Y-52935066D01*
X178513690Y-52950611D01*
X178499958Y-52966914D01*
X177945426Y-53752500D01*
X176892574Y-53752500D01*
X176338042Y-52966914D01*
X176322017Y-52948377D01*
X176302683Y-52933322D01*
X176280784Y-52922328D01*
X176268000Y-52918805D01*
X176268000Y-52907361D01*
X176265598Y-52882975D01*
X176258485Y-52859526D01*
X176245121Y-52835276D01*
X176207550Y-52782051D01*
X176212447Y-52779434D01*
X176231389Y-52763889D01*
X176246934Y-52744947D01*
X176258485Y-52723336D01*
X176265598Y-52699887D01*
X176268000Y-52675501D01*
X176268000Y-51209299D01*
X176265598Y-51184913D01*
X176258485Y-51161464D01*
X176246934Y-51139853D01*
X176231389Y-51120911D01*
X176212447Y-51105366D01*
X176207974Y-51102975D01*
X176245404Y-51049504D01*
X176257421Y-51028149D01*
X176265041Y-51004860D01*
X176268000Y-50977822D01*
X176268000Y-50966856D01*
X176282410Y-50962485D01*
X176304021Y-50950934D01*
X176322963Y-50935389D01*
X176336978Y-50918683D01*
X176845404Y-50192360D01*
X176857421Y-50171005D01*
X176865041Y-50147716D01*
X176868000Y-50120678D01*
X176868000Y-48325000D01*
X177970000Y-48325000D01*
X177970000Y-50120678D01*
X177970000Y-50120678D01*
G37*
G36*
X197741938Y-52844716D02*
G01*
X197762557Y-52850971D01*
X197781553Y-52861124D01*
X197798208Y-52874792D01*
X197811876Y-52891447D01*
X197822029Y-52910443D01*
X197828284Y-52931062D01*
X197831000Y-52958640D01*
X197831000Y-53467360D01*
X197828284Y-53494938D01*
X197822029Y-53515557D01*
X197811876Y-53534553D01*
X197798208Y-53551208D01*
X197781553Y-53564876D01*
X197762557Y-53575029D01*
X197741938Y-53581284D01*
X197714360Y-53584000D01*
X197255640Y-53584000D01*
X197228062Y-53581284D01*
X197207443Y-53575029D01*
X197188447Y-53564876D01*
X197171792Y-53551208D01*
X197158124Y-53534553D01*
X197147971Y-53515557D01*
X197141716Y-53494938D01*
X197139000Y-53467360D01*
X197139000Y-52958640D01*
X197141716Y-52931062D01*
X197147971Y-52910443D01*
X197158124Y-52891447D01*
X197171792Y-52874792D01*
X197188447Y-52861124D01*
X197207443Y-52850971D01*
X197228062Y-52844716D01*
X197255640Y-52842000D01*
X197714360Y-52842000D01*
X197741938Y-52844716D01*
X197741938Y-52844716D01*
G37*
G36*
X198711938Y-52844716D02*
G01*
X198732557Y-52850971D01*
X198751553Y-52861124D01*
X198768208Y-52874792D01*
X198781876Y-52891447D01*
X198792029Y-52910443D01*
X198798284Y-52931062D01*
X198801000Y-52958640D01*
X198801000Y-53467360D01*
X198798284Y-53494938D01*
X198792029Y-53515557D01*
X198781876Y-53534553D01*
X198768208Y-53551208D01*
X198751553Y-53564876D01*
X198732557Y-53575029D01*
X198711938Y-53581284D01*
X198684360Y-53584000D01*
X198225640Y-53584000D01*
X198198062Y-53581284D01*
X198177443Y-53575029D01*
X198158447Y-53564876D01*
X198141792Y-53551208D01*
X198128124Y-53534553D01*
X198117971Y-53515557D01*
X198111716Y-53494938D01*
X198109000Y-53467360D01*
X198109000Y-52958640D01*
X198111716Y-52931062D01*
X198117971Y-52910443D01*
X198128124Y-52891447D01*
X198141792Y-52874792D01*
X198158447Y-52861124D01*
X198177443Y-52850971D01*
X198198062Y-52844716D01*
X198225640Y-52842000D01*
X198684360Y-52842000D01*
X198711938Y-52844716D01*
X198711938Y-52844716D01*
G37*
G36*
X185930938Y-52844716D02*
G01*
X185951557Y-52850971D01*
X185970553Y-52861124D01*
X185987208Y-52874792D01*
X186000876Y-52891447D01*
X186011029Y-52910443D01*
X186017284Y-52931062D01*
X186020000Y-52958640D01*
X186020000Y-53467360D01*
X186017284Y-53494938D01*
X186011029Y-53515557D01*
X186000876Y-53534553D01*
X185987208Y-53551208D01*
X185970553Y-53564876D01*
X185951557Y-53575029D01*
X185930938Y-53581284D01*
X185903360Y-53584000D01*
X185444640Y-53584000D01*
X185417062Y-53581284D01*
X185396443Y-53575029D01*
X185377447Y-53564876D01*
X185360792Y-53551208D01*
X185347124Y-53534553D01*
X185336971Y-53515557D01*
X185330716Y-53494938D01*
X185328000Y-53467360D01*
X185328000Y-52958640D01*
X185330716Y-52931062D01*
X185336971Y-52910443D01*
X185347124Y-52891447D01*
X185360792Y-52874792D01*
X185377447Y-52861124D01*
X185396443Y-52850971D01*
X185417062Y-52844716D01*
X185444640Y-52842000D01*
X185903360Y-52842000D01*
X185930938Y-52844716D01*
X185930938Y-52844716D01*
G37*
G36*
X184960938Y-52844716D02*
G01*
X184981557Y-52850971D01*
X185000553Y-52861124D01*
X185017208Y-52874792D01*
X185030876Y-52891447D01*
X185041029Y-52910443D01*
X185047284Y-52931062D01*
X185050000Y-52958640D01*
X185050000Y-53467360D01*
X185047284Y-53494938D01*
X185041029Y-53515557D01*
X185030876Y-53534553D01*
X185017208Y-53551208D01*
X185000553Y-53564876D01*
X184981557Y-53575029D01*
X184960938Y-53581284D01*
X184933360Y-53584000D01*
X184474640Y-53584000D01*
X184447062Y-53581284D01*
X184426443Y-53575029D01*
X184407447Y-53564876D01*
X184390792Y-53551208D01*
X184377124Y-53534553D01*
X184366971Y-53515557D01*
X184360716Y-53494938D01*
X184358000Y-53467360D01*
X184358000Y-52958640D01*
X184360716Y-52931062D01*
X184366971Y-52910443D01*
X184377124Y-52891447D01*
X184390792Y-52874792D01*
X184407447Y-52861124D01*
X184426443Y-52850971D01*
X184447062Y-52844716D01*
X184474640Y-52842000D01*
X184933360Y-52842000D01*
X184960938Y-52844716D01*
X184960938Y-52844716D01*
G37*
G36*
X197660938Y-51701716D02*
G01*
X197681557Y-51707971D01*
X197700553Y-51718124D01*
X197717208Y-51731792D01*
X197730876Y-51748447D01*
X197741029Y-51767443D01*
X197747284Y-51788062D01*
X197750000Y-51815640D01*
X197750000Y-52324360D01*
X197747284Y-52351938D01*
X197741029Y-52372557D01*
X197730876Y-52391553D01*
X197717208Y-52408208D01*
X197700553Y-52421876D01*
X197681557Y-52432029D01*
X197660938Y-52438284D01*
X197633360Y-52441000D01*
X197174640Y-52441000D01*
X197147062Y-52438284D01*
X197126443Y-52432029D01*
X197107447Y-52421876D01*
X197090792Y-52408208D01*
X197077124Y-52391553D01*
X197066971Y-52372557D01*
X197060716Y-52351938D01*
X197058000Y-52324360D01*
X197058000Y-51815640D01*
X197060716Y-51788062D01*
X197066971Y-51767443D01*
X197077124Y-51748447D01*
X197090792Y-51731792D01*
X197107447Y-51718124D01*
X197126443Y-51707971D01*
X197147062Y-51701716D01*
X197174640Y-51699000D01*
X197633360Y-51699000D01*
X197660938Y-51701716D01*
X197660938Y-51701716D01*
G37*
G36*
X198630938Y-51701716D02*
G01*
X198651557Y-51707971D01*
X198670553Y-51718124D01*
X198687208Y-51731792D01*
X198700876Y-51748447D01*
X198711029Y-51767443D01*
X198717284Y-51788062D01*
X198720000Y-51815640D01*
X198720000Y-52324360D01*
X198717284Y-52351938D01*
X198711029Y-52372557D01*
X198700876Y-52391553D01*
X198687208Y-52408208D01*
X198670553Y-52421876D01*
X198651557Y-52432029D01*
X198630938Y-52438284D01*
X198603360Y-52441000D01*
X198144640Y-52441000D01*
X198117062Y-52438284D01*
X198096443Y-52432029D01*
X198077447Y-52421876D01*
X198060792Y-52408208D01*
X198047124Y-52391553D01*
X198036971Y-52372557D01*
X198030716Y-52351938D01*
X198028000Y-52324360D01*
X198028000Y-51815640D01*
X198030716Y-51788062D01*
X198036971Y-51767443D01*
X198047124Y-51748447D01*
X198060792Y-51731792D01*
X198077447Y-51718124D01*
X198096443Y-51707971D01*
X198117062Y-51701716D01*
X198144640Y-51699000D01*
X198603360Y-51699000D01*
X198630938Y-51701716D01*
X198630938Y-51701716D01*
G37*
G36*
X174320468Y-50266065D02*
G01*
X174359138Y-50277796D01*
X174394777Y-50296846D01*
X174426017Y-50322483D01*
X174451654Y-50353723D01*
X174470704Y-50389362D01*
X174482435Y-50428032D01*
X174487000Y-50474388D01*
X174487000Y-51125612D01*
X174482435Y-51171968D01*
X174470704Y-51210638D01*
X174451654Y-51246277D01*
X174426017Y-51277517D01*
X174394777Y-51303154D01*
X174359138Y-51322204D01*
X174320468Y-51333935D01*
X174274112Y-51338500D01*
X173197888Y-51338500D01*
X173151532Y-51333935D01*
X173112862Y-51322204D01*
X173077223Y-51303154D01*
X173045983Y-51277517D01*
X173020346Y-51246277D01*
X173001296Y-51210638D01*
X172989565Y-51171968D01*
X172985000Y-51125612D01*
X172985000Y-50474388D01*
X172989565Y-50428032D01*
X173001296Y-50389362D01*
X173020346Y-50353723D01*
X173045983Y-50322483D01*
X173077223Y-50296846D01*
X173112862Y-50277796D01*
X173151532Y-50266065D01*
X173197888Y-50261500D01*
X174274112Y-50261500D01*
X174320468Y-50266065D01*
X174320468Y-50266065D01*
G37*
G36*
X184833938Y-50431716D02*
G01*
X184854557Y-50437971D01*
X184873553Y-50448124D01*
X184890208Y-50461792D01*
X184903876Y-50478447D01*
X184914029Y-50497443D01*
X184920284Y-50518062D01*
X184923000Y-50545640D01*
X184923000Y-51054360D01*
X184920284Y-51081938D01*
X184914029Y-51102557D01*
X184903876Y-51121553D01*
X184890208Y-51138208D01*
X184873553Y-51151876D01*
X184854557Y-51162029D01*
X184833938Y-51168284D01*
X184806360Y-51171000D01*
X184347640Y-51171000D01*
X184320062Y-51168284D01*
X184299443Y-51162029D01*
X184280447Y-51151876D01*
X184263792Y-51138208D01*
X184250124Y-51121553D01*
X184239971Y-51102557D01*
X184233716Y-51081938D01*
X184231000Y-51054360D01*
X184231000Y-50545640D01*
X184233716Y-50518062D01*
X184239971Y-50497443D01*
X184250124Y-50478447D01*
X184263792Y-50461792D01*
X184280447Y-50448124D01*
X184299443Y-50437971D01*
X184320062Y-50431716D01*
X184347640Y-50429000D01*
X184806360Y-50429000D01*
X184833938Y-50431716D01*
X184833938Y-50431716D01*
G37*
G36*
X185803938Y-50431716D02*
G01*
X185824557Y-50437971D01*
X185843553Y-50448124D01*
X185860208Y-50461792D01*
X185873876Y-50478447D01*
X185884029Y-50497443D01*
X185890284Y-50518062D01*
X185893000Y-50545640D01*
X185893000Y-51054360D01*
X185890284Y-51081938D01*
X185884029Y-51102557D01*
X185873876Y-51121553D01*
X185860208Y-51138208D01*
X185843553Y-51151876D01*
X185824557Y-51162029D01*
X185803938Y-51168284D01*
X185776360Y-51171000D01*
X185317640Y-51171000D01*
X185290062Y-51168284D01*
X185269443Y-51162029D01*
X185250447Y-51151876D01*
X185233792Y-51138208D01*
X185220124Y-51121553D01*
X185209971Y-51102557D01*
X185203716Y-51081938D01*
X185201000Y-51054360D01*
X185201000Y-50545640D01*
X185203716Y-50518062D01*
X185209971Y-50497443D01*
X185220124Y-50478447D01*
X185233792Y-50461792D01*
X185250447Y-50448124D01*
X185269443Y-50437971D01*
X185290062Y-50431716D01*
X185317640Y-50429000D01*
X185776360Y-50429000D01*
X185803938Y-50431716D01*
X185803938Y-50431716D01*
G37*
G36*
X197741938Y-49923716D02*
G01*
X197762557Y-49929971D01*
X197781553Y-49940124D01*
X197798208Y-49953792D01*
X197811876Y-49970447D01*
X197822029Y-49989443D01*
X197828284Y-50010062D01*
X197831000Y-50037640D01*
X197831000Y-50546360D01*
X197828284Y-50573938D01*
X197822029Y-50594557D01*
X197811876Y-50613553D01*
X197798208Y-50630208D01*
X197781553Y-50643876D01*
X197762557Y-50654029D01*
X197741938Y-50660284D01*
X197714360Y-50663000D01*
X197255640Y-50663000D01*
X197228062Y-50660284D01*
X197207443Y-50654029D01*
X197188447Y-50643876D01*
X197171792Y-50630208D01*
X197158124Y-50613553D01*
X197147971Y-50594557D01*
X197141716Y-50573938D01*
X197139000Y-50546360D01*
X197139000Y-50037640D01*
X197141716Y-50010062D01*
X197147971Y-49989443D01*
X197158124Y-49970447D01*
X197171792Y-49953792D01*
X197188447Y-49940124D01*
X197207443Y-49929971D01*
X197228062Y-49923716D01*
X197255640Y-49921000D01*
X197714360Y-49921000D01*
X197741938Y-49923716D01*
X197741938Y-49923716D01*
G37*
G36*
X198711938Y-49923716D02*
G01*
X198732557Y-49929971D01*
X198751553Y-49940124D01*
X198768208Y-49953792D01*
X198781876Y-49970447D01*
X198792029Y-49989443D01*
X198798284Y-50010062D01*
X198801000Y-50037640D01*
X198801000Y-50546360D01*
X198798284Y-50573938D01*
X198792029Y-50594557D01*
X198781876Y-50613553D01*
X198768208Y-50630208D01*
X198751553Y-50643876D01*
X198732557Y-50654029D01*
X198711938Y-50660284D01*
X198684360Y-50663000D01*
X198225640Y-50663000D01*
X198198062Y-50660284D01*
X198177443Y-50654029D01*
X198158447Y-50643876D01*
X198141792Y-50630208D01*
X198128124Y-50613553D01*
X198117971Y-50594557D01*
X198111716Y-50573938D01*
X198109000Y-50546360D01*
X198109000Y-50037640D01*
X198111716Y-50010062D01*
X198117971Y-49989443D01*
X198128124Y-49970447D01*
X198141792Y-49953792D01*
X198158447Y-49940124D01*
X198177443Y-49929971D01*
X198198062Y-49923716D01*
X198225640Y-49921000D01*
X198684360Y-49921000D01*
X198711938Y-49923716D01*
X198711938Y-49923716D01*
G37*
G36*
X179470000Y-49930500D02*
G01*
X178368000Y-49930500D01*
X178368000Y-48328500D01*
X179470000Y-48328500D01*
X179470000Y-49930500D01*
X179470000Y-49930500D01*
G37*
G36*
X176470000Y-49930500D02*
G01*
X175368000Y-49930500D01*
X175368000Y-48328500D01*
X176470000Y-48328500D01*
X176470000Y-49930500D01*
X176470000Y-49930500D01*
G37*
G36*
X180875938Y-49186716D02*
G01*
X180896557Y-49192971D01*
X180915553Y-49203124D01*
X180932208Y-49216792D01*
X180945876Y-49233447D01*
X180956029Y-49252443D01*
X180962284Y-49273062D01*
X180965000Y-49300640D01*
X180965000Y-49759360D01*
X180962284Y-49786938D01*
X180956029Y-49807557D01*
X180945876Y-49826553D01*
X180932208Y-49843208D01*
X180915553Y-49856876D01*
X180896557Y-49867029D01*
X180875938Y-49873284D01*
X180848360Y-49876000D01*
X180339640Y-49876000D01*
X180312062Y-49873284D01*
X180291443Y-49867029D01*
X180272447Y-49856876D01*
X180255792Y-49843208D01*
X180242124Y-49826553D01*
X180231971Y-49807557D01*
X180225716Y-49786938D01*
X180223000Y-49759360D01*
X180223000Y-49300640D01*
X180225716Y-49273062D01*
X180231971Y-49252443D01*
X180242124Y-49233447D01*
X180255792Y-49216792D01*
X180272447Y-49203124D01*
X180291443Y-49192971D01*
X180312062Y-49186716D01*
X180339640Y-49184000D01*
X180848360Y-49184000D01*
X180875938Y-49186716D01*
X180875938Y-49186716D01*
G37*
G36*
X185757938Y-48780716D02*
G01*
X185778557Y-48786971D01*
X185797553Y-48797124D01*
X185814208Y-48810792D01*
X185827876Y-48827447D01*
X185838029Y-48846443D01*
X185844284Y-48867062D01*
X185847000Y-48894640D01*
X185847000Y-49403360D01*
X185844284Y-49430938D01*
X185838029Y-49451557D01*
X185827876Y-49470553D01*
X185814208Y-49487208D01*
X185797553Y-49500876D01*
X185778557Y-49511029D01*
X185757938Y-49517284D01*
X185730360Y-49520000D01*
X185271640Y-49520000D01*
X185244062Y-49517284D01*
X185223443Y-49511029D01*
X185204447Y-49500876D01*
X185187792Y-49487208D01*
X185174124Y-49470553D01*
X185163971Y-49451557D01*
X185157716Y-49430938D01*
X185155000Y-49403360D01*
X185155000Y-48894640D01*
X185157716Y-48867062D01*
X185163971Y-48846443D01*
X185174124Y-48827447D01*
X185187792Y-48810792D01*
X185204447Y-48797124D01*
X185223443Y-48786971D01*
X185244062Y-48780716D01*
X185271640Y-48778000D01*
X185730360Y-48778000D01*
X185757938Y-48780716D01*
X185757938Y-48780716D01*
G37*
G36*
X184787938Y-48780716D02*
G01*
X184808557Y-48786971D01*
X184827553Y-48797124D01*
X184844208Y-48810792D01*
X184857876Y-48827447D01*
X184868029Y-48846443D01*
X184874284Y-48867062D01*
X184877000Y-48894640D01*
X184877000Y-49403360D01*
X184874284Y-49430938D01*
X184868029Y-49451557D01*
X184857876Y-49470553D01*
X184844208Y-49487208D01*
X184827553Y-49500876D01*
X184808557Y-49511029D01*
X184787938Y-49517284D01*
X184760360Y-49520000D01*
X184301640Y-49520000D01*
X184274062Y-49517284D01*
X184253443Y-49511029D01*
X184234447Y-49500876D01*
X184217792Y-49487208D01*
X184204124Y-49470553D01*
X184193971Y-49451557D01*
X184187716Y-49430938D01*
X184185000Y-49403360D01*
X184185000Y-48894640D01*
X184187716Y-48867062D01*
X184193971Y-48846443D01*
X184204124Y-48827447D01*
X184217792Y-48810792D01*
X184234447Y-48797124D01*
X184253443Y-48786971D01*
X184274062Y-48780716D01*
X184301640Y-48778000D01*
X184760360Y-48778000D01*
X184787938Y-48780716D01*
X184787938Y-48780716D01*
G37*
G36*
X198630938Y-48780716D02*
G01*
X198651557Y-48786971D01*
X198670553Y-48797124D01*
X198687208Y-48810792D01*
X198700876Y-48827447D01*
X198711029Y-48846443D01*
X198717284Y-48867062D01*
X198720000Y-48894640D01*
X198720000Y-49403360D01*
X198717284Y-49430938D01*
X198711029Y-49451557D01*
X198700876Y-49470553D01*
X198687208Y-49487208D01*
X198670553Y-49500876D01*
X198651557Y-49511029D01*
X198630938Y-49517284D01*
X198603360Y-49520000D01*
X198144640Y-49520000D01*
X198117062Y-49517284D01*
X198096443Y-49511029D01*
X198077447Y-49500876D01*
X198060792Y-49487208D01*
X198047124Y-49470553D01*
X198036971Y-49451557D01*
X198030716Y-49430938D01*
X198028000Y-49403360D01*
X198028000Y-48894640D01*
X198030716Y-48867062D01*
X198036971Y-48846443D01*
X198047124Y-48827447D01*
X198060792Y-48810792D01*
X198077447Y-48797124D01*
X198096443Y-48786971D01*
X198117062Y-48780716D01*
X198144640Y-48778000D01*
X198603360Y-48778000D01*
X198630938Y-48780716D01*
X198630938Y-48780716D01*
G37*
G36*
X197660938Y-48780716D02*
G01*
X197681557Y-48786971D01*
X197700553Y-48797124D01*
X197717208Y-48810792D01*
X197730876Y-48827447D01*
X197741029Y-48846443D01*
X197747284Y-48867062D01*
X197750000Y-48894640D01*
X197750000Y-49403360D01*
X197747284Y-49430938D01*
X197741029Y-49451557D01*
X197730876Y-49470553D01*
X197717208Y-49487208D01*
X197700553Y-49500876D01*
X197681557Y-49511029D01*
X197660938Y-49517284D01*
X197633360Y-49520000D01*
X197174640Y-49520000D01*
X197147062Y-49517284D01*
X197126443Y-49511029D01*
X197107447Y-49500876D01*
X197090792Y-49487208D01*
X197077124Y-49470553D01*
X197066971Y-49451557D01*
X197060716Y-49430938D01*
X197058000Y-49403360D01*
X197058000Y-48894640D01*
X197060716Y-48867062D01*
X197066971Y-48846443D01*
X197077124Y-48827447D01*
X197090792Y-48810792D01*
X197107447Y-48797124D01*
X197126443Y-48786971D01*
X197147062Y-48780716D01*
X197174640Y-48778000D01*
X197633360Y-48778000D01*
X197660938Y-48780716D01*
X197660938Y-48780716D01*
G37*
G36*
X174320468Y-48391065D02*
G01*
X174359138Y-48402796D01*
X174394777Y-48421846D01*
X174426017Y-48447483D01*
X174451654Y-48478723D01*
X174470704Y-48514362D01*
X174482435Y-48553032D01*
X174487000Y-48599388D01*
X174487000Y-49250612D01*
X174482435Y-49296968D01*
X174470704Y-49335638D01*
X174451654Y-49371277D01*
X174426017Y-49402517D01*
X174394777Y-49428154D01*
X174359138Y-49447204D01*
X174320468Y-49458935D01*
X174274112Y-49463500D01*
X173197888Y-49463500D01*
X173151532Y-49458935D01*
X173112862Y-49447204D01*
X173077223Y-49428154D01*
X173045983Y-49402517D01*
X173020346Y-49371277D01*
X173001296Y-49335638D01*
X172989565Y-49296968D01*
X172985000Y-49250612D01*
X172985000Y-48599388D01*
X172989565Y-48553032D01*
X173001296Y-48514362D01*
X173020346Y-48478723D01*
X173045983Y-48447483D01*
X173077223Y-48421846D01*
X173112862Y-48402796D01*
X173151532Y-48391065D01*
X173197888Y-48386500D01*
X174274112Y-48386500D01*
X174320468Y-48391065D01*
X174320468Y-48391065D01*
G37*
G36*
X180875938Y-48216716D02*
G01*
X180896557Y-48222971D01*
X180915553Y-48233124D01*
X180932208Y-48246792D01*
X180945876Y-48263447D01*
X180956029Y-48282443D01*
X180962284Y-48303062D01*
X180965000Y-48330640D01*
X180965000Y-48789360D01*
X180962284Y-48816938D01*
X180956029Y-48837557D01*
X180945876Y-48856553D01*
X180932208Y-48873208D01*
X180915553Y-48886876D01*
X180896557Y-48897029D01*
X180875938Y-48903284D01*
X180848360Y-48906000D01*
X180339640Y-48906000D01*
X180312062Y-48903284D01*
X180291443Y-48897029D01*
X180272447Y-48886876D01*
X180255792Y-48873208D01*
X180242124Y-48856553D01*
X180231971Y-48837557D01*
X180225716Y-48816938D01*
X180223000Y-48789360D01*
X180223000Y-48330640D01*
X180225716Y-48303062D01*
X180231971Y-48282443D01*
X180242124Y-48263447D01*
X180255792Y-48246792D01*
X180272447Y-48233124D01*
X180291443Y-48222971D01*
X180312062Y-48216716D01*
X180339640Y-48214000D01*
X180848360Y-48214000D01*
X180875938Y-48216716D01*
X180875938Y-48216716D01*
G37*
G36*
X197660938Y-47637716D02*
G01*
X197681557Y-47643971D01*
X197700553Y-47654124D01*
X197717208Y-47667792D01*
X197730876Y-47684447D01*
X197741029Y-47703443D01*
X197747284Y-47724062D01*
X197750000Y-47751640D01*
X197750000Y-48260360D01*
X197747284Y-48287938D01*
X197741029Y-48308557D01*
X197730876Y-48327553D01*
X197717208Y-48344208D01*
X197700553Y-48357876D01*
X197681557Y-48368029D01*
X197660938Y-48374284D01*
X197633360Y-48377000D01*
X197174640Y-48377000D01*
X197147062Y-48374284D01*
X197126443Y-48368029D01*
X197107447Y-48357876D01*
X197090792Y-48344208D01*
X197077124Y-48327553D01*
X197066971Y-48308557D01*
X197060716Y-48287938D01*
X197058000Y-48260360D01*
X197058000Y-47751640D01*
X197060716Y-47724062D01*
X197066971Y-47703443D01*
X197077124Y-47684447D01*
X197090792Y-47667792D01*
X197107447Y-47654124D01*
X197126443Y-47643971D01*
X197147062Y-47637716D01*
X197174640Y-47635000D01*
X197633360Y-47635000D01*
X197660938Y-47637716D01*
X197660938Y-47637716D01*
G37*
G36*
X198630938Y-47637716D02*
G01*
X198651557Y-47643971D01*
X198670553Y-47654124D01*
X198687208Y-47667792D01*
X198700876Y-47684447D01*
X198711029Y-47703443D01*
X198717284Y-47724062D01*
X198720000Y-47751640D01*
X198720000Y-48260360D01*
X198717284Y-48287938D01*
X198711029Y-48308557D01*
X198700876Y-48327553D01*
X198687208Y-48344208D01*
X198670553Y-48357876D01*
X198651557Y-48368029D01*
X198630938Y-48374284D01*
X198603360Y-48377000D01*
X198144640Y-48377000D01*
X198117062Y-48374284D01*
X198096443Y-48368029D01*
X198077447Y-48357876D01*
X198060792Y-48344208D01*
X198047124Y-48327553D01*
X198036971Y-48308557D01*
X198030716Y-48287938D01*
X198028000Y-48260360D01*
X198028000Y-47751640D01*
X198030716Y-47724062D01*
X198036971Y-47703443D01*
X198047124Y-47684447D01*
X198060792Y-47667792D01*
X198077447Y-47654124D01*
X198096443Y-47643971D01*
X198117062Y-47637716D01*
X198144640Y-47635000D01*
X198603360Y-47635000D01*
X198630938Y-47637716D01*
X198630938Y-47637716D01*
G37*
G36*
X194642000Y-47782000D02*
G01*
X188390000Y-47782000D01*
X188390000Y-46080000D01*
X194642000Y-46080000D01*
X194642000Y-47782000D01*
X194642000Y-47782000D01*
G37*
G36*
X194591938Y-44868716D02*
G01*
X194612557Y-44874971D01*
X194631553Y-44885124D01*
X194648208Y-44898792D01*
X194661876Y-44915447D01*
X194672029Y-44934443D01*
X194678284Y-44955062D01*
X194681000Y-44982640D01*
X194681000Y-45441360D01*
X194678284Y-45468938D01*
X194672029Y-45489557D01*
X194661876Y-45508553D01*
X194648208Y-45525208D01*
X194631553Y-45538876D01*
X194612557Y-45549029D01*
X194591938Y-45555284D01*
X194564360Y-45558000D01*
X194055640Y-45558000D01*
X194028062Y-45555284D01*
X194007443Y-45549029D01*
X193988447Y-45538876D01*
X193971792Y-45525208D01*
X193958124Y-45508553D01*
X193947971Y-45489557D01*
X193941716Y-45468938D01*
X193939000Y-45441360D01*
X193939000Y-44982640D01*
X193941716Y-44955062D01*
X193947971Y-44934443D01*
X193958124Y-44915447D01*
X193971792Y-44898792D01*
X193988447Y-44885124D01*
X194007443Y-44874971D01*
X194028062Y-44868716D01*
X194055640Y-44866000D01*
X194564360Y-44866000D01*
X194591938Y-44868716D01*
X194591938Y-44868716D01*
G37*
G36*
X194591938Y-43898716D02*
G01*
X194612557Y-43904971D01*
X194631553Y-43915124D01*
X194648208Y-43928792D01*
X194661876Y-43945447D01*
X194672029Y-43964443D01*
X194678284Y-43985062D01*
X194681000Y-44012640D01*
X194681000Y-44471360D01*
X194678284Y-44498938D01*
X194672029Y-44519557D01*
X194661876Y-44538553D01*
X194648208Y-44555208D01*
X194631553Y-44568876D01*
X194612557Y-44579029D01*
X194591938Y-44585284D01*
X194564360Y-44588000D01*
X194055640Y-44588000D01*
X194028062Y-44585284D01*
X194007443Y-44579029D01*
X193988447Y-44568876D01*
X193971792Y-44555208D01*
X193958124Y-44538553D01*
X193947971Y-44519557D01*
X193941716Y-44498938D01*
X193939000Y-44471360D01*
X193939000Y-44012640D01*
X193941716Y-43985062D01*
X193947971Y-43964443D01*
X193958124Y-43945447D01*
X193971792Y-43928792D01*
X193988447Y-43915124D01*
X194007443Y-43904971D01*
X194028062Y-43898716D01*
X194055640Y-43896000D01*
X194564360Y-43896000D01*
X194591938Y-43898716D01*
X194591938Y-43898716D01*
G37*
G36*
X162924443Y-40507519D02*
G01*
X162990627Y-40514037D01*
X163160466Y-40565557D01*
X163316991Y-40649222D01*
X163352729Y-40678552D01*
X163454186Y-40761814D01*
X163537448Y-40863271D01*
X163566778Y-40899009D01*
X163650443Y-41055534D01*
X163701963Y-41225373D01*
X163719359Y-41402000D01*
X163701963Y-41578627D01*
X163650443Y-41748466D01*
X163566778Y-41904991D01*
X163537448Y-41940729D01*
X163454186Y-42042186D01*
X163352729Y-42125448D01*
X163316991Y-42154778D01*
X163160466Y-42238443D01*
X162990627Y-42289963D01*
X162924442Y-42296482D01*
X162858260Y-42303000D01*
X162769740Y-42303000D01*
X162703558Y-42296482D01*
X162637373Y-42289963D01*
X162467534Y-42238443D01*
X162311009Y-42154778D01*
X162275271Y-42125448D01*
X162173814Y-42042186D01*
X162090552Y-41940729D01*
X162061222Y-41904991D01*
X161977557Y-41748466D01*
X161926037Y-41578627D01*
X161908641Y-41402000D01*
X161926037Y-41225373D01*
X161977557Y-41055534D01*
X162061222Y-40899009D01*
X162090552Y-40863271D01*
X162173814Y-40761814D01*
X162275271Y-40678552D01*
X162311009Y-40649222D01*
X162467534Y-40565557D01*
X162637373Y-40514037D01*
X162703557Y-40507519D01*
X162769740Y-40501000D01*
X162858260Y-40501000D01*
X162924443Y-40507519D01*
X162924443Y-40507519D01*
G37*
G36*
X160384443Y-40507519D02*
G01*
X160450627Y-40514037D01*
X160620466Y-40565557D01*
X160776991Y-40649222D01*
X160812729Y-40678552D01*
X160914186Y-40761814D01*
X160997448Y-40863271D01*
X161026778Y-40899009D01*
X161110443Y-41055534D01*
X161161963Y-41225373D01*
X161179359Y-41402000D01*
X161161963Y-41578627D01*
X161110443Y-41748466D01*
X161026778Y-41904991D01*
X160997448Y-41940729D01*
X160914186Y-42042186D01*
X160812729Y-42125448D01*
X160776991Y-42154778D01*
X160620466Y-42238443D01*
X160450627Y-42289963D01*
X160384442Y-42296482D01*
X160318260Y-42303000D01*
X160229740Y-42303000D01*
X160163558Y-42296482D01*
X160097373Y-42289963D01*
X159927534Y-42238443D01*
X159771009Y-42154778D01*
X159735271Y-42125448D01*
X159633814Y-42042186D01*
X159550552Y-41940729D01*
X159521222Y-41904991D01*
X159437557Y-41748466D01*
X159386037Y-41578627D01*
X159368641Y-41402000D01*
X159386037Y-41225373D01*
X159437557Y-41055534D01*
X159521222Y-40899009D01*
X159550552Y-40863271D01*
X159633814Y-40761814D01*
X159735271Y-40678552D01*
X159771009Y-40649222D01*
X159927534Y-40565557D01*
X160097373Y-40514037D01*
X160163557Y-40507519D01*
X160229740Y-40501000D01*
X160318260Y-40501000D01*
X160384443Y-40507519D01*
X160384443Y-40507519D01*
G37*
G36*
X157844443Y-40507519D02*
G01*
X157910627Y-40514037D01*
X158080466Y-40565557D01*
X158236991Y-40649222D01*
X158272729Y-40678552D01*
X158374186Y-40761814D01*
X158457448Y-40863271D01*
X158486778Y-40899009D01*
X158570443Y-41055534D01*
X158621963Y-41225373D01*
X158639359Y-41402000D01*
X158621963Y-41578627D01*
X158570443Y-41748466D01*
X158486778Y-41904991D01*
X158457448Y-41940729D01*
X158374186Y-42042186D01*
X158272729Y-42125448D01*
X158236991Y-42154778D01*
X158080466Y-42238443D01*
X157910627Y-42289963D01*
X157844442Y-42296482D01*
X157778260Y-42303000D01*
X157689740Y-42303000D01*
X157623558Y-42296482D01*
X157557373Y-42289963D01*
X157387534Y-42238443D01*
X157231009Y-42154778D01*
X157195271Y-42125448D01*
X157093814Y-42042186D01*
X157010552Y-41940729D01*
X156981222Y-41904991D01*
X156897557Y-41748466D01*
X156846037Y-41578627D01*
X156828641Y-41402000D01*
X156846037Y-41225373D01*
X156897557Y-41055534D01*
X156981222Y-40899009D01*
X157010552Y-40863271D01*
X157093814Y-40761814D01*
X157195271Y-40678552D01*
X157231009Y-40649222D01*
X157387534Y-40565557D01*
X157557373Y-40514037D01*
X157623557Y-40507519D01*
X157689740Y-40501000D01*
X157778260Y-40501000D01*
X157844443Y-40507519D01*
X157844443Y-40507519D01*
G37*
G36*
X165464443Y-40507519D02*
G01*
X165530627Y-40514037D01*
X165700466Y-40565557D01*
X165856991Y-40649222D01*
X165892729Y-40678552D01*
X165994186Y-40761814D01*
X166077448Y-40863271D01*
X166106778Y-40899009D01*
X166190443Y-41055534D01*
X166241963Y-41225373D01*
X166259359Y-41402000D01*
X166241963Y-41578627D01*
X166190443Y-41748466D01*
X166106778Y-41904991D01*
X166077448Y-41940729D01*
X165994186Y-42042186D01*
X165892729Y-42125448D01*
X165856991Y-42154778D01*
X165700466Y-42238443D01*
X165530627Y-42289963D01*
X165464442Y-42296482D01*
X165398260Y-42303000D01*
X165309740Y-42303000D01*
X165243558Y-42296482D01*
X165177373Y-42289963D01*
X165007534Y-42238443D01*
X164851009Y-42154778D01*
X164815271Y-42125448D01*
X164713814Y-42042186D01*
X164630552Y-41940729D01*
X164601222Y-41904991D01*
X164517557Y-41748466D01*
X164466037Y-41578627D01*
X164448641Y-41402000D01*
X164466037Y-41225373D01*
X164517557Y-41055534D01*
X164601222Y-40899009D01*
X164630552Y-40863271D01*
X164713814Y-40761814D01*
X164815271Y-40678552D01*
X164851009Y-40649222D01*
X165007534Y-40565557D01*
X165177373Y-40514037D01*
X165243557Y-40507519D01*
X165309740Y-40501000D01*
X165398260Y-40501000D01*
X165464443Y-40507519D01*
X165464443Y-40507519D01*
G37*
G36*
X168004443Y-40507519D02*
G01*
X168070627Y-40514037D01*
X168240466Y-40565557D01*
X168396991Y-40649222D01*
X168432729Y-40678552D01*
X168534186Y-40761814D01*
X168617448Y-40863271D01*
X168646778Y-40899009D01*
X168730443Y-41055534D01*
X168781963Y-41225373D01*
X168799359Y-41402000D01*
X168781963Y-41578627D01*
X168730443Y-41748466D01*
X168646778Y-41904991D01*
X168617448Y-41940729D01*
X168534186Y-42042186D01*
X168432729Y-42125448D01*
X168396991Y-42154778D01*
X168240466Y-42238443D01*
X168070627Y-42289963D01*
X168004442Y-42296482D01*
X167938260Y-42303000D01*
X167849740Y-42303000D01*
X167783558Y-42296482D01*
X167717373Y-42289963D01*
X167547534Y-42238443D01*
X167391009Y-42154778D01*
X167355271Y-42125448D01*
X167253814Y-42042186D01*
X167170552Y-41940729D01*
X167141222Y-41904991D01*
X167057557Y-41748466D01*
X167006037Y-41578627D01*
X166988641Y-41402000D01*
X167006037Y-41225373D01*
X167057557Y-41055534D01*
X167141222Y-40899009D01*
X167170552Y-40863271D01*
X167253814Y-40761814D01*
X167355271Y-40678552D01*
X167391009Y-40649222D01*
X167547534Y-40565557D01*
X167717373Y-40514037D01*
X167783557Y-40507519D01*
X167849740Y-40501000D01*
X167938260Y-40501000D01*
X168004443Y-40507519D01*
X168004443Y-40507519D01*
G37*
G36*
X170544443Y-40507519D02*
G01*
X170610627Y-40514037D01*
X170780466Y-40565557D01*
X170936991Y-40649222D01*
X170972729Y-40678552D01*
X171074186Y-40761814D01*
X171157448Y-40863271D01*
X171186778Y-40899009D01*
X171270443Y-41055534D01*
X171321963Y-41225373D01*
X171339359Y-41402000D01*
X171321963Y-41578627D01*
X171270443Y-41748466D01*
X171186778Y-41904991D01*
X171157448Y-41940729D01*
X171074186Y-42042186D01*
X170972729Y-42125448D01*
X170936991Y-42154778D01*
X170780466Y-42238443D01*
X170610627Y-42289963D01*
X170544442Y-42296482D01*
X170478260Y-42303000D01*
X170389740Y-42303000D01*
X170323558Y-42296482D01*
X170257373Y-42289963D01*
X170087534Y-42238443D01*
X169931009Y-42154778D01*
X169895271Y-42125448D01*
X169793814Y-42042186D01*
X169710552Y-41940729D01*
X169681222Y-41904991D01*
X169597557Y-41748466D01*
X169546037Y-41578627D01*
X169528641Y-41402000D01*
X169546037Y-41225373D01*
X169597557Y-41055534D01*
X169681222Y-40899009D01*
X169710552Y-40863271D01*
X169793814Y-40761814D01*
X169895271Y-40678552D01*
X169931009Y-40649222D01*
X170087534Y-40565557D01*
X170257373Y-40514037D01*
X170323557Y-40507519D01*
X170389740Y-40501000D01*
X170478260Y-40501000D01*
X170544443Y-40507519D01*
X170544443Y-40507519D01*
G37*
G36*
X173084443Y-40507519D02*
G01*
X173150627Y-40514037D01*
X173320466Y-40565557D01*
X173476991Y-40649222D01*
X173512729Y-40678552D01*
X173614186Y-40761814D01*
X173697448Y-40863271D01*
X173726778Y-40899009D01*
X173810443Y-41055534D01*
X173861963Y-41225373D01*
X173879359Y-41402000D01*
X173861963Y-41578627D01*
X173810443Y-41748466D01*
X173726778Y-41904991D01*
X173697448Y-41940729D01*
X173614186Y-42042186D01*
X173512729Y-42125448D01*
X173476991Y-42154778D01*
X173320466Y-42238443D01*
X173150627Y-42289963D01*
X173084442Y-42296482D01*
X173018260Y-42303000D01*
X172929740Y-42303000D01*
X172863558Y-42296482D01*
X172797373Y-42289963D01*
X172627534Y-42238443D01*
X172471009Y-42154778D01*
X172435271Y-42125448D01*
X172333814Y-42042186D01*
X172250552Y-41940729D01*
X172221222Y-41904991D01*
X172137557Y-41748466D01*
X172086037Y-41578627D01*
X172068641Y-41402000D01*
X172086037Y-41225373D01*
X172137557Y-41055534D01*
X172221222Y-40899009D01*
X172250552Y-40863271D01*
X172333814Y-40761814D01*
X172435271Y-40678552D01*
X172471009Y-40649222D01*
X172627534Y-40565557D01*
X172797373Y-40514037D01*
X172863557Y-40507519D01*
X172929740Y-40501000D01*
X173018260Y-40501000D01*
X173084443Y-40507519D01*
X173084443Y-40507519D01*
G37*
G36*
X175624443Y-40507519D02*
G01*
X175690627Y-40514037D01*
X175860466Y-40565557D01*
X176016991Y-40649222D01*
X176052729Y-40678552D01*
X176154186Y-40761814D01*
X176237448Y-40863271D01*
X176266778Y-40899009D01*
X176350443Y-41055534D01*
X176401963Y-41225373D01*
X176419359Y-41402000D01*
X176401963Y-41578627D01*
X176350443Y-41748466D01*
X176266778Y-41904991D01*
X176237448Y-41940729D01*
X176154186Y-42042186D01*
X176052729Y-42125448D01*
X176016991Y-42154778D01*
X175860466Y-42238443D01*
X175690627Y-42289963D01*
X175624442Y-42296482D01*
X175558260Y-42303000D01*
X175469740Y-42303000D01*
X175403558Y-42296482D01*
X175337373Y-42289963D01*
X175167534Y-42238443D01*
X175011009Y-42154778D01*
X174975271Y-42125448D01*
X174873814Y-42042186D01*
X174790552Y-41940729D01*
X174761222Y-41904991D01*
X174677557Y-41748466D01*
X174626037Y-41578627D01*
X174608641Y-41402000D01*
X174626037Y-41225373D01*
X174677557Y-41055534D01*
X174761222Y-40899009D01*
X174790552Y-40863271D01*
X174873814Y-40761814D01*
X174975271Y-40678552D01*
X175011009Y-40649222D01*
X175167534Y-40565557D01*
X175337373Y-40514037D01*
X175403557Y-40507519D01*
X175469740Y-40501000D01*
X175558260Y-40501000D01*
X175624443Y-40507519D01*
X175624443Y-40507519D01*
G37*
G36*
X178164443Y-40507519D02*
G01*
X178230627Y-40514037D01*
X178400466Y-40565557D01*
X178556991Y-40649222D01*
X178592729Y-40678552D01*
X178694186Y-40761814D01*
X178777448Y-40863271D01*
X178806778Y-40899009D01*
X178890443Y-41055534D01*
X178941963Y-41225373D01*
X178959359Y-41402000D01*
X178941963Y-41578627D01*
X178890443Y-41748466D01*
X178806778Y-41904991D01*
X178777448Y-41940729D01*
X178694186Y-42042186D01*
X178592729Y-42125448D01*
X178556991Y-42154778D01*
X178400466Y-42238443D01*
X178230627Y-42289963D01*
X178164442Y-42296482D01*
X178098260Y-42303000D01*
X178009740Y-42303000D01*
X177943558Y-42296482D01*
X177877373Y-42289963D01*
X177707534Y-42238443D01*
X177551009Y-42154778D01*
X177515271Y-42125448D01*
X177413814Y-42042186D01*
X177330552Y-41940729D01*
X177301222Y-41904991D01*
X177217557Y-41748466D01*
X177166037Y-41578627D01*
X177148641Y-41402000D01*
X177166037Y-41225373D01*
X177217557Y-41055534D01*
X177301222Y-40899009D01*
X177330552Y-40863271D01*
X177413814Y-40761814D01*
X177515271Y-40678552D01*
X177551009Y-40649222D01*
X177707534Y-40565557D01*
X177877373Y-40514037D01*
X177943557Y-40507519D01*
X178009740Y-40501000D01*
X178098260Y-40501000D01*
X178164443Y-40507519D01*
X178164443Y-40507519D01*
G37*
G36*
X181495000Y-42303000D02*
G01*
X179693000Y-42303000D01*
X179693000Y-40501000D01*
X181495000Y-40501000D01*
X181495000Y-42303000D01*
X181495000Y-42303000D01*
G37*
M02*
