G04 #@! TF.GenerationSoftware,KiCad,Pcbnew,(5.1.2-1)-1*
G04 #@! TF.CreationDate,2022-01-31T21:06:54-05:00*
G04 #@! TF.ProjectId,Capacitive_Touch_Breakout_Board_AT42QT1245-AU,43617061-6369-4746-9976-655f546f7563,rev?*
G04 #@! TF.SameCoordinates,Original*
G04 #@! TF.FileFunction,Legend,Top*
G04 #@! TF.FilePolarity,Positive*
%FSLAX46Y46*%
G04 Gerber Fmt 4.6, Leading zero omitted, Abs format (unit mm)*
G04 Created by KiCad (PCBNEW (5.1.2-1)-1) date 2022-01-31 21:06:54*
%MOMM*%
%LPD*%
G04 APERTURE LIST*
%ADD10C,0.150000*%
%ADD11C,0.400000*%
%ADD12C,0.120000*%
G04 APERTURE END LIST*
D10*
X157305952Y-91527380D02*
X157305952Y-92241666D01*
X157258333Y-92384523D01*
X157163095Y-92479761D01*
X157020238Y-92527380D01*
X156925000Y-92527380D01*
X158258333Y-92527380D02*
X157782142Y-92527380D01*
X157782142Y-91527380D01*
X159163095Y-92432142D02*
X159115476Y-92479761D01*
X158972619Y-92527380D01*
X158877380Y-92527380D01*
X158734523Y-92479761D01*
X158639285Y-92384523D01*
X158591666Y-92289285D01*
X158544047Y-92098809D01*
X158544047Y-91955952D01*
X158591666Y-91765476D01*
X158639285Y-91670238D01*
X158734523Y-91575000D01*
X158877380Y-91527380D01*
X158972619Y-91527380D01*
X159115476Y-91575000D01*
X159163095Y-91622619D01*
X159877380Y-91527380D02*
X159877380Y-92241666D01*
X159829761Y-92384523D01*
X159734523Y-92479761D01*
X159591666Y-92527380D01*
X159496428Y-92527380D01*
X160829761Y-92527380D02*
X160353571Y-92527380D01*
X160353571Y-91527380D01*
X161734523Y-92432142D02*
X161686904Y-92479761D01*
X161544047Y-92527380D01*
X161448809Y-92527380D01*
X161305952Y-92479761D01*
X161210714Y-92384523D01*
X161163095Y-92289285D01*
X161115476Y-92098809D01*
X161115476Y-91955952D01*
X161163095Y-91765476D01*
X161210714Y-91670238D01*
X161305952Y-91575000D01*
X161448809Y-91527380D01*
X161544047Y-91527380D01*
X161686904Y-91575000D01*
X161734523Y-91622619D01*
X162448809Y-91527380D02*
X162448809Y-92241666D01*
X162401190Y-92384523D01*
X162305952Y-92479761D01*
X162163095Y-92527380D01*
X162067857Y-92527380D01*
X163401190Y-92527380D02*
X162925000Y-92527380D01*
X162925000Y-91527380D01*
X164305952Y-92432142D02*
X164258333Y-92479761D01*
X164115476Y-92527380D01*
X164020238Y-92527380D01*
X163877380Y-92479761D01*
X163782142Y-92384523D01*
X163734523Y-92289285D01*
X163686904Y-92098809D01*
X163686904Y-91955952D01*
X163734523Y-91765476D01*
X163782142Y-91670238D01*
X163877380Y-91575000D01*
X164020238Y-91527380D01*
X164115476Y-91527380D01*
X164258333Y-91575000D01*
X164305952Y-91622619D01*
X165020238Y-91527380D02*
X165020238Y-92241666D01*
X164972619Y-92384523D01*
X164877380Y-92479761D01*
X164734523Y-92527380D01*
X164639285Y-92527380D01*
X165972619Y-92527380D02*
X165496428Y-92527380D01*
X165496428Y-91527380D01*
X166877380Y-92432142D02*
X166829761Y-92479761D01*
X166686904Y-92527380D01*
X166591666Y-92527380D01*
X166448809Y-92479761D01*
X166353571Y-92384523D01*
X166305952Y-92289285D01*
X166258333Y-92098809D01*
X166258333Y-91955952D01*
X166305952Y-91765476D01*
X166353571Y-91670238D01*
X166448809Y-91575000D01*
X166591666Y-91527380D01*
X166686904Y-91527380D01*
X166829761Y-91575000D01*
X166877380Y-91622619D01*
X156258333Y-85749761D02*
X156163095Y-85797380D01*
X155972619Y-85797380D01*
X155877380Y-85749761D01*
X155829761Y-85702142D01*
X155782142Y-85606904D01*
X155782142Y-85321190D01*
X155829761Y-85225952D01*
X155877380Y-85178333D01*
X155972619Y-85130714D01*
X156163095Y-85130714D01*
X156258333Y-85178333D01*
X156686904Y-85797380D02*
X156686904Y-84797380D01*
X157115476Y-85797380D02*
X157115476Y-85273571D01*
X157067857Y-85178333D01*
X156972619Y-85130714D01*
X156829761Y-85130714D01*
X156734523Y-85178333D01*
X156686904Y-85225952D01*
X157591666Y-85797380D02*
X157591666Y-85130714D01*
X157591666Y-85321190D02*
X157639285Y-85225952D01*
X157686904Y-85178333D01*
X157782142Y-85130714D01*
X157877380Y-85130714D01*
X158210714Y-85797380D02*
X158210714Y-85130714D01*
X158210714Y-84797380D02*
X158163095Y-84845000D01*
X158210714Y-84892619D01*
X158258333Y-84845000D01*
X158210714Y-84797380D01*
X158210714Y-84892619D01*
X158639285Y-85749761D02*
X158734523Y-85797380D01*
X158925000Y-85797380D01*
X159020238Y-85749761D01*
X159067857Y-85654523D01*
X159067857Y-85606904D01*
X159020238Y-85511666D01*
X158925000Y-85464047D01*
X158782142Y-85464047D01*
X158686904Y-85416428D01*
X158639285Y-85321190D01*
X158639285Y-85273571D01*
X158686904Y-85178333D01*
X158782142Y-85130714D01*
X158925000Y-85130714D01*
X159020238Y-85178333D01*
X160686904Y-85797380D02*
X160686904Y-84797380D01*
X160686904Y-85749761D02*
X160591666Y-85797380D01*
X160401190Y-85797380D01*
X160305952Y-85749761D01*
X160258333Y-85702142D01*
X160210714Y-85606904D01*
X160210714Y-85321190D01*
X160258333Y-85225952D01*
X160305952Y-85178333D01*
X160401190Y-85130714D01*
X160591666Y-85130714D01*
X160686904Y-85178333D01*
X161544047Y-85749761D02*
X161448809Y-85797380D01*
X161258333Y-85797380D01*
X161163095Y-85749761D01*
X161115476Y-85654523D01*
X161115476Y-85273571D01*
X161163095Y-85178333D01*
X161258333Y-85130714D01*
X161448809Y-85130714D01*
X161544047Y-85178333D01*
X161591666Y-85273571D01*
X161591666Y-85368809D01*
X161115476Y-85464047D01*
X161877380Y-85130714D02*
X162258333Y-85130714D01*
X162020238Y-85797380D02*
X162020238Y-84940238D01*
X162067857Y-84845000D01*
X162163095Y-84797380D01*
X162258333Y-84797380D01*
X162591666Y-85797380D02*
X162591666Y-85130714D01*
X162591666Y-85321190D02*
X162639285Y-85225952D01*
X162686904Y-85178333D01*
X162782142Y-85130714D01*
X162877380Y-85130714D01*
X163639285Y-85797380D02*
X163639285Y-85273571D01*
X163591666Y-85178333D01*
X163496428Y-85130714D01*
X163305952Y-85130714D01*
X163210714Y-85178333D01*
X163639285Y-85749761D02*
X163544047Y-85797380D01*
X163305952Y-85797380D01*
X163210714Y-85749761D01*
X163163095Y-85654523D01*
X163163095Y-85559285D01*
X163210714Y-85464047D01*
X163305952Y-85416428D01*
X163544047Y-85416428D01*
X163639285Y-85368809D01*
X164115476Y-85130714D02*
X164115476Y-85797380D01*
X164115476Y-85225952D02*
X164163095Y-85178333D01*
X164258333Y-85130714D01*
X164401190Y-85130714D01*
X164496428Y-85178333D01*
X164544047Y-85273571D01*
X164544047Y-85797380D01*
X165448809Y-85749761D02*
X165353571Y-85797380D01*
X165163095Y-85797380D01*
X165067857Y-85749761D01*
X165020238Y-85702142D01*
X164972619Y-85606904D01*
X164972619Y-85321190D01*
X165020238Y-85225952D01*
X165067857Y-85178333D01*
X165163095Y-85130714D01*
X165353571Y-85130714D01*
X165448809Y-85178333D01*
X165877380Y-85797380D02*
X165877380Y-85130714D01*
X165877380Y-84797380D02*
X165829761Y-84845000D01*
X165877380Y-84892619D01*
X165925000Y-84845000D01*
X165877380Y-84797380D01*
X165877380Y-84892619D01*
X166305952Y-85749761D02*
X166401190Y-85797380D01*
X166591666Y-85797380D01*
X166686904Y-85749761D01*
X166734523Y-85654523D01*
X166734523Y-85606904D01*
X166686904Y-85511666D01*
X166591666Y-85464047D01*
X166448809Y-85464047D01*
X166353571Y-85416428D01*
X166305952Y-85321190D01*
X166305952Y-85273571D01*
X166353571Y-85178333D01*
X166448809Y-85130714D01*
X166591666Y-85130714D01*
X166686904Y-85178333D01*
X167591666Y-85749761D02*
X167496428Y-85797380D01*
X167305952Y-85797380D01*
X167210714Y-85749761D01*
X167163095Y-85702142D01*
X167115476Y-85606904D01*
X167115476Y-85321190D01*
X167163095Y-85225952D01*
X167210714Y-85178333D01*
X167305952Y-85130714D01*
X167496428Y-85130714D01*
X167591666Y-85178333D01*
X168020238Y-85797380D02*
X168020238Y-85130714D01*
X168020238Y-84797380D02*
X167972619Y-84845000D01*
X168020238Y-84892619D01*
X168067857Y-84845000D01*
X168020238Y-84797380D01*
X168020238Y-84892619D01*
X142972619Y-87447380D02*
X142972619Y-86923571D01*
X142925000Y-86828333D01*
X142829761Y-86780714D01*
X142639285Y-86780714D01*
X142544047Y-86828333D01*
X142972619Y-87399761D02*
X142877380Y-87447380D01*
X142639285Y-87447380D01*
X142544047Y-87399761D01*
X142496428Y-87304523D01*
X142496428Y-87209285D01*
X142544047Y-87114047D01*
X142639285Y-87066428D01*
X142877380Y-87066428D01*
X142972619Y-87018809D01*
X143305952Y-86780714D02*
X143686904Y-86780714D01*
X143448809Y-86447380D02*
X143448809Y-87304523D01*
X143496428Y-87399761D01*
X143591666Y-87447380D01*
X143686904Y-87447380D01*
X144448809Y-86780714D02*
X144448809Y-87447380D01*
X144210714Y-86399761D02*
X143972619Y-87114047D01*
X144591666Y-87114047D01*
X144925000Y-86542619D02*
X144972619Y-86495000D01*
X145067857Y-86447380D01*
X145305952Y-86447380D01*
X145401190Y-86495000D01*
X145448809Y-86542619D01*
X145496428Y-86637857D01*
X145496428Y-86733095D01*
X145448809Y-86875952D01*
X144877380Y-87447380D01*
X145496428Y-87447380D01*
X146353571Y-86780714D02*
X146353571Y-87780714D01*
X146353571Y-87399761D02*
X146258333Y-87447380D01*
X146067857Y-87447380D01*
X145972619Y-87399761D01*
X145925000Y-87352142D01*
X145877380Y-87256904D01*
X145877380Y-86971190D01*
X145925000Y-86875952D01*
X145972619Y-86828333D01*
X146067857Y-86780714D01*
X146258333Y-86780714D01*
X146353571Y-86828333D01*
X146686904Y-86780714D02*
X147067857Y-86780714D01*
X146829761Y-86447380D02*
X146829761Y-87304523D01*
X146877380Y-87399761D01*
X146972619Y-87447380D01*
X147067857Y-87447380D01*
X147925000Y-87447380D02*
X147353571Y-87447380D01*
X147639285Y-87447380D02*
X147639285Y-86447380D01*
X147544047Y-86590238D01*
X147448809Y-86685476D01*
X147353571Y-86733095D01*
X148305952Y-86542619D02*
X148353571Y-86495000D01*
X148448809Y-86447380D01*
X148686904Y-86447380D01*
X148782142Y-86495000D01*
X148829761Y-86542619D01*
X148877380Y-86637857D01*
X148877380Y-86733095D01*
X148829761Y-86875952D01*
X148258333Y-87447380D01*
X148877380Y-87447380D01*
X149734523Y-86780714D02*
X149734523Y-87447380D01*
X149496428Y-86399761D02*
X149258333Y-87114047D01*
X149877380Y-87114047D01*
X150734523Y-86447380D02*
X150258333Y-86447380D01*
X150210714Y-86923571D01*
X150258333Y-86875952D01*
X150353571Y-86828333D01*
X150591666Y-86828333D01*
X150686904Y-86875952D01*
X150734523Y-86923571D01*
X150782142Y-87018809D01*
X150782142Y-87256904D01*
X150734523Y-87352142D01*
X150686904Y-87399761D01*
X150591666Y-87447380D01*
X150353571Y-87447380D01*
X150258333Y-87399761D01*
X150210714Y-87352142D01*
X151210714Y-87066428D02*
X151972619Y-87066428D01*
X152877380Y-87447380D02*
X152877380Y-86923571D01*
X152829761Y-86828333D01*
X152734523Y-86780714D01*
X152544047Y-86780714D01*
X152448809Y-86828333D01*
X152877380Y-87399761D02*
X152782142Y-87447380D01*
X152544047Y-87447380D01*
X152448809Y-87399761D01*
X152401190Y-87304523D01*
X152401190Y-87209285D01*
X152448809Y-87114047D01*
X152544047Y-87066428D01*
X152782142Y-87066428D01*
X152877380Y-87018809D01*
X153782142Y-86780714D02*
X153782142Y-87447380D01*
X153353571Y-86780714D02*
X153353571Y-87304523D01*
X153401190Y-87399761D01*
X153496428Y-87447380D01*
X153639285Y-87447380D01*
X153734523Y-87399761D01*
X153782142Y-87352142D01*
X154972619Y-86542619D02*
X155020238Y-86495000D01*
X155115476Y-86447380D01*
X155353571Y-86447380D01*
X155448809Y-86495000D01*
X155496428Y-86542619D01*
X155544047Y-86637857D01*
X155544047Y-86733095D01*
X155496428Y-86875952D01*
X154925000Y-87447380D01*
X155544047Y-87447380D01*
X156401190Y-86780714D02*
X156401190Y-87447380D01*
X156163095Y-86399761D02*
X155925000Y-87114047D01*
X156544047Y-87114047D01*
X158115476Y-87399761D02*
X158020238Y-87447380D01*
X157829761Y-87447380D01*
X157734523Y-87399761D01*
X157686904Y-87352142D01*
X157639285Y-87256904D01*
X157639285Y-86971190D01*
X157686904Y-86875952D01*
X157734523Y-86828333D01*
X157829761Y-86780714D01*
X158020238Y-86780714D01*
X158115476Y-86828333D01*
X158544047Y-87447380D02*
X158544047Y-86447380D01*
X158972619Y-87447380D02*
X158972619Y-86923571D01*
X158925000Y-86828333D01*
X158829761Y-86780714D01*
X158686904Y-86780714D01*
X158591666Y-86828333D01*
X158544047Y-86875952D01*
X159877380Y-87447380D02*
X159877380Y-86923571D01*
X159829761Y-86828333D01*
X159734523Y-86780714D01*
X159544047Y-86780714D01*
X159448809Y-86828333D01*
X159877380Y-87399761D02*
X159782142Y-87447380D01*
X159544047Y-87447380D01*
X159448809Y-87399761D01*
X159401190Y-87304523D01*
X159401190Y-87209285D01*
X159448809Y-87114047D01*
X159544047Y-87066428D01*
X159782142Y-87066428D01*
X159877380Y-87018809D01*
X160353571Y-86780714D02*
X160353571Y-87447380D01*
X160353571Y-86875952D02*
X160401190Y-86828333D01*
X160496428Y-86780714D01*
X160639285Y-86780714D01*
X160734523Y-86828333D01*
X160782142Y-86923571D01*
X160782142Y-87447380D01*
X161258333Y-86780714D02*
X161258333Y-87447380D01*
X161258333Y-86875952D02*
X161305952Y-86828333D01*
X161401190Y-86780714D01*
X161544047Y-86780714D01*
X161639285Y-86828333D01*
X161686904Y-86923571D01*
X161686904Y-87447380D01*
X162544047Y-87399761D02*
X162448809Y-87447380D01*
X162258333Y-87447380D01*
X162163095Y-87399761D01*
X162115476Y-87304523D01*
X162115476Y-86923571D01*
X162163095Y-86828333D01*
X162258333Y-86780714D01*
X162448809Y-86780714D01*
X162544047Y-86828333D01*
X162591666Y-86923571D01*
X162591666Y-87018809D01*
X162115476Y-87114047D01*
X163163095Y-87447380D02*
X163067857Y-87399761D01*
X163020238Y-87304523D01*
X163020238Y-86447380D01*
X164734523Y-87399761D02*
X164639285Y-87447380D01*
X164448809Y-87447380D01*
X164353571Y-87399761D01*
X164305952Y-87352142D01*
X164258333Y-87256904D01*
X164258333Y-86971190D01*
X164305952Y-86875952D01*
X164353571Y-86828333D01*
X164448809Y-86780714D01*
X164639285Y-86780714D01*
X164734523Y-86828333D01*
X165591666Y-87447380D02*
X165591666Y-86923571D01*
X165544047Y-86828333D01*
X165448809Y-86780714D01*
X165258333Y-86780714D01*
X165163095Y-86828333D01*
X165591666Y-87399761D02*
X165496428Y-87447380D01*
X165258333Y-87447380D01*
X165163095Y-87399761D01*
X165115476Y-87304523D01*
X165115476Y-87209285D01*
X165163095Y-87114047D01*
X165258333Y-87066428D01*
X165496428Y-87066428D01*
X165591666Y-87018809D01*
X166067857Y-86780714D02*
X166067857Y-87780714D01*
X166067857Y-86828333D02*
X166163095Y-86780714D01*
X166353571Y-86780714D01*
X166448809Y-86828333D01*
X166496428Y-86875952D01*
X166544047Y-86971190D01*
X166544047Y-87256904D01*
X166496428Y-87352142D01*
X166448809Y-87399761D01*
X166353571Y-87447380D01*
X166163095Y-87447380D01*
X166067857Y-87399761D01*
X167401190Y-87447380D02*
X167401190Y-86923571D01*
X167353571Y-86828333D01*
X167258333Y-86780714D01*
X167067857Y-86780714D01*
X166972619Y-86828333D01*
X167401190Y-87399761D02*
X167305952Y-87447380D01*
X167067857Y-87447380D01*
X166972619Y-87399761D01*
X166925000Y-87304523D01*
X166925000Y-87209285D01*
X166972619Y-87114047D01*
X167067857Y-87066428D01*
X167305952Y-87066428D01*
X167401190Y-87018809D01*
X168305952Y-87399761D02*
X168210714Y-87447380D01*
X168020238Y-87447380D01*
X167925000Y-87399761D01*
X167877380Y-87352142D01*
X167829761Y-87256904D01*
X167829761Y-86971190D01*
X167877380Y-86875952D01*
X167925000Y-86828333D01*
X168020238Y-86780714D01*
X168210714Y-86780714D01*
X168305952Y-86828333D01*
X168734523Y-87447380D02*
X168734523Y-86780714D01*
X168734523Y-86447380D02*
X168686904Y-86495000D01*
X168734523Y-86542619D01*
X168782142Y-86495000D01*
X168734523Y-86447380D01*
X168734523Y-86542619D01*
X169067857Y-86780714D02*
X169448809Y-86780714D01*
X169210714Y-86447380D02*
X169210714Y-87304523D01*
X169258333Y-87399761D01*
X169353571Y-87447380D01*
X169448809Y-87447380D01*
X169782142Y-87447380D02*
X169782142Y-86780714D01*
X169782142Y-86447380D02*
X169734523Y-86495000D01*
X169782142Y-86542619D01*
X169829761Y-86495000D01*
X169782142Y-86447380D01*
X169782142Y-86542619D01*
X170163095Y-86780714D02*
X170401190Y-87447380D01*
X170639285Y-86780714D01*
X171401190Y-87399761D02*
X171305952Y-87447380D01*
X171115476Y-87447380D01*
X171020238Y-87399761D01*
X170972619Y-87304523D01*
X170972619Y-86923571D01*
X171020238Y-86828333D01*
X171115476Y-86780714D01*
X171305952Y-86780714D01*
X171401190Y-86828333D01*
X171448809Y-86923571D01*
X171448809Y-87018809D01*
X170972619Y-87114047D01*
X172496428Y-86780714D02*
X172877380Y-86780714D01*
X172639285Y-86447380D02*
X172639285Y-87304523D01*
X172686904Y-87399761D01*
X172782142Y-87447380D01*
X172877380Y-87447380D01*
X173353571Y-87447380D02*
X173258333Y-87399761D01*
X173210714Y-87352142D01*
X173163095Y-87256904D01*
X173163095Y-86971190D01*
X173210714Y-86875952D01*
X173258333Y-86828333D01*
X173353571Y-86780714D01*
X173496428Y-86780714D01*
X173591666Y-86828333D01*
X173639285Y-86875952D01*
X173686904Y-86971190D01*
X173686904Y-87256904D01*
X173639285Y-87352142D01*
X173591666Y-87399761D01*
X173496428Y-87447380D01*
X173353571Y-87447380D01*
X174544047Y-86780714D02*
X174544047Y-87447380D01*
X174115476Y-86780714D02*
X174115476Y-87304523D01*
X174163095Y-87399761D01*
X174258333Y-87447380D01*
X174401190Y-87447380D01*
X174496428Y-87399761D01*
X174544047Y-87352142D01*
X175448809Y-87399761D02*
X175353571Y-87447380D01*
X175163095Y-87447380D01*
X175067857Y-87399761D01*
X175020238Y-87352142D01*
X174972619Y-87256904D01*
X174972619Y-86971190D01*
X175020238Y-86875952D01*
X175067857Y-86828333D01*
X175163095Y-86780714D01*
X175353571Y-86780714D01*
X175448809Y-86828333D01*
X175877380Y-87447380D02*
X175877380Y-86447380D01*
X176305952Y-87447380D02*
X176305952Y-86923571D01*
X176258333Y-86828333D01*
X176163095Y-86780714D01*
X176020238Y-86780714D01*
X175925000Y-86828333D01*
X175877380Y-86875952D01*
X177972619Y-87447380D02*
X177972619Y-86447380D01*
X177972619Y-87399761D02*
X177877380Y-87447380D01*
X177686904Y-87447380D01*
X177591666Y-87399761D01*
X177544047Y-87352142D01*
X177496428Y-87256904D01*
X177496428Y-86971190D01*
X177544047Y-86875952D01*
X177591666Y-86828333D01*
X177686904Y-86780714D01*
X177877380Y-86780714D01*
X177972619Y-86828333D01*
X178448809Y-87447380D02*
X178448809Y-86780714D01*
X178448809Y-86971190D02*
X178496428Y-86875952D01*
X178544047Y-86828333D01*
X178639285Y-86780714D01*
X178734523Y-86780714D01*
X179067857Y-87447380D02*
X179067857Y-86780714D01*
X179067857Y-86447380D02*
X179020238Y-86495000D01*
X179067857Y-86542619D01*
X179115476Y-86495000D01*
X179067857Y-86447380D01*
X179067857Y-86542619D01*
X179448809Y-86780714D02*
X179686904Y-87447380D01*
X179925000Y-86780714D01*
X180686904Y-87399761D02*
X180591666Y-87447380D01*
X180401190Y-87447380D01*
X180305952Y-87399761D01*
X180258333Y-87304523D01*
X180258333Y-86923571D01*
X180305952Y-86828333D01*
X180401190Y-86780714D01*
X180591666Y-86780714D01*
X180686904Y-86828333D01*
X180734523Y-86923571D01*
X180734523Y-87018809D01*
X180258333Y-87114047D01*
X181163095Y-87447380D02*
X181163095Y-86780714D01*
X181163095Y-86971190D02*
X181210714Y-86875952D01*
X181258333Y-86828333D01*
X181353571Y-86780714D01*
X181448809Y-86780714D01*
X161210714Y-88430714D02*
X161448809Y-89097380D01*
X161686904Y-88430714D01*
X162591666Y-89097380D02*
X162020238Y-89097380D01*
X162305952Y-89097380D02*
X162305952Y-88097380D01*
X162210714Y-88240238D01*
X162115476Y-88335476D01*
X162020238Y-88383095D01*
D11*
X196013605Y-55499000D02*
G75*
G03X196013605Y-55499000I-179605J0D01*
G01*
D10*
X195141000Y-54581000D02*
X196566000Y-54581000D01*
X187891000Y-54806000D02*
X188216000Y-54806000D01*
X187891000Y-47556000D02*
X188216000Y-47556000D01*
X195141000Y-47556000D02*
X194816000Y-47556000D01*
X195141000Y-54806000D02*
X194816000Y-54806000D01*
X195141000Y-47556000D02*
X195141000Y-47881000D01*
X187891000Y-47556000D02*
X187891000Y-47881000D01*
X187891000Y-54806000D02*
X187891000Y-54481000D01*
X195141000Y-54806000D02*
X195141000Y-54581000D01*
D12*
X179819000Y-52389500D02*
X178619000Y-52389500D01*
X179819000Y-48389500D02*
X179819000Y-52389500D01*
X175019000Y-52389500D02*
X175019000Y-49689500D01*
X176219000Y-52389500D02*
X175019000Y-52389500D01*
X173026000Y-49603922D02*
X173026000Y-50121078D01*
X174446000Y-49603922D02*
X174446000Y-50121078D01*
X160911000Y-114742279D02*
X160911000Y-114416721D01*
X159891000Y-114742279D02*
X159891000Y-114416721D01*
X155153631Y-126319120D02*
X154923426Y-126549325D01*
X155874880Y-127040369D02*
X155644675Y-127270574D01*
X142686721Y-132336000D02*
X143012279Y-132336000D01*
X142686721Y-131316000D02*
X143012279Y-131316000D01*
X131363880Y-126578631D02*
X131133675Y-126348426D01*
X130642631Y-127299880D02*
X130412426Y-127069675D01*
X125220000Y-114492721D02*
X125220000Y-114818279D01*
X126240000Y-114492721D02*
X126240000Y-114818279D01*
X131133675Y-102759574D02*
X131363880Y-102529369D01*
X130412426Y-102038325D02*
X130642631Y-101808120D01*
X143317279Y-96772000D02*
X142991721Y-96772000D01*
X143317279Y-97792000D02*
X142991721Y-97792000D01*
X155050426Y-102558675D02*
X155280631Y-102788880D01*
X155771675Y-101837426D02*
X156001880Y-102067631D01*
X181924000Y-40072000D02*
X181924000Y-41402000D01*
X180594000Y-40072000D02*
X181924000Y-40072000D01*
X179324000Y-40072000D02*
X179324000Y-42732000D01*
X179324000Y-42732000D02*
X156404000Y-42732000D01*
X179324000Y-40072000D02*
X156404000Y-40072000D01*
X156404000Y-40072000D02*
X156404000Y-42732000D01*
D10*
X188912714Y-44283380D02*
X188912714Y-45092904D01*
X188960333Y-45188142D01*
X189007952Y-45235761D01*
X189103190Y-45283380D01*
X189293666Y-45283380D01*
X189388904Y-45235761D01*
X189436523Y-45188142D01*
X189484142Y-45092904D01*
X189484142Y-44283380D01*
X190484142Y-45283380D02*
X189912714Y-45283380D01*
X190198428Y-45283380D02*
X190198428Y-44283380D01*
X190103190Y-44426238D01*
X190007952Y-44521476D01*
X189912714Y-44569095D01*
X191103190Y-44283380D02*
X191198428Y-44283380D01*
X191293666Y-44331000D01*
X191341285Y-44378619D01*
X191388904Y-44473857D01*
X191436523Y-44664333D01*
X191436523Y-44902428D01*
X191388904Y-45092904D01*
X191341285Y-45188142D01*
X191293666Y-45235761D01*
X191198428Y-45283380D01*
X191103190Y-45283380D01*
X191007952Y-45235761D01*
X190960333Y-45188142D01*
X190912714Y-45092904D01*
X190865095Y-44902428D01*
X190865095Y-44664333D01*
X190912714Y-44473857D01*
X190960333Y-44378619D01*
X191007952Y-44331000D01*
X191103190Y-44283380D01*
X192388904Y-45283380D02*
X191817476Y-45283380D01*
X192103190Y-45283380D02*
X192103190Y-44283380D01*
X192007952Y-44426238D01*
X191912714Y-44521476D01*
X191817476Y-44569095D01*
X175704714Y-54189380D02*
X175704714Y-54998904D01*
X175752333Y-55094142D01*
X175799952Y-55141761D01*
X175895190Y-55189380D01*
X176085666Y-55189380D01*
X176180904Y-55141761D01*
X176228523Y-55094142D01*
X176276142Y-54998904D01*
X176276142Y-54189380D01*
X177276142Y-55189380D02*
X176704714Y-55189380D01*
X176990428Y-55189380D02*
X176990428Y-54189380D01*
X176895190Y-54332238D01*
X176799952Y-54427476D01*
X176704714Y-54475095D01*
X177895190Y-54189380D02*
X177990428Y-54189380D01*
X178085666Y-54237000D01*
X178133285Y-54284619D01*
X178180904Y-54379857D01*
X178228523Y-54570333D01*
X178228523Y-54808428D01*
X178180904Y-54998904D01*
X178133285Y-55094142D01*
X178085666Y-55141761D01*
X177990428Y-55189380D01*
X177895190Y-55189380D01*
X177799952Y-55141761D01*
X177752333Y-55094142D01*
X177704714Y-54998904D01*
X177657095Y-54808428D01*
X177657095Y-54570333D01*
X177704714Y-54379857D01*
X177752333Y-54284619D01*
X177799952Y-54237000D01*
X177895190Y-54189380D01*
X178609476Y-54284619D02*
X178657095Y-54237000D01*
X178752333Y-54189380D01*
X178990428Y-54189380D01*
X179085666Y-54237000D01*
X179133285Y-54284619D01*
X179180904Y-54379857D01*
X179180904Y-54475095D01*
X179133285Y-54617952D01*
X178561857Y-55189380D01*
X179180904Y-55189380D01*
X178712952Y-47728142D02*
X178665333Y-47775761D01*
X178522476Y-47823380D01*
X178427238Y-47823380D01*
X178284380Y-47775761D01*
X178189142Y-47680523D01*
X178141523Y-47585285D01*
X178093904Y-47394809D01*
X178093904Y-47251952D01*
X178141523Y-47061476D01*
X178189142Y-46966238D01*
X178284380Y-46871000D01*
X178427238Y-46823380D01*
X178522476Y-46823380D01*
X178665333Y-46871000D01*
X178712952Y-46918619D01*
X179665333Y-47823380D02*
X179093904Y-47823380D01*
X179379619Y-47823380D02*
X179379619Y-46823380D01*
X179284380Y-46966238D01*
X179189142Y-47061476D01*
X179093904Y-47109095D01*
X180284380Y-46823380D02*
X180379619Y-46823380D01*
X180474857Y-46871000D01*
X180522476Y-46918619D01*
X180570095Y-47013857D01*
X180617714Y-47204333D01*
X180617714Y-47442428D01*
X180570095Y-47632904D01*
X180522476Y-47728142D01*
X180474857Y-47775761D01*
X180379619Y-47823380D01*
X180284380Y-47823380D01*
X180189142Y-47775761D01*
X180141523Y-47728142D01*
X180093904Y-47632904D01*
X180046285Y-47442428D01*
X180046285Y-47204333D01*
X180093904Y-47013857D01*
X180141523Y-46918619D01*
X180189142Y-46871000D01*
X180284380Y-46823380D01*
X181093904Y-47823380D02*
X181284380Y-47823380D01*
X181379619Y-47775761D01*
X181427238Y-47728142D01*
X181522476Y-47585285D01*
X181570095Y-47394809D01*
X181570095Y-47013857D01*
X181522476Y-46918619D01*
X181474857Y-46871000D01*
X181379619Y-46823380D01*
X181189142Y-46823380D01*
X181093904Y-46871000D01*
X181046285Y-46918619D01*
X180998666Y-47013857D01*
X180998666Y-47251952D01*
X181046285Y-47347190D01*
X181093904Y-47394809D01*
X181189142Y-47442428D01*
X181379619Y-47442428D01*
X181474857Y-47394809D01*
X181522476Y-47347190D01*
X181570095Y-47251952D01*
X169441952Y-50219642D02*
X169394333Y-50267261D01*
X169251476Y-50314880D01*
X169156238Y-50314880D01*
X169013380Y-50267261D01*
X168918142Y-50172023D01*
X168870523Y-50076785D01*
X168822904Y-49886309D01*
X168822904Y-49743452D01*
X168870523Y-49552976D01*
X168918142Y-49457738D01*
X169013380Y-49362500D01*
X169156238Y-49314880D01*
X169251476Y-49314880D01*
X169394333Y-49362500D01*
X169441952Y-49410119D01*
X170394333Y-50314880D02*
X169822904Y-50314880D01*
X170108619Y-50314880D02*
X170108619Y-49314880D01*
X170013380Y-49457738D01*
X169918142Y-49552976D01*
X169822904Y-49600595D01*
X171013380Y-49314880D02*
X171108619Y-49314880D01*
X171203857Y-49362500D01*
X171251476Y-49410119D01*
X171299095Y-49505357D01*
X171346714Y-49695833D01*
X171346714Y-49933928D01*
X171299095Y-50124404D01*
X171251476Y-50219642D01*
X171203857Y-50267261D01*
X171108619Y-50314880D01*
X171013380Y-50314880D01*
X170918142Y-50267261D01*
X170870523Y-50219642D01*
X170822904Y-50124404D01*
X170775285Y-49933928D01*
X170775285Y-49695833D01*
X170822904Y-49505357D01*
X170870523Y-49410119D01*
X170918142Y-49362500D01*
X171013380Y-49314880D01*
X171918142Y-49743452D02*
X171822904Y-49695833D01*
X171775285Y-49648214D01*
X171727666Y-49552976D01*
X171727666Y-49505357D01*
X171775285Y-49410119D01*
X171822904Y-49362500D01*
X171918142Y-49314880D01*
X172108619Y-49314880D01*
X172203857Y-49362500D01*
X172251476Y-49410119D01*
X172299095Y-49505357D01*
X172299095Y-49552976D01*
X172251476Y-49648214D01*
X172203857Y-49695833D01*
X172108619Y-49743452D01*
X171918142Y-49743452D01*
X171822904Y-49791071D01*
X171775285Y-49838690D01*
X171727666Y-49933928D01*
X171727666Y-50124404D01*
X171775285Y-50219642D01*
X171822904Y-50267261D01*
X171918142Y-50314880D01*
X172108619Y-50314880D01*
X172203857Y-50267261D01*
X172251476Y-50219642D01*
X172299095Y-50124404D01*
X172299095Y-49933928D01*
X172251476Y-49838690D01*
X172203857Y-49791071D01*
X172108619Y-49743452D01*
X145046761Y-138811285D02*
X145094380Y-138954142D01*
X145094380Y-139192238D01*
X145046761Y-139287476D01*
X144999142Y-139335095D01*
X144903904Y-139382714D01*
X144808666Y-139382714D01*
X144713428Y-139335095D01*
X144665809Y-139287476D01*
X144618190Y-139192238D01*
X144570571Y-139001761D01*
X144522952Y-138906523D01*
X144475333Y-138858904D01*
X144380095Y-138811285D01*
X144284857Y-138811285D01*
X144189619Y-138858904D01*
X144142000Y-138906523D01*
X144094380Y-139001761D01*
X144094380Y-139239857D01*
X144142000Y-139382714D01*
X144094380Y-139716047D02*
X145094380Y-139954142D01*
X144380095Y-140144619D01*
X145094380Y-140335095D01*
X144094380Y-140573190D01*
X145094380Y-141477952D02*
X145094380Y-140906523D01*
X145094380Y-141192238D02*
X144094380Y-141192238D01*
X144237238Y-141097000D01*
X144332476Y-141001761D01*
X144380095Y-140906523D01*
X144094380Y-142097000D02*
X144094380Y-142192238D01*
X144142000Y-142287476D01*
X144189619Y-142335095D01*
X144284857Y-142382714D01*
X144475333Y-142430333D01*
X144713428Y-142430333D01*
X144903904Y-142382714D01*
X144999142Y-142335095D01*
X145046761Y-142287476D01*
X145094380Y-142192238D01*
X145094380Y-142097000D01*
X145046761Y-142001761D01*
X144999142Y-141954142D01*
X144903904Y-141906523D01*
X144713428Y-141858904D01*
X144475333Y-141858904D01*
X144284857Y-141906523D01*
X144189619Y-141954142D01*
X144142000Y-142001761D01*
X144094380Y-142097000D01*
X144427714Y-143287476D02*
X145094380Y-143287476D01*
X144046761Y-143049380D02*
X144761047Y-142811285D01*
X144761047Y-143430333D01*
X163588761Y-58674285D02*
X163636380Y-58817142D01*
X163636380Y-59055238D01*
X163588761Y-59150476D01*
X163541142Y-59198095D01*
X163445904Y-59245714D01*
X163350666Y-59245714D01*
X163255428Y-59198095D01*
X163207809Y-59150476D01*
X163160190Y-59055238D01*
X163112571Y-58864761D01*
X163064952Y-58769523D01*
X163017333Y-58721904D01*
X162922095Y-58674285D01*
X162826857Y-58674285D01*
X162731619Y-58721904D01*
X162684000Y-58769523D01*
X162636380Y-58864761D01*
X162636380Y-59102857D01*
X162684000Y-59245714D01*
X162636380Y-59579047D02*
X163636380Y-59817142D01*
X162922095Y-60007619D01*
X163636380Y-60198095D01*
X162636380Y-60436190D01*
X163636380Y-61340952D02*
X163636380Y-60769523D01*
X163636380Y-61055238D02*
X162636380Y-61055238D01*
X162779238Y-60960000D01*
X162874476Y-60864761D01*
X162922095Y-60769523D01*
X162636380Y-61960000D02*
X162636380Y-62055238D01*
X162684000Y-62150476D01*
X162731619Y-62198095D01*
X162826857Y-62245714D01*
X163017333Y-62293333D01*
X163255428Y-62293333D01*
X163445904Y-62245714D01*
X163541142Y-62198095D01*
X163588761Y-62150476D01*
X163636380Y-62055238D01*
X163636380Y-61960000D01*
X163588761Y-61864761D01*
X163541142Y-61817142D01*
X163445904Y-61769523D01*
X163255428Y-61721904D01*
X163017333Y-61721904D01*
X162826857Y-61769523D01*
X162731619Y-61817142D01*
X162684000Y-61864761D01*
X162636380Y-61960000D01*
X162731619Y-62674285D02*
X162684000Y-62721904D01*
X162636380Y-62817142D01*
X162636380Y-63055238D01*
X162684000Y-63150476D01*
X162731619Y-63198095D01*
X162826857Y-63245714D01*
X162922095Y-63245714D01*
X163064952Y-63198095D01*
X163636380Y-62626666D01*
X163636380Y-63245714D01*
X140724761Y-83819714D02*
X140772380Y-83676857D01*
X140772380Y-83438761D01*
X140724761Y-83343523D01*
X140677142Y-83295904D01*
X140581904Y-83248285D01*
X140486666Y-83248285D01*
X140391428Y-83295904D01*
X140343809Y-83343523D01*
X140296190Y-83438761D01*
X140248571Y-83629238D01*
X140200952Y-83724476D01*
X140153333Y-83772095D01*
X140058095Y-83819714D01*
X139962857Y-83819714D01*
X139867619Y-83772095D01*
X139820000Y-83724476D01*
X139772380Y-83629238D01*
X139772380Y-83391142D01*
X139820000Y-83248285D01*
X139772380Y-82914952D02*
X140772380Y-82676857D01*
X140058095Y-82486380D01*
X140772380Y-82295904D01*
X139772380Y-82057809D01*
X140772380Y-81153047D02*
X140772380Y-81724476D01*
X140772380Y-81438761D02*
X139772380Y-81438761D01*
X139915238Y-81534000D01*
X140010476Y-81629238D01*
X140058095Y-81724476D01*
X139772380Y-80534000D02*
X139772380Y-80438761D01*
X139820000Y-80343523D01*
X139867619Y-80295904D01*
X139962857Y-80248285D01*
X140153333Y-80200666D01*
X140391428Y-80200666D01*
X140581904Y-80248285D01*
X140677142Y-80295904D01*
X140724761Y-80343523D01*
X140772380Y-80438761D01*
X140772380Y-80534000D01*
X140724761Y-80629238D01*
X140677142Y-80676857D01*
X140581904Y-80724476D01*
X140391428Y-80772095D01*
X140153333Y-80772095D01*
X139962857Y-80724476D01*
X139867619Y-80676857D01*
X139820000Y-80629238D01*
X139772380Y-80534000D01*
X139772380Y-79343523D02*
X139772380Y-79534000D01*
X139820000Y-79629238D01*
X139867619Y-79676857D01*
X140010476Y-79772095D01*
X140200952Y-79819714D01*
X140581904Y-79819714D01*
X140677142Y-79772095D01*
X140724761Y-79724476D01*
X140772380Y-79629238D01*
X140772380Y-79438761D01*
X140724761Y-79343523D01*
X140677142Y-79295904D01*
X140581904Y-79248285D01*
X140343809Y-79248285D01*
X140248571Y-79295904D01*
X140200952Y-79343523D01*
X140153333Y-79438761D01*
X140153333Y-79629238D01*
X140200952Y-79724476D01*
X140248571Y-79772095D01*
X140343809Y-79819714D01*
X180744952Y-51284142D02*
X180697333Y-51331761D01*
X180554476Y-51379380D01*
X180459238Y-51379380D01*
X180316380Y-51331761D01*
X180221142Y-51236523D01*
X180173523Y-51141285D01*
X180125904Y-50950809D01*
X180125904Y-50807952D01*
X180173523Y-50617476D01*
X180221142Y-50522238D01*
X180316380Y-50427000D01*
X180459238Y-50379380D01*
X180554476Y-50379380D01*
X180697333Y-50427000D01*
X180744952Y-50474619D01*
X181697333Y-51379380D02*
X181125904Y-51379380D01*
X181411619Y-51379380D02*
X181411619Y-50379380D01*
X181316380Y-50522238D01*
X181221142Y-50617476D01*
X181125904Y-50665095D01*
X182316380Y-50379380D02*
X182411619Y-50379380D01*
X182506857Y-50427000D01*
X182554476Y-50474619D01*
X182602095Y-50569857D01*
X182649714Y-50760333D01*
X182649714Y-50998428D01*
X182602095Y-51188904D01*
X182554476Y-51284142D01*
X182506857Y-51331761D01*
X182411619Y-51379380D01*
X182316380Y-51379380D01*
X182221142Y-51331761D01*
X182173523Y-51284142D01*
X182125904Y-51188904D01*
X182078285Y-50998428D01*
X182078285Y-50760333D01*
X182125904Y-50569857D01*
X182173523Y-50474619D01*
X182221142Y-50427000D01*
X182316380Y-50379380D01*
X182983047Y-50379380D02*
X183649714Y-50379380D01*
X183221142Y-51379380D01*
X183030952Y-48236142D02*
X182983333Y-48283761D01*
X182840476Y-48331380D01*
X182745238Y-48331380D01*
X182602380Y-48283761D01*
X182507142Y-48188523D01*
X182459523Y-48093285D01*
X182411904Y-47902809D01*
X182411904Y-47759952D01*
X182459523Y-47569476D01*
X182507142Y-47474238D01*
X182602380Y-47379000D01*
X182745238Y-47331380D01*
X182840476Y-47331380D01*
X182983333Y-47379000D01*
X183030952Y-47426619D01*
X183983333Y-48331380D02*
X183411904Y-48331380D01*
X183697619Y-48331380D02*
X183697619Y-47331380D01*
X183602380Y-47474238D01*
X183507142Y-47569476D01*
X183411904Y-47617095D01*
X184602380Y-47331380D02*
X184697619Y-47331380D01*
X184792857Y-47379000D01*
X184840476Y-47426619D01*
X184888095Y-47521857D01*
X184935714Y-47712333D01*
X184935714Y-47950428D01*
X184888095Y-48140904D01*
X184840476Y-48236142D01*
X184792857Y-48283761D01*
X184697619Y-48331380D01*
X184602380Y-48331380D01*
X184507142Y-48283761D01*
X184459523Y-48236142D01*
X184411904Y-48140904D01*
X184364285Y-47950428D01*
X184364285Y-47712333D01*
X184411904Y-47521857D01*
X184459523Y-47426619D01*
X184507142Y-47379000D01*
X184602380Y-47331380D01*
X185792857Y-47331380D02*
X185602380Y-47331380D01*
X185507142Y-47379000D01*
X185459523Y-47426619D01*
X185364285Y-47569476D01*
X185316666Y-47759952D01*
X185316666Y-48140904D01*
X185364285Y-48236142D01*
X185411904Y-48283761D01*
X185507142Y-48331380D01*
X185697619Y-48331380D01*
X185792857Y-48283761D01*
X185840476Y-48236142D01*
X185888095Y-48140904D01*
X185888095Y-47902809D01*
X185840476Y-47807571D01*
X185792857Y-47759952D01*
X185697619Y-47712333D01*
X185507142Y-47712333D01*
X185411904Y-47759952D01*
X185364285Y-47807571D01*
X185316666Y-47902809D01*
X198270952Y-59158142D02*
X198223333Y-59205761D01*
X198080476Y-59253380D01*
X197985238Y-59253380D01*
X197842380Y-59205761D01*
X197747142Y-59110523D01*
X197699523Y-59015285D01*
X197651904Y-58824809D01*
X197651904Y-58681952D01*
X197699523Y-58491476D01*
X197747142Y-58396238D01*
X197842380Y-58301000D01*
X197985238Y-58253380D01*
X198080476Y-58253380D01*
X198223333Y-58301000D01*
X198270952Y-58348619D01*
X199223333Y-59253380D02*
X198651904Y-59253380D01*
X198937619Y-59253380D02*
X198937619Y-58253380D01*
X198842380Y-58396238D01*
X198747142Y-58491476D01*
X198651904Y-58539095D01*
X199842380Y-58253380D02*
X199937619Y-58253380D01*
X200032857Y-58301000D01*
X200080476Y-58348619D01*
X200128095Y-58443857D01*
X200175714Y-58634333D01*
X200175714Y-58872428D01*
X200128095Y-59062904D01*
X200080476Y-59158142D01*
X200032857Y-59205761D01*
X199937619Y-59253380D01*
X199842380Y-59253380D01*
X199747142Y-59205761D01*
X199699523Y-59158142D01*
X199651904Y-59062904D01*
X199604285Y-58872428D01*
X199604285Y-58634333D01*
X199651904Y-58443857D01*
X199699523Y-58348619D01*
X199747142Y-58301000D01*
X199842380Y-58253380D01*
X201080476Y-58253380D02*
X200604285Y-58253380D01*
X200556666Y-58729571D01*
X200604285Y-58681952D01*
X200699523Y-58634333D01*
X200937619Y-58634333D01*
X201032857Y-58681952D01*
X201080476Y-58729571D01*
X201128095Y-58824809D01*
X201128095Y-59062904D01*
X201080476Y-59158142D01*
X201032857Y-59205761D01*
X200937619Y-59253380D01*
X200699523Y-59253380D01*
X200604285Y-59205761D01*
X200556666Y-59158142D01*
X179077761Y-116204714D02*
X179125380Y-116061857D01*
X179125380Y-115823761D01*
X179077761Y-115728523D01*
X179030142Y-115680904D01*
X178934904Y-115633285D01*
X178839666Y-115633285D01*
X178744428Y-115680904D01*
X178696809Y-115728523D01*
X178649190Y-115823761D01*
X178601571Y-116014238D01*
X178553952Y-116109476D01*
X178506333Y-116157095D01*
X178411095Y-116204714D01*
X178315857Y-116204714D01*
X178220619Y-116157095D01*
X178173000Y-116109476D01*
X178125380Y-116014238D01*
X178125380Y-115776142D01*
X178173000Y-115633285D01*
X178125380Y-115299952D02*
X179125380Y-115061857D01*
X178411095Y-114871380D01*
X179125380Y-114680904D01*
X178125380Y-114442809D01*
X179125380Y-113538047D02*
X179125380Y-114109476D01*
X179125380Y-113823761D02*
X178125380Y-113823761D01*
X178268238Y-113919000D01*
X178363476Y-114014238D01*
X178411095Y-114109476D01*
X178125380Y-112919000D02*
X178125380Y-112823761D01*
X178173000Y-112728523D01*
X178220619Y-112680904D01*
X178315857Y-112633285D01*
X178506333Y-112585666D01*
X178744428Y-112585666D01*
X178934904Y-112633285D01*
X179030142Y-112680904D01*
X179077761Y-112728523D01*
X179125380Y-112823761D01*
X179125380Y-112919000D01*
X179077761Y-113014238D01*
X179030142Y-113061857D01*
X178934904Y-113109476D01*
X178744428Y-113157095D01*
X178506333Y-113157095D01*
X178315857Y-113109476D01*
X178220619Y-113061857D01*
X178173000Y-113014238D01*
X178125380Y-112919000D01*
X178125380Y-112252333D02*
X178125380Y-111633285D01*
X178506333Y-111966619D01*
X178506333Y-111823761D01*
X178553952Y-111728523D01*
X178601571Y-111680904D01*
X178696809Y-111633285D01*
X178934904Y-111633285D01*
X179030142Y-111680904D01*
X179077761Y-111728523D01*
X179125380Y-111823761D01*
X179125380Y-112109476D01*
X179077761Y-112204714D01*
X179030142Y-112252333D01*
X188618761Y-113791714D02*
X188666380Y-113648857D01*
X188666380Y-113410761D01*
X188618761Y-113315523D01*
X188571142Y-113267904D01*
X188475904Y-113220285D01*
X188380666Y-113220285D01*
X188285428Y-113267904D01*
X188237809Y-113315523D01*
X188190190Y-113410761D01*
X188142571Y-113601238D01*
X188094952Y-113696476D01*
X188047333Y-113744095D01*
X187952095Y-113791714D01*
X187856857Y-113791714D01*
X187761619Y-113744095D01*
X187714000Y-113696476D01*
X187666380Y-113601238D01*
X187666380Y-113363142D01*
X187714000Y-113220285D01*
X187666380Y-112886952D02*
X188666380Y-112648857D01*
X187952095Y-112458380D01*
X188666380Y-112267904D01*
X187666380Y-112029809D01*
X188666380Y-111125047D02*
X188666380Y-111696476D01*
X188666380Y-111410761D02*
X187666380Y-111410761D01*
X187809238Y-111506000D01*
X187904476Y-111601238D01*
X187952095Y-111696476D01*
X187666380Y-110506000D02*
X187666380Y-110410761D01*
X187714000Y-110315523D01*
X187761619Y-110267904D01*
X187856857Y-110220285D01*
X188047333Y-110172666D01*
X188285428Y-110172666D01*
X188475904Y-110220285D01*
X188571142Y-110267904D01*
X188618761Y-110315523D01*
X188666380Y-110410761D01*
X188666380Y-110506000D01*
X188618761Y-110601238D01*
X188571142Y-110648857D01*
X188475904Y-110696476D01*
X188285428Y-110744095D01*
X188047333Y-110744095D01*
X187856857Y-110696476D01*
X187761619Y-110648857D01*
X187714000Y-110601238D01*
X187666380Y-110506000D01*
X188666380Y-109220285D02*
X188666380Y-109791714D01*
X188666380Y-109506000D02*
X187666380Y-109506000D01*
X187809238Y-109601238D01*
X187904476Y-109696476D01*
X187952095Y-109791714D01*
X159423380Y-115698547D02*
X158947190Y-116031880D01*
X159423380Y-116269976D02*
X158423380Y-116269976D01*
X158423380Y-115889023D01*
X158471000Y-115793785D01*
X158518619Y-115746166D01*
X158613857Y-115698547D01*
X158756714Y-115698547D01*
X158851952Y-115746166D01*
X158899571Y-115793785D01*
X158947190Y-115889023D01*
X158947190Y-116269976D01*
X159423380Y-114746166D02*
X159423380Y-115317595D01*
X159423380Y-115031880D02*
X158423380Y-115031880D01*
X158566238Y-115127119D01*
X158661476Y-115222357D01*
X158709095Y-115317595D01*
X158518619Y-114365214D02*
X158471000Y-114317595D01*
X158423380Y-114222357D01*
X158423380Y-113984261D01*
X158471000Y-113889023D01*
X158518619Y-113841404D01*
X158613857Y-113793785D01*
X158709095Y-113793785D01*
X158851952Y-113841404D01*
X159423380Y-114412833D01*
X159423380Y-113793785D01*
X158518619Y-113412833D02*
X158471000Y-113365214D01*
X158423380Y-113269976D01*
X158423380Y-113031880D01*
X158471000Y-112936642D01*
X158518619Y-112889023D01*
X158613857Y-112841404D01*
X158709095Y-112841404D01*
X158851952Y-112889023D01*
X159423380Y-113460452D01*
X159423380Y-112841404D01*
X155938911Y-128917177D02*
X155366491Y-128816162D01*
X155534850Y-129321238D02*
X154827743Y-128614132D01*
X155097117Y-128344758D01*
X155198132Y-128311086D01*
X155265476Y-128311086D01*
X155366491Y-128344758D01*
X155467506Y-128445773D01*
X155501178Y-128546788D01*
X155501178Y-128614132D01*
X155467506Y-128715147D01*
X155198132Y-128984521D01*
X156612346Y-128243742D02*
X156208285Y-128647803D01*
X156410316Y-128445773D02*
X155703209Y-127738666D01*
X155736880Y-127907025D01*
X155736880Y-128041712D01*
X155703209Y-128142727D01*
X156241957Y-127334605D02*
X156241957Y-127267261D01*
X156275628Y-127166246D01*
X156443987Y-126997887D01*
X156545003Y-126964216D01*
X156612346Y-126964216D01*
X156713361Y-126997887D01*
X156780705Y-127065231D01*
X156848048Y-127199918D01*
X156848048Y-128008040D01*
X157285781Y-127570307D01*
X157959216Y-126896872D02*
X157555155Y-127300933D01*
X157757186Y-127098903D02*
X157050079Y-126391796D01*
X157083751Y-126560155D01*
X157083751Y-126694842D01*
X157050079Y-126795857D01*
X141730452Y-130848380D02*
X141397119Y-130372190D01*
X141159023Y-130848380D02*
X141159023Y-129848380D01*
X141539976Y-129848380D01*
X141635214Y-129896000D01*
X141682833Y-129943619D01*
X141730452Y-130038857D01*
X141730452Y-130181714D01*
X141682833Y-130276952D01*
X141635214Y-130324571D01*
X141539976Y-130372190D01*
X141159023Y-130372190D01*
X142682833Y-130848380D02*
X142111404Y-130848380D01*
X142397119Y-130848380D02*
X142397119Y-129848380D01*
X142301880Y-129991238D01*
X142206642Y-130086476D01*
X142111404Y-130134095D01*
X143063785Y-129943619D02*
X143111404Y-129896000D01*
X143206642Y-129848380D01*
X143444738Y-129848380D01*
X143539976Y-129896000D01*
X143587595Y-129943619D01*
X143635214Y-130038857D01*
X143635214Y-130134095D01*
X143587595Y-130276952D01*
X143016166Y-130848380D01*
X143635214Y-130848380D01*
X144254261Y-129848380D02*
X144349500Y-129848380D01*
X144444738Y-129896000D01*
X144492357Y-129943619D01*
X144539976Y-130038857D01*
X144587595Y-130229333D01*
X144587595Y-130467428D01*
X144539976Y-130657904D01*
X144492357Y-130753142D01*
X144444738Y-130800761D01*
X144349500Y-130848380D01*
X144254261Y-130848380D01*
X144159023Y-130800761D01*
X144111404Y-130753142D01*
X144063785Y-130657904D01*
X144016166Y-130467428D01*
X144016166Y-130229333D01*
X144063785Y-130038857D01*
X144111404Y-129943619D01*
X144159023Y-129896000D01*
X144254261Y-129848380D01*
X128765822Y-127363911D02*
X128866837Y-126791491D01*
X128361761Y-126959850D02*
X129068867Y-126252743D01*
X129338241Y-126522117D01*
X129371913Y-126623132D01*
X129371913Y-126690476D01*
X129338241Y-126791491D01*
X129237226Y-126892506D01*
X129136211Y-126926178D01*
X129068867Y-126926178D01*
X128967852Y-126892506D01*
X128698478Y-126623132D01*
X129439257Y-128037346D02*
X129035196Y-127633285D01*
X129237226Y-127835316D02*
X129944333Y-127128209D01*
X129775974Y-127161880D01*
X129641287Y-127161880D01*
X129540272Y-127128209D01*
X130112692Y-128710781D02*
X129708631Y-128306720D01*
X129910661Y-128508751D02*
X130617768Y-127801644D01*
X130449409Y-127835315D01*
X130314722Y-127835316D01*
X130213707Y-127801644D01*
X130449409Y-129047499D02*
X130584096Y-129182186D01*
X130685112Y-129215857D01*
X130752455Y-129215857D01*
X130920814Y-129182186D01*
X131089173Y-129081170D01*
X131358547Y-128811796D01*
X131392218Y-128710781D01*
X131392218Y-128643438D01*
X131358547Y-128542422D01*
X131223860Y-128407735D01*
X131122844Y-128374064D01*
X131055501Y-128374064D01*
X130954486Y-128407735D01*
X130786127Y-128576094D01*
X130752455Y-128677109D01*
X130752455Y-128744453D01*
X130786127Y-128845468D01*
X130920814Y-128980155D01*
X131021829Y-129013827D01*
X131089173Y-129013827D01*
X131190188Y-128980155D01*
X127612380Y-115774547D02*
X127136190Y-116107880D01*
X127612380Y-116345976D02*
X126612380Y-116345976D01*
X126612380Y-115965023D01*
X126660000Y-115869785D01*
X126707619Y-115822166D01*
X126802857Y-115774547D01*
X126945714Y-115774547D01*
X127040952Y-115822166D01*
X127088571Y-115869785D01*
X127136190Y-115965023D01*
X127136190Y-116345976D01*
X127612380Y-114822166D02*
X127612380Y-115393595D01*
X127612380Y-115107880D02*
X126612380Y-115107880D01*
X126755238Y-115203119D01*
X126850476Y-115298357D01*
X126898095Y-115393595D01*
X127612380Y-113869785D02*
X127612380Y-114441214D01*
X127612380Y-114155500D02*
X126612380Y-114155500D01*
X126755238Y-114250738D01*
X126850476Y-114345976D01*
X126898095Y-114441214D01*
X127040952Y-113298357D02*
X126993333Y-113393595D01*
X126945714Y-113441214D01*
X126850476Y-113488833D01*
X126802857Y-113488833D01*
X126707619Y-113441214D01*
X126660000Y-113393595D01*
X126612380Y-113298357D01*
X126612380Y-113107880D01*
X126660000Y-113012642D01*
X126707619Y-112965023D01*
X126802857Y-112917404D01*
X126850476Y-112917404D01*
X126945714Y-112965023D01*
X126993333Y-113012642D01*
X127040952Y-113107880D01*
X127040952Y-113298357D01*
X127088571Y-113393595D01*
X127136190Y-113441214D01*
X127231428Y-113488833D01*
X127421904Y-113488833D01*
X127517142Y-113441214D01*
X127564761Y-113393595D01*
X127612380Y-113298357D01*
X127612380Y-113107880D01*
X127564761Y-113012642D01*
X127517142Y-112965023D01*
X127421904Y-112917404D01*
X127231428Y-112917404D01*
X127136190Y-112965023D01*
X127088571Y-113012642D01*
X127040952Y-113107880D01*
X129405585Y-102383851D02*
X128833165Y-102282836D01*
X129001524Y-102787912D02*
X128294417Y-102080806D01*
X128563791Y-101811432D01*
X128664806Y-101777760D01*
X128732150Y-101777760D01*
X128833165Y-101811432D01*
X128934180Y-101912447D01*
X128967852Y-102013462D01*
X128967852Y-102080806D01*
X128934180Y-102181821D01*
X128664806Y-102451195D01*
X130079020Y-101710416D02*
X129674959Y-102114477D01*
X129876990Y-101912447D02*
X129169883Y-101205340D01*
X129203554Y-101373699D01*
X129203554Y-101508386D01*
X129169883Y-101609401D01*
X130752455Y-101036981D02*
X130348394Y-101441042D01*
X130550425Y-101239012D02*
X129843318Y-100531905D01*
X129876989Y-100700264D01*
X129876990Y-100834951D01*
X129843318Y-100935966D01*
X130281051Y-100094172D02*
X130752455Y-99622768D01*
X131156516Y-100632920D01*
X142035452Y-99164380D02*
X141702119Y-98688190D01*
X141464023Y-99164380D02*
X141464023Y-98164380D01*
X141844976Y-98164380D01*
X141940214Y-98212000D01*
X141987833Y-98259619D01*
X142035452Y-98354857D01*
X142035452Y-98497714D01*
X141987833Y-98592952D01*
X141940214Y-98640571D01*
X141844976Y-98688190D01*
X141464023Y-98688190D01*
X142987833Y-99164380D02*
X142416404Y-99164380D01*
X142702119Y-99164380D02*
X142702119Y-98164380D01*
X142606880Y-98307238D01*
X142511642Y-98402476D01*
X142416404Y-98450095D01*
X143940214Y-99164380D02*
X143368785Y-99164380D01*
X143654500Y-99164380D02*
X143654500Y-98164380D01*
X143559261Y-98307238D01*
X143464023Y-98402476D01*
X143368785Y-98450095D01*
X144797357Y-98164380D02*
X144606880Y-98164380D01*
X144511642Y-98212000D01*
X144464023Y-98259619D01*
X144368785Y-98402476D01*
X144321166Y-98592952D01*
X144321166Y-98973904D01*
X144368785Y-99069142D01*
X144416404Y-99116761D01*
X144511642Y-99164380D01*
X144702119Y-99164380D01*
X144797357Y-99116761D01*
X144844976Y-99069142D01*
X144892595Y-98973904D01*
X144892595Y-98735809D01*
X144844976Y-98640571D01*
X144797357Y-98592952D01*
X144702119Y-98545333D01*
X144511642Y-98545333D01*
X144416404Y-98592952D01*
X144368785Y-98640571D01*
X144321166Y-98735809D01*
X155426148Y-100830585D02*
X155527163Y-100258165D01*
X155022087Y-100426524D02*
X155729193Y-99719417D01*
X155998567Y-99988791D01*
X156032239Y-100089806D01*
X156032239Y-100157150D01*
X155998567Y-100258165D01*
X155897552Y-100359180D01*
X155796537Y-100392852D01*
X155729193Y-100392852D01*
X155628178Y-100359180D01*
X155358804Y-100089806D01*
X156099583Y-101504020D02*
X155695522Y-101099959D01*
X155897552Y-101301990D02*
X156604659Y-100594883D01*
X156436300Y-100628554D01*
X156301613Y-100628554D01*
X156200598Y-100594883D01*
X156773018Y-102177455D02*
X156368957Y-101773394D01*
X156570987Y-101975425D02*
X157278094Y-101268318D01*
X157109735Y-101301990D01*
X156975048Y-101301989D01*
X156874033Y-101268318D01*
X158119888Y-102110112D02*
X157783170Y-101773394D01*
X157412781Y-102076440D01*
X157480125Y-102076440D01*
X157581140Y-102110112D01*
X157749499Y-102278470D01*
X157783170Y-102379486D01*
X157783170Y-102446829D01*
X157749499Y-102547844D01*
X157581140Y-102716203D01*
X157480125Y-102749875D01*
X157412781Y-102749875D01*
X157311766Y-102716203D01*
X157143407Y-102547844D01*
X157109735Y-102446829D01*
X157109735Y-102379486D01*
X191841380Y-61825047D02*
X191365190Y-62158380D01*
X191841380Y-62396476D02*
X190841380Y-62396476D01*
X190841380Y-62015523D01*
X190889000Y-61920285D01*
X190936619Y-61872666D01*
X191031857Y-61825047D01*
X191174714Y-61825047D01*
X191269952Y-61872666D01*
X191317571Y-61920285D01*
X191365190Y-62015523D01*
X191365190Y-62396476D01*
X191841380Y-60872666D02*
X191841380Y-61444095D01*
X191841380Y-61158380D02*
X190841380Y-61158380D01*
X190984238Y-61253619D01*
X191079476Y-61348857D01*
X191127095Y-61444095D01*
X191841380Y-59920285D02*
X191841380Y-60491714D01*
X191841380Y-60206000D02*
X190841380Y-60206000D01*
X190984238Y-60301238D01*
X191079476Y-60396476D01*
X191127095Y-60491714D01*
X191174714Y-59063142D02*
X191841380Y-59063142D01*
X190793761Y-59301238D02*
X191508047Y-59539333D01*
X191508047Y-58920285D01*
X190571380Y-64238047D02*
X190095190Y-64571380D01*
X190571380Y-64809476D02*
X189571380Y-64809476D01*
X189571380Y-64428523D01*
X189619000Y-64333285D01*
X189666619Y-64285666D01*
X189761857Y-64238047D01*
X189904714Y-64238047D01*
X189999952Y-64285666D01*
X190047571Y-64333285D01*
X190095190Y-64428523D01*
X190095190Y-64809476D01*
X190571380Y-63285666D02*
X190571380Y-63857095D01*
X190571380Y-63571380D02*
X189571380Y-63571380D01*
X189714238Y-63666619D01*
X189809476Y-63761857D01*
X189857095Y-63857095D01*
X190571380Y-62333285D02*
X190571380Y-62904714D01*
X190571380Y-62619000D02*
X189571380Y-62619000D01*
X189714238Y-62714238D01*
X189809476Y-62809476D01*
X189857095Y-62904714D01*
X189571380Y-61999952D02*
X189571380Y-61380904D01*
X189952333Y-61714238D01*
X189952333Y-61571380D01*
X189999952Y-61476142D01*
X190047571Y-61428523D01*
X190142809Y-61380904D01*
X190380904Y-61380904D01*
X190476142Y-61428523D01*
X190523761Y-61476142D01*
X190571380Y-61571380D01*
X190571380Y-61857095D01*
X190523761Y-61952333D01*
X190476142Y-61999952D01*
X189047380Y-64238047D02*
X188571190Y-64571380D01*
X189047380Y-64809476D02*
X188047380Y-64809476D01*
X188047380Y-64428523D01*
X188095000Y-64333285D01*
X188142619Y-64285666D01*
X188237857Y-64238047D01*
X188380714Y-64238047D01*
X188475952Y-64285666D01*
X188523571Y-64333285D01*
X188571190Y-64428523D01*
X188571190Y-64809476D01*
X189047380Y-63285666D02*
X189047380Y-63857095D01*
X189047380Y-63571380D02*
X188047380Y-63571380D01*
X188190238Y-63666619D01*
X188285476Y-63761857D01*
X188333095Y-63857095D01*
X189047380Y-62333285D02*
X189047380Y-62904714D01*
X189047380Y-62619000D02*
X188047380Y-62619000D01*
X188190238Y-62714238D01*
X188285476Y-62809476D01*
X188333095Y-62904714D01*
X188142619Y-61952333D02*
X188095000Y-61904714D01*
X188047380Y-61809476D01*
X188047380Y-61571380D01*
X188095000Y-61476142D01*
X188142619Y-61428523D01*
X188237857Y-61380904D01*
X188333095Y-61380904D01*
X188475952Y-61428523D01*
X189047380Y-61999952D01*
X189047380Y-61380904D01*
X193238380Y-61825047D02*
X192762190Y-62158380D01*
X193238380Y-62396476D02*
X192238380Y-62396476D01*
X192238380Y-62015523D01*
X192286000Y-61920285D01*
X192333619Y-61872666D01*
X192428857Y-61825047D01*
X192571714Y-61825047D01*
X192666952Y-61872666D01*
X192714571Y-61920285D01*
X192762190Y-62015523D01*
X192762190Y-62396476D01*
X193238380Y-60872666D02*
X193238380Y-61444095D01*
X193238380Y-61158380D02*
X192238380Y-61158380D01*
X192381238Y-61253619D01*
X192476476Y-61348857D01*
X192524095Y-61444095D01*
X193238380Y-59920285D02*
X193238380Y-60491714D01*
X193238380Y-60206000D02*
X192238380Y-60206000D01*
X192381238Y-60301238D01*
X192476476Y-60396476D01*
X192524095Y-60491714D01*
X193238380Y-58967904D02*
X193238380Y-59539333D01*
X193238380Y-59253619D02*
X192238380Y-59253619D01*
X192381238Y-59348857D01*
X192476476Y-59444095D01*
X192524095Y-59539333D01*
X194635380Y-61825047D02*
X194159190Y-62158380D01*
X194635380Y-62396476D02*
X193635380Y-62396476D01*
X193635380Y-62015523D01*
X193683000Y-61920285D01*
X193730619Y-61872666D01*
X193825857Y-61825047D01*
X193968714Y-61825047D01*
X194063952Y-61872666D01*
X194111571Y-61920285D01*
X194159190Y-62015523D01*
X194159190Y-62396476D01*
X194635380Y-60872666D02*
X194635380Y-61444095D01*
X194635380Y-61158380D02*
X193635380Y-61158380D01*
X193778238Y-61253619D01*
X193873476Y-61348857D01*
X193921095Y-61444095D01*
X194635380Y-59920285D02*
X194635380Y-60491714D01*
X194635380Y-60206000D02*
X193635380Y-60206000D01*
X193778238Y-60301238D01*
X193873476Y-60396476D01*
X193921095Y-60491714D01*
X193635380Y-59301238D02*
X193635380Y-59206000D01*
X193683000Y-59110761D01*
X193730619Y-59063142D01*
X193825857Y-59015523D01*
X194016333Y-58967904D01*
X194254428Y-58967904D01*
X194444904Y-59015523D01*
X194540142Y-59063142D01*
X194587761Y-59110761D01*
X194635380Y-59206000D01*
X194635380Y-59301238D01*
X194587761Y-59396476D01*
X194540142Y-59444095D01*
X194444904Y-59491714D01*
X194254428Y-59539333D01*
X194016333Y-59539333D01*
X193825857Y-59491714D01*
X193730619Y-59444095D01*
X193683000Y-59396476D01*
X193635380Y-59301238D01*
X195905380Y-61825047D02*
X195429190Y-62158380D01*
X195905380Y-62396476D02*
X194905380Y-62396476D01*
X194905380Y-62015523D01*
X194953000Y-61920285D01*
X195000619Y-61872666D01*
X195095857Y-61825047D01*
X195238714Y-61825047D01*
X195333952Y-61872666D01*
X195381571Y-61920285D01*
X195429190Y-62015523D01*
X195429190Y-62396476D01*
X195905380Y-60872666D02*
X195905380Y-61444095D01*
X195905380Y-61158380D02*
X194905380Y-61158380D01*
X195048238Y-61253619D01*
X195143476Y-61348857D01*
X195191095Y-61444095D01*
X194905380Y-60253619D02*
X194905380Y-60158380D01*
X194953000Y-60063142D01*
X195000619Y-60015523D01*
X195095857Y-59967904D01*
X195286333Y-59920285D01*
X195524428Y-59920285D01*
X195714904Y-59967904D01*
X195810142Y-60015523D01*
X195857761Y-60063142D01*
X195905380Y-60158380D01*
X195905380Y-60253619D01*
X195857761Y-60348857D01*
X195810142Y-60396476D01*
X195714904Y-60444095D01*
X195524428Y-60491714D01*
X195286333Y-60491714D01*
X195095857Y-60444095D01*
X195000619Y-60396476D01*
X194953000Y-60348857D01*
X194905380Y-60253619D01*
X195905380Y-59444095D02*
X195905380Y-59253619D01*
X195857761Y-59158380D01*
X195810142Y-59110761D01*
X195667285Y-59015523D01*
X195476809Y-58967904D01*
X195095857Y-58967904D01*
X195000619Y-59015523D01*
X194953000Y-59063142D01*
X194905380Y-59158380D01*
X194905380Y-59348857D01*
X194953000Y-59444095D01*
X195000619Y-59491714D01*
X195095857Y-59539333D01*
X195333952Y-59539333D01*
X195429190Y-59491714D01*
X195476809Y-59444095D01*
X195524428Y-59348857D01*
X195524428Y-59158380D01*
X195476809Y-59063142D01*
X195429190Y-59015523D01*
X195333952Y-58967904D01*
X198270952Y-64333380D02*
X197937619Y-63857190D01*
X197699523Y-64333380D02*
X197699523Y-63333380D01*
X198080476Y-63333380D01*
X198175714Y-63381000D01*
X198223333Y-63428619D01*
X198270952Y-63523857D01*
X198270952Y-63666714D01*
X198223333Y-63761952D01*
X198175714Y-63809571D01*
X198080476Y-63857190D01*
X197699523Y-63857190D01*
X199223333Y-64333380D02*
X198651904Y-64333380D01*
X198937619Y-64333380D02*
X198937619Y-63333380D01*
X198842380Y-63476238D01*
X198747142Y-63571476D01*
X198651904Y-63619095D01*
X199842380Y-63333380D02*
X199937619Y-63333380D01*
X200032857Y-63381000D01*
X200080476Y-63428619D01*
X200128095Y-63523857D01*
X200175714Y-63714333D01*
X200175714Y-63952428D01*
X200128095Y-64142904D01*
X200080476Y-64238142D01*
X200032857Y-64285761D01*
X199937619Y-64333380D01*
X199842380Y-64333380D01*
X199747142Y-64285761D01*
X199699523Y-64238142D01*
X199651904Y-64142904D01*
X199604285Y-63952428D01*
X199604285Y-63714333D01*
X199651904Y-63523857D01*
X199699523Y-63428619D01*
X199747142Y-63381000D01*
X199842380Y-63333380D01*
X200747142Y-63761952D02*
X200651904Y-63714333D01*
X200604285Y-63666714D01*
X200556666Y-63571476D01*
X200556666Y-63523857D01*
X200604285Y-63428619D01*
X200651904Y-63381000D01*
X200747142Y-63333380D01*
X200937619Y-63333380D01*
X201032857Y-63381000D01*
X201080476Y-63428619D01*
X201128095Y-63523857D01*
X201128095Y-63571476D01*
X201080476Y-63666714D01*
X201032857Y-63714333D01*
X200937619Y-63761952D01*
X200747142Y-63761952D01*
X200651904Y-63809571D01*
X200604285Y-63857190D01*
X200556666Y-63952428D01*
X200556666Y-64142904D01*
X200604285Y-64238142D01*
X200651904Y-64285761D01*
X200747142Y-64333380D01*
X200937619Y-64333380D01*
X201032857Y-64285761D01*
X201080476Y-64238142D01*
X201128095Y-64142904D01*
X201128095Y-63952428D01*
X201080476Y-63857190D01*
X201032857Y-63809571D01*
X200937619Y-63761952D01*
X198270952Y-62809380D02*
X197937619Y-62333190D01*
X197699523Y-62809380D02*
X197699523Y-61809380D01*
X198080476Y-61809380D01*
X198175714Y-61857000D01*
X198223333Y-61904619D01*
X198270952Y-61999857D01*
X198270952Y-62142714D01*
X198223333Y-62237952D01*
X198175714Y-62285571D01*
X198080476Y-62333190D01*
X197699523Y-62333190D01*
X199223333Y-62809380D02*
X198651904Y-62809380D01*
X198937619Y-62809380D02*
X198937619Y-61809380D01*
X198842380Y-61952238D01*
X198747142Y-62047476D01*
X198651904Y-62095095D01*
X199842380Y-61809380D02*
X199937619Y-61809380D01*
X200032857Y-61857000D01*
X200080476Y-61904619D01*
X200128095Y-61999857D01*
X200175714Y-62190333D01*
X200175714Y-62428428D01*
X200128095Y-62618904D01*
X200080476Y-62714142D01*
X200032857Y-62761761D01*
X199937619Y-62809380D01*
X199842380Y-62809380D01*
X199747142Y-62761761D01*
X199699523Y-62714142D01*
X199651904Y-62618904D01*
X199604285Y-62428428D01*
X199604285Y-62190333D01*
X199651904Y-61999857D01*
X199699523Y-61904619D01*
X199747142Y-61857000D01*
X199842380Y-61809380D01*
X200509047Y-61809380D02*
X201175714Y-61809380D01*
X200747142Y-62809380D01*
X198270952Y-57856380D02*
X197937619Y-57380190D01*
X197699523Y-57856380D02*
X197699523Y-56856380D01*
X198080476Y-56856380D01*
X198175714Y-56904000D01*
X198223333Y-56951619D01*
X198270952Y-57046857D01*
X198270952Y-57189714D01*
X198223333Y-57284952D01*
X198175714Y-57332571D01*
X198080476Y-57380190D01*
X197699523Y-57380190D01*
X199223333Y-57856380D02*
X198651904Y-57856380D01*
X198937619Y-57856380D02*
X198937619Y-56856380D01*
X198842380Y-56999238D01*
X198747142Y-57094476D01*
X198651904Y-57142095D01*
X199842380Y-56856380D02*
X199937619Y-56856380D01*
X200032857Y-56904000D01*
X200080476Y-56951619D01*
X200128095Y-57046857D01*
X200175714Y-57237333D01*
X200175714Y-57475428D01*
X200128095Y-57665904D01*
X200080476Y-57761142D01*
X200032857Y-57808761D01*
X199937619Y-57856380D01*
X199842380Y-57856380D01*
X199747142Y-57808761D01*
X199699523Y-57761142D01*
X199651904Y-57665904D01*
X199604285Y-57475428D01*
X199604285Y-57237333D01*
X199651904Y-57046857D01*
X199699523Y-56951619D01*
X199747142Y-56904000D01*
X199842380Y-56856380D01*
X201032857Y-56856380D02*
X200842380Y-56856380D01*
X200747142Y-56904000D01*
X200699523Y-56951619D01*
X200604285Y-57094476D01*
X200556666Y-57284952D01*
X200556666Y-57665904D01*
X200604285Y-57761142D01*
X200651904Y-57808761D01*
X200747142Y-57856380D01*
X200937619Y-57856380D01*
X201032857Y-57808761D01*
X201080476Y-57761142D01*
X201128095Y-57665904D01*
X201128095Y-57427809D01*
X201080476Y-57332571D01*
X201032857Y-57284952D01*
X200937619Y-57237333D01*
X200747142Y-57237333D01*
X200651904Y-57284952D01*
X200604285Y-57332571D01*
X200556666Y-57427809D01*
X198270952Y-56459380D02*
X197937619Y-55983190D01*
X197699523Y-56459380D02*
X197699523Y-55459380D01*
X198080476Y-55459380D01*
X198175714Y-55507000D01*
X198223333Y-55554619D01*
X198270952Y-55649857D01*
X198270952Y-55792714D01*
X198223333Y-55887952D01*
X198175714Y-55935571D01*
X198080476Y-55983190D01*
X197699523Y-55983190D01*
X199223333Y-56459380D02*
X198651904Y-56459380D01*
X198937619Y-56459380D02*
X198937619Y-55459380D01*
X198842380Y-55602238D01*
X198747142Y-55697476D01*
X198651904Y-55745095D01*
X199842380Y-55459380D02*
X199937619Y-55459380D01*
X200032857Y-55507000D01*
X200080476Y-55554619D01*
X200128095Y-55649857D01*
X200175714Y-55840333D01*
X200175714Y-56078428D01*
X200128095Y-56268904D01*
X200080476Y-56364142D01*
X200032857Y-56411761D01*
X199937619Y-56459380D01*
X199842380Y-56459380D01*
X199747142Y-56411761D01*
X199699523Y-56364142D01*
X199651904Y-56268904D01*
X199604285Y-56078428D01*
X199604285Y-55840333D01*
X199651904Y-55649857D01*
X199699523Y-55554619D01*
X199747142Y-55507000D01*
X199842380Y-55459380D01*
X201080476Y-55459380D02*
X200604285Y-55459380D01*
X200556666Y-55935571D01*
X200604285Y-55887952D01*
X200699523Y-55840333D01*
X200937619Y-55840333D01*
X201032857Y-55887952D01*
X201080476Y-55935571D01*
X201128095Y-56030809D01*
X201128095Y-56268904D01*
X201080476Y-56364142D01*
X201032857Y-56411761D01*
X200937619Y-56459380D01*
X200699523Y-56459380D01*
X200604285Y-56411761D01*
X200556666Y-56364142D01*
X195857952Y-45179380D02*
X195524619Y-44703190D01*
X195286523Y-45179380D02*
X195286523Y-44179380D01*
X195667476Y-44179380D01*
X195762714Y-44227000D01*
X195810333Y-44274619D01*
X195857952Y-44369857D01*
X195857952Y-44512714D01*
X195810333Y-44607952D01*
X195762714Y-44655571D01*
X195667476Y-44703190D01*
X195286523Y-44703190D01*
X196810333Y-45179380D02*
X196238904Y-45179380D01*
X196524619Y-45179380D02*
X196524619Y-44179380D01*
X196429380Y-44322238D01*
X196334142Y-44417476D01*
X196238904Y-44465095D01*
X197429380Y-44179380D02*
X197524619Y-44179380D01*
X197619857Y-44227000D01*
X197667476Y-44274619D01*
X197715095Y-44369857D01*
X197762714Y-44560333D01*
X197762714Y-44798428D01*
X197715095Y-44988904D01*
X197667476Y-45084142D01*
X197619857Y-45131761D01*
X197524619Y-45179380D01*
X197429380Y-45179380D01*
X197334142Y-45131761D01*
X197286523Y-45084142D01*
X197238904Y-44988904D01*
X197191285Y-44798428D01*
X197191285Y-44560333D01*
X197238904Y-44369857D01*
X197286523Y-44274619D01*
X197334142Y-44227000D01*
X197429380Y-44179380D01*
X198619857Y-44512714D02*
X198619857Y-45179380D01*
X198381761Y-44131761D02*
X198143666Y-44846047D01*
X198762714Y-44846047D01*
X186253380Y-61825047D02*
X185777190Y-62158380D01*
X186253380Y-62396476D02*
X185253380Y-62396476D01*
X185253380Y-62015523D01*
X185301000Y-61920285D01*
X185348619Y-61872666D01*
X185443857Y-61825047D01*
X185586714Y-61825047D01*
X185681952Y-61872666D01*
X185729571Y-61920285D01*
X185777190Y-62015523D01*
X185777190Y-62396476D01*
X186253380Y-60872666D02*
X186253380Y-61444095D01*
X186253380Y-61158380D02*
X185253380Y-61158380D01*
X185396238Y-61253619D01*
X185491476Y-61348857D01*
X185539095Y-61444095D01*
X185253380Y-60253619D02*
X185253380Y-60158380D01*
X185301000Y-60063142D01*
X185348619Y-60015523D01*
X185443857Y-59967904D01*
X185634333Y-59920285D01*
X185872428Y-59920285D01*
X186062904Y-59967904D01*
X186158142Y-60015523D01*
X186205761Y-60063142D01*
X186253380Y-60158380D01*
X186253380Y-60253619D01*
X186205761Y-60348857D01*
X186158142Y-60396476D01*
X186062904Y-60444095D01*
X185872428Y-60491714D01*
X185634333Y-60491714D01*
X185443857Y-60444095D01*
X185348619Y-60396476D01*
X185301000Y-60348857D01*
X185253380Y-60253619D01*
X185253380Y-59586952D02*
X185253380Y-58967904D01*
X185634333Y-59301238D01*
X185634333Y-59158380D01*
X185681952Y-59063142D01*
X185729571Y-59015523D01*
X185824809Y-58967904D01*
X186062904Y-58967904D01*
X186158142Y-59015523D01*
X186205761Y-59063142D01*
X186253380Y-59158380D01*
X186253380Y-59444095D01*
X186205761Y-59539333D01*
X186158142Y-59586952D01*
X184729380Y-61825047D02*
X184253190Y-62158380D01*
X184729380Y-62396476D02*
X183729380Y-62396476D01*
X183729380Y-62015523D01*
X183777000Y-61920285D01*
X183824619Y-61872666D01*
X183919857Y-61825047D01*
X184062714Y-61825047D01*
X184157952Y-61872666D01*
X184205571Y-61920285D01*
X184253190Y-62015523D01*
X184253190Y-62396476D01*
X184729380Y-60872666D02*
X184729380Y-61444095D01*
X184729380Y-61158380D02*
X183729380Y-61158380D01*
X183872238Y-61253619D01*
X183967476Y-61348857D01*
X184015095Y-61444095D01*
X183729380Y-60253619D02*
X183729380Y-60158380D01*
X183777000Y-60063142D01*
X183824619Y-60015523D01*
X183919857Y-59967904D01*
X184110333Y-59920285D01*
X184348428Y-59920285D01*
X184538904Y-59967904D01*
X184634142Y-60015523D01*
X184681761Y-60063142D01*
X184729380Y-60158380D01*
X184729380Y-60253619D01*
X184681761Y-60348857D01*
X184634142Y-60396476D01*
X184538904Y-60444095D01*
X184348428Y-60491714D01*
X184110333Y-60491714D01*
X183919857Y-60444095D01*
X183824619Y-60396476D01*
X183777000Y-60348857D01*
X183729380Y-60253619D01*
X183824619Y-59539333D02*
X183777000Y-59491714D01*
X183729380Y-59396476D01*
X183729380Y-59158380D01*
X183777000Y-59063142D01*
X183824619Y-59015523D01*
X183919857Y-58967904D01*
X184015095Y-58967904D01*
X184157952Y-59015523D01*
X184729380Y-59586952D01*
X184729380Y-58967904D01*
X179855952Y-58237380D02*
X179522619Y-57761190D01*
X179284523Y-58237380D02*
X179284523Y-57237380D01*
X179665476Y-57237380D01*
X179760714Y-57285000D01*
X179808333Y-57332619D01*
X179855952Y-57427857D01*
X179855952Y-57570714D01*
X179808333Y-57665952D01*
X179760714Y-57713571D01*
X179665476Y-57761190D01*
X179284523Y-57761190D01*
X180808333Y-58237380D02*
X180236904Y-58237380D01*
X180522619Y-58237380D02*
X180522619Y-57237380D01*
X180427380Y-57380238D01*
X180332142Y-57475476D01*
X180236904Y-57523095D01*
X181427380Y-57237380D02*
X181522619Y-57237380D01*
X181617857Y-57285000D01*
X181665476Y-57332619D01*
X181713095Y-57427857D01*
X181760714Y-57618333D01*
X181760714Y-57856428D01*
X181713095Y-58046904D01*
X181665476Y-58142142D01*
X181617857Y-58189761D01*
X181522619Y-58237380D01*
X181427380Y-58237380D01*
X181332142Y-58189761D01*
X181284523Y-58142142D01*
X181236904Y-58046904D01*
X181189285Y-57856428D01*
X181189285Y-57618333D01*
X181236904Y-57427857D01*
X181284523Y-57332619D01*
X181332142Y-57285000D01*
X181427380Y-57237380D01*
X182713095Y-58237380D02*
X182141666Y-58237380D01*
X182427380Y-58237380D02*
X182427380Y-57237380D01*
X182332142Y-57380238D01*
X182236904Y-57475476D01*
X182141666Y-57523095D01*
X182376380Y-42687714D02*
X183090666Y-42687714D01*
X183233523Y-42735333D01*
X183328761Y-42830571D01*
X183376380Y-42973428D01*
X183376380Y-43068666D01*
X183376380Y-41687714D02*
X183376380Y-42259142D01*
X183376380Y-41973428D02*
X182376380Y-41973428D01*
X182519238Y-42068666D01*
X182614476Y-42163904D01*
X182662095Y-42259142D01*
X182376380Y-41068666D02*
X182376380Y-40973428D01*
X182424000Y-40878190D01*
X182471619Y-40830571D01*
X182566857Y-40782952D01*
X182757333Y-40735333D01*
X182995428Y-40735333D01*
X183185904Y-40782952D01*
X183281142Y-40830571D01*
X183328761Y-40878190D01*
X183376380Y-40973428D01*
X183376380Y-41068666D01*
X183328761Y-41163904D01*
X183281142Y-41211523D01*
X183185904Y-41259142D01*
X182995428Y-41306761D01*
X182757333Y-41306761D01*
X182566857Y-41259142D01*
X182471619Y-41211523D01*
X182424000Y-41163904D01*
X182376380Y-41068666D01*
X183376380Y-39782952D02*
X183376380Y-40354380D01*
X183376380Y-40068666D02*
X182376380Y-40068666D01*
X182519238Y-40163904D01*
X182614476Y-40259142D01*
X182662095Y-40354380D01*
X187682142Y-61825047D02*
X187729761Y-61872666D01*
X187777380Y-62015523D01*
X187777380Y-62110761D01*
X187729761Y-62253619D01*
X187634523Y-62348857D01*
X187539285Y-62396476D01*
X187348809Y-62444095D01*
X187205952Y-62444095D01*
X187015476Y-62396476D01*
X186920238Y-62348857D01*
X186825000Y-62253619D01*
X186777380Y-62110761D01*
X186777380Y-62015523D01*
X186825000Y-61872666D01*
X186872619Y-61825047D01*
X187777380Y-60872666D02*
X187777380Y-61444095D01*
X187777380Y-61158380D02*
X186777380Y-61158380D01*
X186920238Y-61253619D01*
X187015476Y-61348857D01*
X187063095Y-61444095D01*
X186777380Y-60253619D02*
X186777380Y-60158380D01*
X186825000Y-60063142D01*
X186872619Y-60015523D01*
X186967857Y-59967904D01*
X187158333Y-59920285D01*
X187396428Y-59920285D01*
X187586904Y-59967904D01*
X187682142Y-60015523D01*
X187729761Y-60063142D01*
X187777380Y-60158380D01*
X187777380Y-60253619D01*
X187729761Y-60348857D01*
X187682142Y-60396476D01*
X187586904Y-60444095D01*
X187396428Y-60491714D01*
X187158333Y-60491714D01*
X186967857Y-60444095D01*
X186872619Y-60396476D01*
X186825000Y-60348857D01*
X186777380Y-60253619D01*
X187110714Y-59063142D02*
X187777380Y-59063142D01*
X186729761Y-59301238D02*
X187444047Y-59539333D01*
X187444047Y-58920285D01*
X180998952Y-55983142D02*
X180951333Y-56030761D01*
X180808476Y-56078380D01*
X180713238Y-56078380D01*
X180570380Y-56030761D01*
X180475142Y-55935523D01*
X180427523Y-55840285D01*
X180379904Y-55649809D01*
X180379904Y-55506952D01*
X180427523Y-55316476D01*
X180475142Y-55221238D01*
X180570380Y-55126000D01*
X180713238Y-55078380D01*
X180808476Y-55078380D01*
X180951333Y-55126000D01*
X180998952Y-55173619D01*
X181951333Y-56078380D02*
X181379904Y-56078380D01*
X181665619Y-56078380D02*
X181665619Y-55078380D01*
X181570380Y-55221238D01*
X181475142Y-55316476D01*
X181379904Y-55364095D01*
X182570380Y-55078380D02*
X182665619Y-55078380D01*
X182760857Y-55126000D01*
X182808476Y-55173619D01*
X182856095Y-55268857D01*
X182903714Y-55459333D01*
X182903714Y-55697428D01*
X182856095Y-55887904D01*
X182808476Y-55983142D01*
X182760857Y-56030761D01*
X182665619Y-56078380D01*
X182570380Y-56078380D01*
X182475142Y-56030761D01*
X182427523Y-55983142D01*
X182379904Y-55887904D01*
X182332285Y-55697428D01*
X182332285Y-55459333D01*
X182379904Y-55268857D01*
X182427523Y-55173619D01*
X182475142Y-55126000D01*
X182570380Y-55078380D01*
X183237047Y-55078380D02*
X183856095Y-55078380D01*
X183522761Y-55459333D01*
X183665619Y-55459333D01*
X183760857Y-55506952D01*
X183808476Y-55554571D01*
X183856095Y-55649809D01*
X183856095Y-55887904D01*
X183808476Y-55983142D01*
X183760857Y-56030761D01*
X183665619Y-56078380D01*
X183379904Y-56078380D01*
X183284666Y-56030761D01*
X183237047Y-55983142D01*
X180998952Y-54586142D02*
X180951333Y-54633761D01*
X180808476Y-54681380D01*
X180713238Y-54681380D01*
X180570380Y-54633761D01*
X180475142Y-54538523D01*
X180427523Y-54443285D01*
X180379904Y-54252809D01*
X180379904Y-54109952D01*
X180427523Y-53919476D01*
X180475142Y-53824238D01*
X180570380Y-53729000D01*
X180713238Y-53681380D01*
X180808476Y-53681380D01*
X180951333Y-53729000D01*
X180998952Y-53776619D01*
X181951333Y-54681380D02*
X181379904Y-54681380D01*
X181665619Y-54681380D02*
X181665619Y-53681380D01*
X181570380Y-53824238D01*
X181475142Y-53919476D01*
X181379904Y-53967095D01*
X182570380Y-53681380D02*
X182665619Y-53681380D01*
X182760857Y-53729000D01*
X182808476Y-53776619D01*
X182856095Y-53871857D01*
X182903714Y-54062333D01*
X182903714Y-54300428D01*
X182856095Y-54490904D01*
X182808476Y-54586142D01*
X182760857Y-54633761D01*
X182665619Y-54681380D01*
X182570380Y-54681380D01*
X182475142Y-54633761D01*
X182427523Y-54586142D01*
X182379904Y-54490904D01*
X182332285Y-54300428D01*
X182332285Y-54062333D01*
X182379904Y-53871857D01*
X182427523Y-53776619D01*
X182475142Y-53729000D01*
X182570380Y-53681380D01*
X183284666Y-53776619D02*
X183332285Y-53729000D01*
X183427523Y-53681380D01*
X183665619Y-53681380D01*
X183760857Y-53729000D01*
X183808476Y-53776619D01*
X183856095Y-53871857D01*
X183856095Y-53967095D01*
X183808476Y-54109952D01*
X183237047Y-54681380D01*
X183856095Y-54681380D01*
X198270952Y-61190142D02*
X198223333Y-61237761D01*
X198080476Y-61285380D01*
X197985238Y-61285380D01*
X197842380Y-61237761D01*
X197747142Y-61142523D01*
X197699523Y-61047285D01*
X197651904Y-60856809D01*
X197651904Y-60713952D01*
X197699523Y-60523476D01*
X197747142Y-60428238D01*
X197842380Y-60333000D01*
X197985238Y-60285380D01*
X198080476Y-60285380D01*
X198223333Y-60333000D01*
X198270952Y-60380619D01*
X199223333Y-61285380D02*
X198651904Y-61285380D01*
X198937619Y-61285380D02*
X198937619Y-60285380D01*
X198842380Y-60428238D01*
X198747142Y-60523476D01*
X198651904Y-60571095D01*
X199842380Y-60285380D02*
X199937619Y-60285380D01*
X200032857Y-60333000D01*
X200080476Y-60380619D01*
X200128095Y-60475857D01*
X200175714Y-60666333D01*
X200175714Y-60904428D01*
X200128095Y-61094904D01*
X200080476Y-61190142D01*
X200032857Y-61237761D01*
X199937619Y-61285380D01*
X199842380Y-61285380D01*
X199747142Y-61237761D01*
X199699523Y-61190142D01*
X199651904Y-61094904D01*
X199604285Y-60904428D01*
X199604285Y-60666333D01*
X199651904Y-60475857D01*
X199699523Y-60380619D01*
X199747142Y-60333000D01*
X199842380Y-60285380D01*
X201128095Y-61285380D02*
X200556666Y-61285380D01*
X200842380Y-61285380D02*
X200842380Y-60285380D01*
X200747142Y-60428238D01*
X200651904Y-60523476D01*
X200556666Y-60571095D01*
M02*
